<svg xmlns="http://www.w3.org/2000/svg" xmlns:xlink="http://www.w3.org/1999/xlink" viewBox="0 0 340 166.78"><defs><linearGradient id="Degradado_sin_nombre_16" x1="32.24" y1="124.75" x2="257.1" y2="140.1" gradientUnits="userSpaceOnUse"><stop offset="0" stop-color="#00aa69" stop-opacity="0"/><stop offset="0.01" stop-color="#00aa6d" stop-opacity="0.12"/><stop offset="0.03" stop-color="#00aa73" stop-opacity="0.3"/><stop offset="0.06" stop-color="#00aa78" stop-opacity="0.45"/><stop offset="0.08" stop-color="#00aa7c" stop-opacity="0.56"/><stop offset="0.11" stop-color="#00aa7f" stop-opacity="0.64"/><stop offset="0.15" stop-color="#00aa81" stop-opacity="0.69"/><stop offset="0.23" stop-color="#00aa81" stop-opacity="0.7"/><stop offset="0.38" stop-color="#2bacb5" stop-opacity="0.82"/><stop offset="0.59" stop-color="#6aaeff"/><stop offset="0.73" stop-color="#5c74bb"/><stop offset="1" stop-color="#3f0035"/></linearGradient><linearGradient id="Degradado_sin_nombre_16-2" x1="94.88" y1="26.31" x2="308.04" y2="40.86" xlink:href="#Degradado_sin_nombre_16"/><linearGradient id="Degradado_sin_nombre_16-3" x1="236.83" y1="126.22" x2="294.85" y2="132.6" xlink:href="#Degradado_sin_nombre_16"/><linearGradient id="Degradado_sin_nombre_55" x1="242.28" y1="143.36" x2="306.68" y2="145.19" gradientUnits="userSpaceOnUse"><stop offset="0" stop-color="#00aa69" stop-opacity="0"/><stop offset="0.01" stop-color="#00aa6d" stop-opacity="0.12"/><stop offset="0.04" stop-color="#00aa73" stop-opacity="0.3"/><stop offset="0.07" stop-color="#00aa78" stop-opacity="0.45"/><stop offset="0.1" stop-color="#00aa7c" stop-opacity="0.56"/><stop offset="0.14" stop-color="#00aa7f" stop-opacity="0.64"/><stop offset="0.18" stop-color="#00aa81" stop-opacity="0.69"/><stop offset="0.27" stop-color="#00aa81" stop-opacity="0.7"/><stop offset="0.4" stop-color="#2bacb5" stop-opacity="0.82"/><stop offset="0.59" stop-color="#6aaeff"/><stop offset="0.64" stop-color="#669eed"/><stop offset="0.74" stop-color="#5c75bd"/><stop offset="0.89" stop-color="#4c3471"/><stop offset="1" stop-color="#3f0035"/></linearGradient><linearGradient id="Degradado_sin_nombre_16-4" x1="234.61" y1="146.38" x2="292.63" y2="152.76" xlink:href="#Degradado_sin_nombre_16"/><linearGradient id="Degradado_sin_nombre_16-5" x1="9.34" y1="31.89" x2="179.77" y2="33.71" xlink:href="#Degradado_sin_nombre_16"/><linearGradient id="Degradado_sin_nombre_16-6" x1="9.46" y1="19.97" x2="179.89" y2="21.79" xlink:href="#Degradado_sin_nombre_16"/></defs><g id="Capa_7" data-name="Capa 7"><path d="M255.42,109.51c-16.27,13.58-35.16,23.94-54.85,32-2.46,1-4.94,2-7.42,3s-5,1.8-7.55,2.64-5.06,1.67-7.61,2.46-5.11,1.54-7.68,2.3a282.4,282.4,0,0,1-31.4,6.62,230.49,230.49,0,0,1-32.21,2.26c-5.41-.11-10.82-.37-16.24-1-1.35-.12-2.71-.28-4.06-.48s-2.71-.32-4.05-.6l-4-.78-4-.93c-2.67-.68-5.33-1.4-8-2.31l-2-.65-1.95-.76c-.65-.24-1.3-.51-1.94-.77l-1.91-.9a53.76,53.76,0,0,1-14.18-9.4,30.46,30.46,0,0,1-8.64-14.84,26.33,26.33,0,0,1-.44-8.42,31.51,31.51,0,0,1,2.09-7.86l0,0a.38.38,0,0,1,.51-.22.4.4,0,0,1,.24.47,27.06,27.06,0,0,0,.17,15.24A27.7,27.7,0,0,0,47.09,139a49.31,49.31,0,0,0,13.44,7.62,87,87,0,0,0,15,4.23,127.72,127.72,0,0,0,15.48,2c5.19.41,10.41.49,15.62.42s10.42-.41,15.62-.8,10.38-1.05,15.53-1.85a319.88,319.88,0,0,0,60.7-15A286,286,0,0,0,255,108.83a.39.39,0,0,1,.55.13.41.41,0,0,1-.08.52Z" style="fill:url(#Degradado_sin_nombre_16)"/><path d="M96.85,53c15.82-11.94,33.73-21,52.33-28.07a247.09,247.09,0,0,1,58-14.5L211,10l3.76-.34c2.5-.25,5-.39,7.53-.54,5-.21,10.08-.35,15.15-.15a149.17,149.17,0,0,1,15.19,1.2,110.62,110.62,0,0,1,15.09,3c1.25.35,2.49.69,3.73,1.06l3.69,1.23c1.23.43,2.44.93,3.66,1.4a15.86,15.86,0,0,1,1.8.79l1.78.85a52.79,52.79,0,0,1,13.17,9,30,30,0,0,1,8.31,13.75,24.12,24.12,0,0,1,.84,7.84,27.88,27.88,0,0,1-1.54,7.46l0,.06a.4.4,0,0,1-.51.24.41.41,0,0,1-.26-.45,25.28,25.28,0,0,0-1.11-14.18,27.07,27.07,0,0,0-8.47-11.4,48.44,48.44,0,0,0-12.49-7.22,80.86,80.86,0,0,0-13.92-4.18,143.79,143.79,0,0,0-29-2.82,222.07,222.07,0,0,0-29.15,1.83A308.94,308.94,0,0,0,151.13,31q-13.95,4.44-27.46,10.12A284,284,0,0,0,97.24,53.65a.41.41,0,0,1-.54-.16.39.39,0,0,1,.11-.51Z" style="fill:url(#Degradado_sin_nombre_16-2)"/><path d="M261.78,139a.88.88,0,0,1,0-.21c0-.17,0-.34-.06-.51l-.06-.45-.06-.44c0-.13,0-.26-.05-.39s0-.34-.07-.51-.05-.38-.09-.57-.07-.44-.11-.65l-.15-.74c-.08-.34-.17-.67-.28-1a7.65,7.65,0,0,0-.44-1.12,4.57,4.57,0,0,0-.65-1,4.14,4.14,0,0,0-1.1-.9,6.17,6.17,0,0,0-1.17-.53c-.33-.12-.66-.21-1-.3s-.86-.19-1.3-.27l-.63-.1-.64-.09-.68-.1-.55-.06-.47-.06-.4,0,0,0,.58-.06.66-.08.59-.08.58-.08.6-.09.51-.09c.43-.08.85-.17,1.28-.28a8.71,8.71,0,0,0,1.51-.53,4.83,4.83,0,0,0,1.16-.73,4.31,4.31,0,0,0,1-1.2,6.09,6.09,0,0,0,.45-1,9.88,9.88,0,0,0,.35-1.21c.1-.39.17-.79.24-1.19s.1-.6.15-.9l.09-.67.09-.7c0-.13,0-.25,0-.37l.06-.47c0-.08,0-.16,0-.25a1.49,1.49,0,0,1,0,.21c0,.18.05.35.07.52s0,.3.05.45.05.35.07.53,0,.26.05.39.06.38.08.57.05.32.08.48.08.49.13.74.14.64.22,1a8,8,0,0,0,.42,1.28,5.13,5.13,0,0,0,.53,1,5,5,0,0,0,.46.57,4.53,4.53,0,0,0,1.08.82,7.07,7.07,0,0,0,1.24.52,11,11,0,0,0,1.25.33c.35.08.7.15,1.06.2s.49.08.74.12l.57.08.61.08.46.06.46,0,.27,0s0,0,.06,0l-.25,0-.6.08-.44.05-.44,0-.48.07-.61.09-.63.11q-.39.06-.78.15c-.34.07-.68.16-1,.26a8.25,8.25,0,0,0-1.17.44,4.89,4.89,0,0,0-.93.56,4.18,4.18,0,0,0-.91,1,4.48,4.48,0,0,0-.35.6,5.65,5.65,0,0,0-.29.67c-.15.41-.27.82-.38,1.24s-.15.71-.22,1.07-.1.58-.14.88-.08.48-.11.72,0,.41-.08.62l-.09.75-.06.49S261.78,138.93,261.78,139Z" style="fill:url(#Degradado_sin_nombre_16-3)"/><path d="M277.35,161.53a1.48,1.48,0,0,1-.05-.35c0-.29-.07-.58-.11-.87l-.09-.77c0-.26-.07-.51-.1-.77l-.09-.67c0-.29-.08-.57-.12-.86l-.15-1c-.06-.38-.13-.75-.2-1.12s-.17-.85-.26-1.26c-.13-.58-.29-1.16-.47-1.73a12.45,12.45,0,0,0-.76-1.91,8.94,8.94,0,0,0-1.12-1.68A7.55,7.55,0,0,0,272,147a11.36,11.36,0,0,0-2-.91,16.75,16.75,0,0,0-1.71-.5c-.74-.18-1.48-.34-2.23-.47l-1.09-.18-1.09-.15-1.18-.16c-.31-.05-.62-.08-.93-.12l-.8-.1-.7-.07a.06.06,0,0,1,.06,0l1-.11,1.12-.14,1-.13,1-.14,1-.16.87-.15c.74-.14,1.48-.29,2.2-.48a14.8,14.8,0,0,0,2.6-.9,8.59,8.59,0,0,0,2-1.26,7.49,7.49,0,0,0,1.66-2.06,12.21,12.21,0,0,0,.78-1.73,21.47,21.47,0,0,0,.6-2.08c.16-.67.29-1.35.41-2,.09-.51.17-1,.25-1.54s.11-.76.16-1.15.11-.81.16-1.21c0-.21,0-.43.07-.64s.07-.53.1-.79a3,3,0,0,1,.06-.43c0,.12,0,.24,0,.36,0,.29.07.59.1.88l.09.77.12.91.09.68c.05.33.09.65.14,1s.09.56.13.84.15.83.23,1.25.23,1.1.37,1.64a15.71,15.71,0,0,0,.72,2.2,9.44,9.44,0,0,0,.91,1.72,8.26,8.26,0,0,0,.79,1,7.74,7.74,0,0,0,1.86,1.41,11.94,11.94,0,0,0,2.12.9c.71.23,1.43.41,2.16.57s1.2.24,1.8.34l1.27.2,1,.14,1,.14.79.09.8.1.46,0a.13.13,0,0,1,.1,0l-.43.06-1,.12-.76.09-.74.1-.83.11-1.05.16c-.36,0-.72.12-1.08.18s-.89.16-1.33.26c-.59.12-1.17.27-1.74.44a14.31,14.31,0,0,0-2,.76,8.13,8.13,0,0,0-1.6,1,7.23,7.23,0,0,0-1.56,1.66,8.2,8.2,0,0,0-.61,1c-.18.37-.34.75-.49,1.14a17.56,17.56,0,0,0-.64,2.14c-.15.6-.27,1.21-.38,1.83s-.18,1-.25,1.51-.13.82-.19,1.24-.09.71-.13,1.06-.11.86-.16,1.29c0,.28-.06.56-.1.84A1.37,1.37,0,0,1,277.35,161.53Z" style="fill:url(#Degradado_sin_nombre_55)"/><path d="M251,155.31c0-.05,0-.1,0-.15s0-.24,0-.36a3.11,3.11,0,0,1,0-.32c0-.1,0-.21,0-.31s0-.19,0-.28,0-.24-.05-.36l-.06-.41c0-.15-.05-.31-.08-.46s-.07-.35-.11-.52-.12-.48-.2-.72a4.47,4.47,0,0,0-.31-.79,3.57,3.57,0,0,0-.47-.7,3.41,3.41,0,0,0-.77-.64,5.23,5.23,0,0,0-.84-.37c-.23-.08-.47-.15-.71-.21a9.37,9.37,0,0,0-.92-.19l-.45-.08-.46-.06-.48-.07-.39-.05-.33,0-.29,0h0l.41-.05.47-.06.42,0,.41-.06.43-.07.36-.06c.31-.06.61-.12.91-.2a6,6,0,0,0,1.08-.37,3.67,3.67,0,0,0,.82-.52,3.19,3.19,0,0,0,.69-.86,5,5,0,0,0,.32-.71c.1-.29.18-.57.25-.86s.12-.57.17-.85.07-.42.11-.64l.06-.47c0-.17.05-.34.07-.51l0-.26c0-.11,0-.22,0-.33a1.1,1.1,0,0,1,0-.18.77.77,0,0,1,0,.15c0,.12,0,.24.05.37l0,.32c0,.12,0,.25.05.37a2.89,2.89,0,0,1,0,.29l.06.4c0,.11,0,.23.05.34s.06.35.1.52.09.46.15.68a6.92,6.92,0,0,0,.3.91,3.55,3.55,0,0,0,.38.72,2.44,2.44,0,0,0,.32.4,3.36,3.36,0,0,0,.77.59,5.65,5.65,0,0,0,.88.37c.3.09.59.17.9.24l.74.14.53.08.41.06.43.06.33,0,.33,0,.19,0s0,0,0,0l-.18,0-.43,0-.31,0-.31,0-.34,0-.44.06-.44.08-.55.1-.73.19a5.21,5.21,0,0,0-.83.31,3.46,3.46,0,0,0-.66.41,3,3,0,0,0-.65.68c-.09.14-.17.28-.25.43s-.14.31-.2.47a7,7,0,0,0-.27.89c-.06.25-.11.5-.16.76s-.07.41-.1.62,0,.34-.08.52,0,.29-.05.44,0,.35-.07.53,0,.23,0,.35A.25.25,0,0,1,251,155.31Z" style="fill:url(#Degradado_sin_nombre_16-4)"/><path d="M82.74,45.11a2.3,2.3,0,0,1,0-.26c0-.21-.06-.42-.08-.63s0-.37-.07-.56,0-.37-.07-.55l-.06-.48L82.34,42c0-.24-.07-.47-.11-.71s-.09-.54-.14-.81-.12-.61-.19-.92-.21-.83-.34-1.24A8.78,8.78,0,0,0,81,36.93a6,6,0,0,0-.8-1.21,5.42,5.42,0,0,0-1.36-1.12,8.71,8.71,0,0,0-1.46-.66c-.41-.14-.82-.26-1.24-.36s-1.07-.24-1.62-.34l-.78-.13-.8-.11-.84-.12-.68-.08-.58-.07-.5-.06s0,0,0,0l.73-.09.81-.1.74-.09.72-.1.74-.12.63-.11c.54-.1,1.07-.21,1.59-.34A11.44,11.44,0,0,0,78.23,31a6,6,0,0,0,1.44-.91,5.25,5.25,0,0,0,1.2-1.49,7.35,7.35,0,0,0,.56-1.25,13.06,13.06,0,0,0,.44-1.51c.12-.49.21-1,.3-1.47l.18-1.12c0-.28.07-.55.11-.83l.12-.88c0-.15,0-.31,0-.46s.05-.39.07-.58a1.81,1.81,0,0,1,0-.31l0,.26c0,.22,0,.43.07.64s.05.38.07.56l.09.66.06.49c0,.24.07.47.1.7s.07.41.1.61.1.61.16.91.17.79.27,1.18a11.83,11.83,0,0,0,.52,1.59,6.49,6.49,0,0,0,.66,1.25,4.92,4.92,0,0,0,.57.71,5.62,5.62,0,0,0,1.35,1,8.63,8.63,0,0,0,1.54.64c.51.17,1,.3,1.56.42l1.3.25.93.14.71.1.75.1.57.07.58.07.33,0s.06,0,.08,0l-.31,0-.75.09-.55.06-.54.07-.6.08-.76.12-.78.13c-.32.05-.64.12-1,.19a12.9,12.9,0,0,0-1.26.32,10.63,10.63,0,0,0-1.46.54A6.55,6.55,0,0,0,86,35a5.11,5.11,0,0,0-1.12,1.2,5.66,5.66,0,0,0-.44.75,6.12,6.12,0,0,0-.36.83,11.84,11.84,0,0,0-.46,1.54c-.11.44-.2.88-.28,1.33s-.13.72-.18,1.09-.09.6-.14.9l-.09.77-.12.93c0,.2,0,.41-.07.61A.78.78,0,0,1,82.74,45.11Z" style="fill:url(#Degradado_sin_nombre_16-5)"/><path d="M95.15,26s0-.08,0-.11l0-.26a2,2,0,0,1,0-.23l0-.23,0-.2a2,2,0,0,0,0-.26c0-.1,0-.2,0-.3l-.06-.33c0-.13,0-.26-.08-.38s-.09-.35-.14-.52a4,4,0,0,0-.23-.57,2.1,2.1,0,0,0-.34-.5,2.3,2.3,0,0,0-.56-.47,3.24,3.24,0,0,0-.6-.27,4.44,4.44,0,0,0-.52-.15c-.22-.06-.44-.1-.67-.14l-.32-.05L91.09,21,90.74,21l-.28,0-.24,0-.21,0h0l.3,0,.33,0,.31,0,.3-.05.31,0,.26-.05c.22,0,.44-.08.66-.14a5.13,5.13,0,0,0,.78-.27,2.53,2.53,0,0,0,.6-.38,2.28,2.28,0,0,0,.49-.62,3.08,3.08,0,0,0,.24-.52,6.32,6.32,0,0,0,.18-.62c0-.2.09-.41.12-.61s0-.31.08-.46,0-.23,0-.35,0-.24,0-.36,0-.13,0-.2l0-.23s0-.09,0-.13v.11c0,.08,0,.17,0,.26a1.64,1.64,0,0,0,0,.23c0,.09,0,.18,0,.28l0,.2a2.89,2.89,0,0,0,0,.29,2.17,2.17,0,0,0,0,.25c0,.13,0,.25.07.38a4.31,4.31,0,0,0,.11.49,4.2,4.2,0,0,0,.21.66,3.74,3.74,0,0,0,.28.52,3.25,3.25,0,0,0,.23.29,2.28,2.28,0,0,0,.56.42,3,3,0,0,0,.64.27,5,5,0,0,0,.64.17l.55.11.38.06.29,0,.32,0,.23,0,.24,0h.17l-.13,0-.31,0-.23,0-.22,0-.25,0-.31.05-.32.06-.41.07-.52.14a4.31,4.31,0,0,0-.6.22,2.41,2.41,0,0,0-.48.3,2.19,2.19,0,0,0-.47.49,2.48,2.48,0,0,0-.18.31,3.68,3.68,0,0,0-.15.35,4.71,4.71,0,0,0-.19.64l-.12.55c0,.15-.05.3-.07.45l-.06.37c0,.11,0,.21,0,.32s0,.26,0,.39l0,.25S95.15,26,95.15,26Z" style="fill:url(#Degradado_sin_nombre_16-6)"/><path d="M46.54,100.7V65.46h5.38L74,92.65H71.35V65.46H77.8V100.7H72.41l-22-27.18H53V100.7Z" style="fill:#fcfcfc;stroke:#fff;stroke-miterlimit:10;stroke-width:1.25px"/><path d="M102,100.7V71H90.31V65.46h29.9V71H108.53v29.7Z" style="fill:#fcfcfc;stroke:#fff;stroke-miterlimit:10;stroke-width:1.25px"/><path d="M193.92,100.7a20.17,20.17,0,0,1-7.36-1.32,17.53,17.53,0,0,1-5.9-3.72,17.14,17.14,0,0,1-3.87-5.6,18.57,18.57,0,0,1,0-14,16.75,16.75,0,0,1,3.87-5.58,17.84,17.84,0,0,1,5.87-3.69,20,20,0,0,1,7.39-1.33,20.46,20.46,0,0,1,7.35,1.3,17.3,17.3,0,0,1,5.84,3.67A16.77,16.77,0,0,1,211,76a18.75,18.75,0,0,1,0,14.07,17.24,17.24,0,0,1-3.85,5.6,16.9,16.9,0,0,1-5.84,3.69A20.25,20.25,0,0,1,193.92,100.7Zm0-5.58a12.63,12.63,0,0,0,4.78-.88,11.46,11.46,0,0,0,3.79-2.49A11.61,11.61,0,0,0,205,87.93a12.73,12.73,0,0,0,.9-4.85,12.87,12.87,0,0,0-.88-4.84,10.88,10.88,0,0,0-2.52-3.82,11.51,11.51,0,0,0-3.81-2.5,12.82,12.82,0,0,0-4.78-.88,13.15,13.15,0,0,0-4.82.88,11.15,11.15,0,0,0-3.84,2.52,12.61,12.61,0,0,0-2.54,13.44,12,12,0,0,0,2.54,3.84,11.15,11.15,0,0,0,3.84,2.52A13,13,0,0,0,193.92,95.12Z" style="fill:#fcfcfc;stroke:#fff;stroke-miterlimit:10;stroke-width:1.25px"/><path d="M271.44,100.7V76.24H278V100.7Zm12.48-35.24H271.44V70.3h12.48Z" style="fill:#fcfcfc;stroke:#fff;stroke-miterlimit:10;stroke-width:1.2383780628442764px"/><polygon points="12.82 95.16 6.28 95.16 6.28 100.7 32.7 100.7 32.7 95.16 13.12 95.16 12.82 95.16" style="fill:#fcfcfc;stroke:#fff;stroke-miterlimit:10;stroke-width:1.25px"/><polygon points="13 71 13.3 71 32.7 71 32.7 65.46 6.28 65.46 6.28 71 13 71" style="fill:#fcfcfc;stroke:#fff;stroke-miterlimit:10;stroke-width:1.25px"/><rect x="6.28" y="80.11" width="23.56" height="5.39" style="fill:#fcfcfc;stroke:#fff;stroke-miterlimit:10;stroke-width:1.25px"/><path d="M162.79,100.7l-8.1-11.56.52-.22a11.27,11.27,0,0,0,7-10.92,12.2,12.2,0,0,0-1.81-6.75,11.49,11.49,0,0,0-5.16-4.3,19.71,19.71,0,0,0-8-1.49H132.69V71h14.19q4.34,0,6.52,1.84A6.35,6.35,0,0,1,155.59,78a6.43,6.43,0,0,1-2.19,5.18q-2.19,1.88-6.52,1.87h-2.33l11.19,15.65Z" style="fill:#fcfcfc;stroke:#fff;stroke-miterlimit:10;stroke-width:1.25px"/><polygon points="314.33 65.46 311 71.48 324.28 95.49 297.71 95.49 294.48 101.32 333.72 101.32 314.33 65.46" style="fill:#fcfcfc;stroke:#fff;stroke-miterlimit:10;stroke-width:1.25px"/><path d="M253.39,71.25a11.49,11.49,0,0,0-5.16-4.3,19.71,19.71,0,0,0-8-1.49H225.7V71h14.2c2.88,0,5.06.61,6.52,1.84a7.17,7.17,0,0,1,0,10.32C245,84.38,242.78,85,239.9,85h-2.32v0H225.7V100.7h6.55V90.53h7.95a19.21,19.21,0,0,0,8-1.53,11.4,11.4,0,0,0,7-11A12.2,12.2,0,0,0,253.39,71.25Z" style="fill:#fcfcfc;stroke:#fff;stroke-miterlimit:10;stroke-width:1.25px"/></g></svg>