<?xml version="1.0" standalone="no"?>
<!DOCTYPE svg PUBLIC "-//W3C//DTD SVG 20010904//EN"
 "http://www.w3.org/TR/2001/REC-SVG-20010904/DTD/svg10.dtd">
<svg version="1.0" xmlns="http://www.w3.org/2000/svg"
 width="375.000000pt" height="375.000000pt" viewBox="0 0 375.000000 375.000000"
 preserveAspectRatio="xMidYMid meet">
<metadata>
Created by potrace 1.16, written by Peter Selinger 2001-2019
</metadata>
<g transform="translate(0.000000,375.000000) scale(0.100000,-0.100000)"
fill="#000000" stroke="none">
<path d="M1525 3575 c11 -116 16 -131 51 -127 51 6 57 18 49 96 -9 94 -16 106
-67 106 l-40 0 7 -75z"/>
<path d="M2630 3353 c-25 -43 -46 -82 -48 -88 -1 -6 14 -19 35 -29 l37 -18 23
27 c13 14 23 33 23 42 0 8 11 28 25 45 14 16 25 36 25 43 0 15 -47 55 -64 55
-6 0 -31 -35 -56 -77z"/>
<path d="M2871 3183 c-55 -62 -73 -93 -54 -93 4 0 27 19 51 43 l44 42 -27 -54
c-24 -49 -27 -88 -6 -79 11 4 131 141 131 151 0 17 -30 5 -49 -20 -28 -35 -37
-23 -12 17 20 34 18 60 -4 60 -7 0 -41 -30 -74 -67z"/>
<path d="M821 2966 c-22 -26 -35 -161 -23 -228 14 -73 67 -188 87 -188 10 0 4
21 -22 73 -32 62 -37 83 -41 159 -5 94 3 158 19 158 18 0 110 -94 157 -159 53
-73 90 -169 99 -252 6 -58 5 -59 -19 -59 -41 0 -195 48 -290 89 -123 54 -216
120 -302 213 -86 92 -92 91 -83 -22 6 -74 28 -133 74 -202 16 -24 42 -74 58
-113 38 -90 106 -180 174 -227 30 -21 59 -38 65 -38 6 0 -2 9 -19 19 -50 31
-121 112 -164 185 -22 39 -38 72 -36 75 3 2 18 -5 33 -16 73 -54 307 -143 333
-127 20 12 6 20 -63 38 -171 43 -321 143 -381 255 -26 47 -62 180 -52 190 3 2
32 -23 65 -57 77 -77 179 -145 291 -193 100 -44 245 -87 304 -91 l40 -3 1 51
c0 65 21 97 84 129 98 49 177 30 273 -68 37 -38 67 -73 67 -78 0 -5 -12 -9
-27 -9 -41 0 -106 -36 -126 -70 -10 -16 -27 -80 -37 -142 -25 -146 -34 -174
-69 -230 -37 -58 -79 -90 -203 -153 -54 -28 -96 -54 -93 -57 10 -9 165 60 225
101 103 70 150 159 171 321 20 158 64 209 179 211 39 0 49 3 35 9 -20 8 -55
45 -124 130 -44 55 -108 83 -186 83 -66 0 -104 -15 -148 -59 -15 -15 -29 -25
-31 -23 -2 2 -11 27 -20 54 -34 105 -141 249 -232 313 -26 18 -34 19 -43 8z"/>
<path d="M3243 2742 c-46 -26 -83 -52 -83 -59 0 -17 19 -16 50 2 32 18 40 18
40 0 0 -8 -13 -21 -30 -30 -27 -14 -42 -45 -22 -45 8 0 75 39 82 49 3 3 18 11
34 16 45 16 58 43 39 83 -8 17 -18 32 -22 31 -3 -1 -43 -22 -88 -47z"/>
<path d="M984 2260 c-49 -25 -154 -110 -154 -125 0 -2 -14 -27 -30 -55 -66
-112 -94 -257 -78 -402 15 -141 78 -259 174 -328 l49 -35 -56 57 c-102 101
-144 227 -137 403 6 123 30 210 82 298 l31 52 115 0 c129 0 183 18 208 69 16
32 8 76 -13 76 -9 0 -12 -6 -9 -15 11 -27 -16 -71 -54 -90 -43 -21 -212 -35
-212 -17 0 32 95 92 190 123 l55 17 -51 1 c-38 1 -66 -7 -110 -29z"/>
<path d="M1550 2235 c0 -3 0 -130 -1 -282 l0 -278 36 -3 35 -3 0 109 0 109 54
6 c100 10 126 47 126 179 0 93 -20 141 -66 158 -26 10 -184 14 -184 5z m160
-75 c16 -16 20 -33 20 -94 0 -88 -12 -106 -71 -106 l-39 0 0 110 0 110 35 0
c22 0 43 -8 55 -20z"/>
<path d="M1870 1955 l0 -285 35 0 35 0 0 285 0 285 -35 0 -35 0 0 -285z"/>
<path d="M2035 2226 c-18 -13 -17 -17 15 -89 l33 -76 -31 -68 c-36 -80 -58
-185 -48 -237 4 -20 19 -50 34 -67 22 -24 35 -30 69 -31 50 0 90 22 103 58 16
41 11 125 -11 199 -49 164 -49 141 2 190 25 24 64 49 86 55 35 11 46 10 87 -8
77 -34 86 -66 86 -300 l0 -193 28 3 27 3 3 188 c3 210 -4 250 -50 303 -42 47
-83 67 -143 67 -57 1 -105 -19 -162 -68 l-40 -34 -23 50 c-30 63 -41 73 -65
55z m102 -302 c17 -46 28 -174 16 -190 -17 -24 -51 -26 -74 -3 -19 19 -21 29
-16 83 7 73 35 158 50 153 6 -2 17 -21 24 -43z"/>
<path d="M2580 1954 l0 -286 101 4 c99 3 101 3 130 36 l29 32 0 216 0 216 -34
34 c-34 34 -34 34 -130 34 l-96 0 0 -286z m168 210 c21 -15 22 -20 22 -208 0
-177 -2 -194 -19 -210 -13 -12 -32 -16 -58 -14 l-38 3 -3 210 c-1 115 0 215 2
222 7 18 67 16 94 -3z"/>
<path d="M2966 2198 c-4 -24 -23 -142 -42 -263 -19 -121 -37 -230 -40 -243 -4
-21 -2 -23 28 -20 30 3 33 7 43 53 l10 50 44 3 c76 6 88 -1 95 -58 7 -49 7
-50 41 -50 19 0 35 5 35 11 0 13 -78 505 -85 537 -5 20 -11 22 -64 22 l-58 0
-7 -42z m93 -188 c12 -85 21 -158 21 -162 0 -5 -25 -8 -55 -8 l-56 0 6 33 c9
54 45 291 45 302 0 6 3 6 8 0 5 -6 19 -80 31 -165z"/>
<path d="M1790 1583 c-34 -12 -40 -36 -40 -149 0 -105 1 -114 22 -128 12 -9
32 -16 43 -16 11 0 31 7 43 16 21 14 22 23 22 129 0 90 -3 117 -16 129 -8 9
-19 16 -24 16 -5 0 -14 2 -22 4 -7 3 -20 2 -28 -1z"/>
<path d="M2675 1582 c-41 -9 -45 -20 -45 -143 0 -110 1 -119 22 -133 51 -36
108 -4 108 59 0 28 -4 35 -20 35 -14 0 -20 -7 -20 -24 0 -29 -26 -54 -41 -39
-5 5 -9 51 -7 104 3 86 5 94 23 94 13 0 21 -8 23 -22 5 -32 42 -32 42 0 0 46
-39 78 -85 69z"/>
<path d="M1552 1438 c3 -119 5 -143 18 -143 11 0 16 15 20 54 3 30 10 56 16
58 5 2 16 -19 23 -46 13 -53 35 -81 51 -65 7 7 1 42 -16 97 l-26 87 26 46 c31
56 31 54 6 54 -14 0 -28 -16 -47 -52 l-28 -53 -3 53 c-3 44 -6 52 -23 52 -19
0 -19 -6 -17 -142z"/>
<path d="M1960 1575 c-5 -71 1 -270 8 -277 17 -17 25 11 23 78 -2 83 15 91 24
11 4 -34 11 -70 16 -79 17 -32 37 -9 44 50 11 97 20 102 25 17 4 -62 8 -80 20
-80 13 0 15 24 18 143 l3 142 -30 0 c-34 0 -37 -6 -46 -93 -4 -37 -11 -69 -15
-72 -4 -3 -11 17 -14 43 -17 127 -15 122 -47 122 -16 0 -29 -2 -29 -5z"/>
<path d="M2222 1438 l3 -143 50 3 c28 2 56 9 64 17 18 17 18 100 0 121 -9 11
-9 18 -1 26 7 7 12 28 12 48 0 50 -24 70 -84 70 l-47 0 3 -142z"/>
<path d="M2420 1466 c0 -67 5 -126 12 -141 22 -49 98 -42 119 11 5 15 8 75 7
133 -3 101 -4 106 -25 109 -22 3 -22 1 -25 -120 -3 -101 -6 -123 -18 -123 -12
0 -16 22 -20 120 -5 115 -6 120 -27 123 -23 3 -23 2 -23 -112z"/>
<path d="M2830 1440 c0 -133 1 -140 20 -140 18 0 20 7 20 60 0 57 1 60 25 60
24 0 25 -3 25 -58 0 -66 5 -75 31 -62 16 9 17 24 16 142 -2 130 -3 133 -24
136 -21 3 -23 0 -23 -51 0 -61 -3 -67 -31 -60 -16 4 -19 14 -19 59 0 47 -2 54
-20 54 -19 0 -20 -7 -20 -140z"/>
<path d="M3075 1568 c-2 -7 -11 -56 -20 -108 -8 -52 -17 -109 -20 -126 -8 -45
22 -56 37 -14 12 36 58 44 58 10 0 -24 38 -48 45 -28 3 7 -5 72 -18 143 -22
128 -22 130 -50 133 -16 2 -29 -2 -32 -10z"/>
<path d="M366 1064 c-83 -52 -90 -59 -81 -73 4 -8 17 -5 39 9 40 24 46 25 46
6 0 -8 -13 -23 -30 -33 -30 -18 -41 -43 -17 -43 7 0 28 13 47 28 19 16 49 34
67 41 18 7 35 21 38 32 6 18 -20 80 -33 78 -4 0 -38 -21 -76 -45z"/>
<path d="M449 971 c-92 -61 -108 -91 -68 -126 19 -19 21 -19 55 0 53 29 114
85 114 105 0 17 -34 50 -51 50 -3 0 -25 -13 -50 -29z"/>
<path d="M495 846 l-70 -64 24 -26 c33 -35 65 -33 93 5 13 17 35 37 51 45 17
9 27 23 27 37 0 27 -26 67 -43 67 -7 0 -43 -29 -82 -64z"/>
<path d="M740 770 c0 -6 -10 -8 -24 -4 -19 4 -34 -3 -68 -34 -24 -22 -51 -53
-60 -69 -15 -27 -16 -32 -2 -51 25 -36 56 -27 114 34 45 48 51 59 46 85 -5 24
-2 29 14 29 11 0 20 5 20 10 0 6 -9 10 -20 10 -11 0 -20 -5 -20 -10z"/>
<path d="M1008 518 c-25 -20 -81 -135 -75 -153 4 -8 18 -20 31 -27 32 -14 45
-4 86 68 35 62 38 99 11 114 -25 13 -34 13 -53 -2z"/>
<path d="M1128 370 l-36 -90 29 -16 c17 -8 38 -12 48 -9 19 6 41 44 41 73 0 9
7 26 15 36 24 32 19 64 -15 81 -16 8 -33 15 -38 15 -5 0 -25 -41 -44 -90z"/>
<path d="M1380 338 c-6 -24 -15 -59 -21 -78 -5 -19 -9 -45 -9 -58 0 -36 23
-21 33 22 12 50 33 41 29 -13 -3 -31 0 -41 12 -41 10 0 17 15 21 48 3 26 10
57 16 70 17 42 11 72 -17 82 -43 17 -53 12 -64 -32z"/>
<path d="M2127 364 c-4 -4 -4 -26 -1 -48 l5 -41 -20 37 c-24 43 -32 49 -50 39
-10 -7 -9 -26 5 -97 9 -49 21 -93 25 -98 17 -19 22 4 11 56 -5 29 -9 55 -7 56
2 2 15 -19 29 -46 48 -96 66 -74 41 50 -17 83 -26 104 -38 92z"/>
<path d="M1507 353 c-9 -16 -29 -182 -22 -192 3 -6 22 -11 40 -11 42 0 60 27
52 76 -3 19 -1 36 4 39 13 9 11 61 -3 72 -18 14 -66 25 -71 16z"/>
</g>
</svg>
