<svg width="146" height="87" viewBox="0 0 146 87" fill="none" xmlns="http://www.w3.org/2000/svg">
<path d="M43.9426 61.0546C43.9426 62.4761 43.6342 62.9911 42.5629 62.9911H40.77V58.0063H42.6035C43.4893 58.0063 43.9426 58.5619 43.9426 59.6956V61.0546ZM40.77 51.002H42.4592C43.5098 51.002 43.8395 51.5376 43.8395 52.8561V53.7626C43.8395 54.9368 43.4892 55.4725 42.5011 55.4725H40.77L40.77 51.002ZM46.6825 54.8956C46.8397 54.2488 46.9021 53.5827 46.8679 52.918V52.3205C46.9257 51.3998 46.7107 50.4826 46.2498 49.6836C45.7759 48.922 44.8283 48.4688 43.4892 48.4688H37.7422V65.525H43.5923C44.9726 65.525 45.9202 65.0717 46.3527 64.2684C46.8162 63.4254 47.0306 62.468 46.9709 61.5078V60.519C47.0063 59.8748 46.9438 59.2291 46.7854 58.6037C46.7161 58.2875 46.5751 57.9915 46.3733 57.7384C45.8325 57.1597 45.0843 56.819 44.2927 56.7909C45.8171 56.523 46.4553 55.9669 46.6825 54.8956Z" fill="#002C3C"/>
<path d="M56.3411 51.0027V48.4688H49.0078V65.5256H56.3411V62.9917H52.0362V57.9864H56.2182V55.4525H52.0362V51.0027H56.3411Z" fill="#002C3C"/>
<path d="M64.5829 61.0547C64.5829 62.4762 64.2739 62.9912 63.2027 62.9912H61.4104V58.0058H63.2438C64.1297 58.0058 64.5829 58.562 64.5829 59.6951V61.0547ZM61.4104 51.0021H63.0997C64.1504 51.0021 64.4799 51.5377 64.4799 52.8562V53.7626C64.4799 54.9369 64.1296 55.4725 63.1408 55.4725H61.4103L61.4104 51.0021ZM66.9933 64.2684C67.4565 63.4253 67.6708 62.468 67.6113 61.5079V60.5191C67.6468 59.8749 67.5843 59.2292 67.4259 58.6038C67.3563 58.2874 67.2151 57.9912 67.0131 57.7379C66.4723 57.1597 65.7244 56.8191 64.9331 56.7909C66.4577 56.5231 67.0963 55.9669 67.3229 54.8956C67.4801 54.2488 67.5425 53.5826 67.5082 52.9179V52.3205C67.5661 51.3999 67.3511 50.4827 66.8902 49.6836C66.4164 48.922 65.4688 48.4688 64.1297 48.4688H58.3828V65.525H64.2328C65.6124 65.525 66.5607 65.0719 66.9933 64.2684Z" fill="#002C3C"/>
<path d="M72.6839 48.4688H69.6562V65.525H72.6839V48.4688Z" fill="#002C3C"/>
<path d="M81.2394 61.0553C81.2394 62.4761 80.9303 62.9917 79.8591 62.9917H78.0668V51.0027H79.8591C80.9304 51.0027 81.2394 51.5383 81.2394 52.9386V61.0553ZM80.8892 48.4688H75.0391V65.525H80.8892C82.2693 65.525 83.2171 65.0718 83.6496 64.2684C84.1128 63.4253 84.3271 62.468 84.2676 61.5079V52.486C84.3297 51.5322 84.1151 50.5808 83.6496 49.746C83.2171 48.922 82.2693 48.4688 80.8892 48.4688Z" fill="#002C3C"/>
<path d="M90.558 50.7142L91.6905 59.4072H89.3838L90.558 50.7142ZM89.0748 61.9204H92.0207L92.4944 65.5257H95.5016L93.03 48.4688H88.0859L85.5938 65.5257H88.6016L89.0748 61.9204Z" fill="#002C3C"/>
<path d="M20.6016 72.2605V69.7266H13.9688V86.7835H16.9964V79.2442H20.4786V76.7103H16.9964V72.2605H20.6016Z" fill="#002C3C"/>
<path d="M29.802 72.2605V69.7266H22.4688V86.7835H29.802V84.2496H25.4971V79.2442H29.679V76.7103H25.4971V72.2605H29.802Z" fill="#002C3C"/>
<path d="M34.8558 72.2605H36.6481C37.6986 72.2605 38.0283 72.7755 38.0283 74.0733V75.2682C38.0283 76.4006 37.678 76.8951 36.6892 76.8951H34.8558V72.2605ZM34.8558 79.4289H36.6686C37.5751 79.4289 38.0283 79.9851 38.0283 81.0976V83.6727C37.9685 84.7148 38.0446 85.7603 38.2548 86.7828H41.2215C41.0753 85.9884 41.02 85.18 41.0566 84.3732V81.8186C41.0943 81.1879 41.0317 80.5551 40.8713 79.944C40.8103 79.6389 40.6837 79.3507 40.5003 79.0993C40.0163 78.5657 39.344 78.2408 38.6251 78.1929C39.0895 78.1724 39.5369 78.0119 39.9084 77.7325C40.2798 77.4531 40.558 77.0677 40.7064 76.6272C40.9804 75.8477 41.0993 75.0221 41.0566 74.197V73.6201C41.1155 72.6772 40.8933 71.7379 40.418 70.9214C39.9435 70.1592 38.9966 69.7266 37.6163 69.7266H31.8281V86.7828H34.8559L34.8558 79.4289Z" fill="#002C3C"/>
<path d="M56.2272 86.7828V69.7266H51.7355L49.6761 79.944L47.6572 69.7266H43.125V86.7828H45.9274L45.7819 74.9798L48.2746 86.7828H51.0976L53.5896 74.9798L53.4454 86.7828H56.2272Z" fill="#002C3C"/>
<path d="M65.9042 72.2605V69.7266H58.5703V86.7835H65.9042V84.2496H61.5993V79.2442H65.7807V76.7103H61.5993V72.2605H65.9042Z" fill="#002C3C"/>
<path d="M77.5781 86.7828V69.7266H74.7976L74.88 79.8616L70.8622 69.7266H67.9375V86.7828H70.7186L70.6362 76.6684L74.5703 86.7828H77.5781Z" fill="#002C3C"/>
<path d="M84.4472 86.7828V72.2598H86.8162V69.7266H79.0703V72.2598H81.4195V86.7828H84.4472Z" fill="#002C3C"/>
<path d="M91.1968 80.6651L92.3704 71.9721L93.5034 80.6651H91.1968ZM89.8984 69.7266L87.4062 86.7828H90.4133L90.8871 83.1783H93.833L94.3069 86.7828H97.3146L94.8425 69.7266H89.8984Z" fill="#002C3C"/>
<path d="M103.632 84.249H101.84V72.2599H103.632C104.704 72.2599 105.013 72.7955 105.013 74.1963V82.3125C105.013 83.7339 104.704 84.249 103.632 84.249ZM107.423 85.5262C107.886 84.683 108.1 83.7258 108.041 82.7656V73.7431C108.103 72.7893 107.888 71.838 107.423 71.0032C106.99 70.1798 106.042 69.7266 104.662 69.7266H98.8125V86.7828H104.662C106.042 86.7828 106.99 86.3296 107.423 85.5262Z" fill="#002C3C"/>
<path d="M114.347 71.972L115.48 80.665H113.173L114.347 71.972ZM109.383 86.7827H112.39L112.864 83.1776H115.81L116.283 86.7827H119.291L116.819 69.7266H111.875L109.383 86.7827Z" fill="#002C3C"/>
<path d="M3.51224 33.9936C4.53514 31.6886 6.32557 29.8096 8.57854 28.6767C10.8315 27.5438 13.4076 27.2271 15.8679 27.7806C18.3281 28.3342 20.5204 29.7236 22.0711 31.7122C23.6218 33.7009 24.435 36.1656 24.3722 38.6866C24.3093 41.2076 23.3743 43.6288 21.7264 45.5377C20.0785 47.4466 17.8198 48.7251 15.335 49.1553C12.8502 49.5855 10.2931 49.1409 8.0994 47.8971C5.90568 46.6534 4.21107 44.6875 3.3043 42.3344C2.26695 39.6362 2.34173 36.6367 3.51224 33.9936ZM8.01162 50.7325C11.2785 52.1818 14.9874 52.2741 18.3224 50.9889C21.6573 49.7037 24.3452 47.1464 25.7946 43.8795L25.7952 43.8782C26.8759 41.4417 27.2099 38.7396 26.7549 36.1134C26.2999 33.4871 25.0764 31.0548 23.239 29.1239C21.4017 27.1931 19.033 25.8504 16.4326 25.2657C13.8322 24.6811 11.1168 24.8806 8.62978 25.8392C6.14276 26.7978 3.99586 28.4723 2.46052 30.651C0.925188 32.8297 0.0703173 35.4148 0.00415389 38.0793C-0.0620096 40.7439 0.663501 43.3682 2.08881 45.6204C3.51412 47.8726 5.57524 49.6516 8.01162 50.7325Z" fill="#002C3C"/>
<path d="M14.7253 34.8351C14.8405 34.5674 15.0082 34.3254 15.2184 34.1235C15.4285 33.9215 15.6769 33.7636 15.949 33.659C16.4972 33.4617 17.1004 33.4831 17.6333 33.7187C18.1661 33.9544 18.5878 34.3863 18.8106 34.9246C18.9436 35.264 18.9906 35.631 18.9476 35.993C18.9046 36.3549 18.7729 36.7007 18.5641 36.9995C18.3554 37.2983 18.0761 37.541 17.7511 37.7059C17.426 37.8709 17.0653 37.953 16.7008 37.945C16.3364 37.9371 15.9796 37.8392 15.6621 37.6602C15.3446 37.4812 15.0762 37.2265 14.8807 36.9188C14.6852 36.6112 14.5688 36.26 14.5417 35.8965C14.5146 35.533 14.5776 35.1684 14.7253 34.8351ZM18.411 40.2236C18.4328 40.2146 18.4553 40.2069 18.4771 40.1979C19.6534 39.7311 20.5967 38.8172 21.1006 37.6563C21.6044 36.4954 21.6277 35.1822 21.1653 34.0042C20.7029 32.8262 19.7924 31.8794 18.6334 31.3713C17.4744 30.8631 16.1613 30.835 14.9816 31.293C13.8019 31.7511 12.8518 32.658 12.3394 33.8151C11.8269 34.9722 11.7939 36.2852 12.2476 37.4666C12.7013 38.648 13.6046 39.6015 14.7598 40.1182C15.915 40.6349 17.2279 40.6728 18.411 40.2236Z" fill="#002C3C"/>
<path d="M6.40787 36.808C6.68966 36.9299 7.0012 36.9659 7.30336 36.9113C7.60551 36.8567 7.88477 36.7141 8.10611 36.5013C8.32746 36.2885 8.48102 36.015 8.54745 35.7153C8.61388 35.4155 8.59028 35.1028 8.47955 34.8164C8.36883 34.53 8.17594 34.2827 7.92513 34.1056C7.67432 33.9285 7.3768 33.8295 7.06988 33.8209C6.76295 33.8124 6.46028 33.8947 6.2 34.0576C5.93973 34.2205 5.73341 34.4566 5.60691 34.7364C5.60314 34.7441 5.59983 34.7518 5.5967 34.7602C5.43274 35.1393 5.42611 35.5681 5.57823 35.9521C5.73035 36.3361 6.02876 36.644 6.40787 36.808Z" fill="#002C3C"/>
<path d="M15.3752 42.9752C15.1909 42.8863 14.9909 42.8345 14.7866 42.8228C14.5824 42.8112 14.3778 42.8399 14.1847 42.9074C13.9915 42.9748 13.8134 43.0796 13.6608 43.2159C13.5082 43.3521 13.3838 43.5171 13.295 43.7014C13.2867 43.7169 13.2802 43.7329 13.2731 43.7491C13.1497 44.0288 13.1114 44.3387 13.1629 44.6401C13.2144 44.9415 13.3534 45.2211 13.5627 45.4439C13.772 45.6668 14.0423 45.8232 14.3399 45.8935C14.6374 45.9638 14.9491 45.945 15.2361 45.8393C15.523 45.7337 15.7725 45.5459 15.9535 45.2995C16.1344 45.053 16.2388 44.7587 16.2536 44.4533C16.2684 44.1479 16.1931 43.8449 16.0369 43.5821C15.8806 43.3192 15.6505 43.1082 15.3752 42.9752Z" fill="#002C3C"/>
<path d="M6.7692 42.5761C6.76072 42.5915 6.75364 42.6076 6.74657 42.6231C6.57204 43.0021 6.55436 43.4346 6.6973 43.8266C6.84023 44.2186 7.13222 44.5382 7.50972 44.7158C7.88722 44.8935 8.31959 44.9148 8.71272 44.7751C9.10585 44.6354 9.42784 44.346 9.6086 43.97C9.78936 43.594 9.81428 43.1618 9.67784 42.7675C9.54139 42.3732 9.2547 42.0488 8.88019 41.865C8.50567 41.6811 8.07367 41.6527 7.67829 41.7859C7.28291 41.9191 6.95615 42.2031 6.7692 42.5761Z" fill="#002C3C"/>
<path d="M39.5398 8.49102C40.6671 6.21868 42.6292 4.47011 45.0159 3.61093C47.4025 2.75175 50.029 2.84849 52.3459 3.88092L75.5542 14.8213C77.017 15.5114 78.2874 16.551 79.2533 17.8484C80.2192 19.1458 80.8508 20.661 81.0924 22.2603C81.334 23.8596 81.178 25.4938 80.6385 27.0186C80.0989 28.5434 79.1923 29.9119 77.9985 31.0033C76.5697 32.309 74.7837 33.1585 72.8692 33.443C70.9547 33.7276 68.9988 33.4342 67.252 32.6006L43.9602 21.7008C41.6224 20.5351 39.8434 18.4885 39.0144 16.0113C38.1855 13.5341 38.3745 10.8289 39.5398 8.49102ZM42.84 24.0196L66.1543 34.9298C67.6204 35.6264 69.2095 36.027 70.8307 36.1086C71.0226 36.1176 71.2139 36.1214 71.405 36.1214C74.4846 36.1256 77.4547 34.9792 79.7329 32.907C81.2393 31.5307 82.3837 29.8047 83.0649 27.8813C83.7461 25.958 83.9432 23.8964 83.6389 21.8788C83.3345 19.8612 82.5381 17.9495 81.3199 16.3127C80.1016 14.6758 78.499 13.3641 76.6537 12.4934L53.4307 1.54535L53.4049 1.53372C50.4347 0.212301 47.065 0.107594 44.0186 1.24206C40.9721 2.37653 38.4915 4.6598 37.1091 7.60207C35.7267 10.5443 35.5525 13.9112 36.6238 16.9804C37.6952 20.0497 39.9269 22.5768 42.84 24.0196Z" fill="#002C3C"/>
<path d="M47.8449 14.2418C48.256 14.094 48.7018 14.0716 49.1256 14.1775C49.5495 14.2834 49.9323 14.5128 50.2256 14.8366C50.5189 15.1603 50.7094 15.5639 50.773 15.9961C50.8367 16.4284 50.7704 16.8697 50.5829 17.2643C50.4631 17.5256 50.293 17.7607 50.0823 17.9563C49.8716 18.1519 49.6244 18.304 49.3549 18.404C49.0854 18.504 48.7988 18.55 48.5116 18.5392C48.2243 18.5285 47.9419 18.4612 47.6807 18.3413C47.6665 18.3356 47.6524 18.3292 47.6382 18.3221C47.375 18.201 47.139 18.0279 46.9444 17.8133C46.7498 17.5986 46.6006 17.3469 46.5058 17.0731C46.4078 16.7993 46.3647 16.5088 46.379 16.2183C46.3932 15.9278 46.4645 15.643 46.5889 15.38C46.7132 15.1171 46.8882 14.8813 47.1037 14.686C47.3192 14.4907 47.5711 14.3397 47.8449 14.2418ZM46.596 20.6589L46.621 20.6699L46.5354 20.6602C47.3921 21.0644 48.3495 21.2054 49.2864 21.0654C50.2232 20.9254 51.0976 20.5108 51.7988 19.8739C52.5 19.237 52.9966 18.4065 53.2258 17.4873C53.455 16.5682 53.4065 15.6017 53.0865 14.7102C52.7664 13.8186 52.1891 13.042 51.4276 12.4785C50.6661 11.915 49.7547 11.59 48.8085 11.5446C47.8623 11.4991 46.9239 11.7353 46.1119 12.2232C45.3 12.7111 44.6508 13.4288 44.2468 14.2855L44.2461 14.2874C43.982 14.8601 43.8333 15.4791 43.8084 16.1093C43.7836 16.7394 43.883 17.3683 44.1012 17.9599C44.3194 18.5516 44.6521 19.0945 45.0802 19.5576C45.5082 20.0207 46.0233 20.3949 46.596 20.6589Z" fill="#002C3C"/>
<path d="M70.0417 19.1691C70.2939 18.637 70.7466 18.2264 71.3008 18.0274C71.8549 17.8283 72.4654 17.8569 72.9986 18.1068C73.5196 18.3674 73.9202 18.8187 74.1171 19.367C74.3141 19.9152 74.2923 20.5182 74.0563 21.0508C73.8037 21.5826 73.351 21.9928 72.797 22.1918C72.243 22.3908 71.6327 22.3625 71.0994 22.1131C70.5708 21.8573 70.1628 21.4052 69.9625 20.8532C69.8642 20.5811 69.8207 20.2922 69.8343 20.0032C69.8479 19.7143 69.9184 19.4308 70.0417 19.1691ZM70.005 24.4358C70.8611 24.8585 71.8239 25.0157 72.7699 24.8873C73.716 24.7589 74.6021 24.3507 75.3145 23.7151C76.0269 23.0794 76.5331 22.2454 76.7681 21.3201C77.0031 20.3947 76.9561 19.4202 76.6333 18.5217C76.3105 17.6232 75.7265 16.8417 74.9564 16.2775C74.1862 15.7133 73.265 15.3921 72.311 15.3551C71.357 15.3182 70.4137 15.5673 69.6022 16.0703C68.7907 16.5733 68.1481 17.3074 67.7569 18.1782C67.2485 19.3094 67.1987 20.5936 67.618 21.7607C68.0373 22.9278 68.893 23.8868 70.005 24.4358Z" fill="#002C3C"/>
<path d="M69.3469 28.0102C68.9614 28.1526 68.6477 28.4414 68.4741 28.8138C68.3005 29.1862 68.2809 29.6121 68.4197 29.9989L68.4237 30.0105C68.5301 30.2997 68.72 30.5508 68.9692 30.7321C69.2184 30.9133 69.5158 31.0166 69.8238 31.0289C70.1317 31.0412 70.4363 30.9618 70.6991 30.801C70.962 30.6401 71.1712 30.4048 71.3004 30.125C71.4295 29.8452 71.4728 29.5334 71.4247 29.229C71.3766 28.9246 71.2393 28.6413 71.0302 28.4149C70.8211 28.1886 70.5496 28.0293 70.2499 27.9572C69.9503 27.8852 69.636 27.9036 69.3469 28.0102Z" fill="#002C3C"/>
<path d="M60.2373 13.0986C60.4304 13.031 60.6083 12.926 60.7608 12.7897C60.9134 12.6533 61.0375 12.4883 61.1263 12.3039C61.215 12.1196 61.2666 11.9196 61.278 11.7153C61.2895 11.5111 61.2606 11.3065 61.193 11.1135C61.1254 10.9204 61.0204 10.7425 60.8841 10.5899C60.7477 10.4374 60.5827 10.3132 60.3983 10.2245C60.214 10.1358 60.014 10.0842 59.8097 10.0728C59.6054 10.0613 59.4009 10.0902 59.2078 10.1578L59.1956 10.1617C58.8076 10.301 58.4907 10.5884 58.3142 10.9608C58.1377 11.3333 58.1159 11.7605 58.2537 12.149C58.3915 12.5375 58.6776 12.8555 59.0494 13.0335C59.4212 13.2115 59.8483 13.2349 60.2373 13.0986Z" fill="#002C3C"/>
<path d="M59.0293 24.1006L59.0079 24.08C58.3585 23.4595 57.4894 23.1219 56.5914 23.1414C55.6935 23.1609 54.8399 23.5358 54.218 24.1839C53.5961 24.8319 53.2566 25.7002 53.2741 26.5983C53.2916 27.4963 53.6646 28.3507 54.3113 28.974C54.958 29.5974 55.8256 29.9387 56.7237 29.9231C57.6218 29.9076 58.477 29.5364 59.1017 28.8911C59.7265 28.2458 60.0697 27.379 60.0561 26.4809C60.0425 25.5828 59.6732 24.7267 59.0293 24.1006Z" fill="#002C3C"/>
<path d="M47.5172 6.80308C47.6213 7.09309 47.8092 7.34572 48.0569 7.529C48.3046 7.71228 48.6011 7.81798 48.9089 7.83273C49.2167 7.84749 49.5219 7.77063 49.786 7.61189C50.0501 7.45315 50.2612 7.21965 50.3926 6.94092C50.524 6.66219 50.5698 6.35076 50.5242 6.04601C50.4785 5.74126 50.3436 5.45689 50.1363 5.22885C49.9291 5.00081 49.6589 4.83936 49.3599 4.76491C49.0609 4.69045 48.7465 4.70635 48.4565 4.81058L48.4443 4.81445C48.0588 4.95298 47.7441 5.23895 47.5694 5.60947C47.3947 5.97998 47.3743 6.40472 47.5127 6.79026L47.5172 6.80308Z" fill="#002C3C"/>
<path d="M102.504 25.5662C102.509 25.3775 102.528 25.1966 102.545 25.0151L102.574 24.7035C102.881 21.5168 104.007 19.0331 105.749 17.7076C106.391 17.1616 107.143 16.7592 107.954 16.5275L108.174 16.4921C109.998 16.2443 112.015 18.2992 115.793 22.6801L116.286 23.246C116.508 23.5009 116.736 23.7617 116.961 24.0243L117.055 24.2857L117.314 24.4254C119.42 26.8731 121.661 29.2012 124.027 31.3988C124.513 31.841 125 32.255 125.488 32.6715L125.734 32.8807C125.804 32.9524 125.882 33.0161 125.966 33.0707C128.787 35.4481 131.653 37.4657 134.189 39.2496C142.58 45.1151 144.363 47.0811 141.905 50.7526C141.571 51.2444 141.176 51.6919 140.729 52.0847C140.645 52.1416 140.568 52.2084 140.499 52.2836L140.467 52.3151C138.968 53.4612 137.217 54.2325 135.36 54.5645C134.731 54.6933 134.237 54.777 133.762 54.8349C132.033 55.0352 130.287 55.0408 128.556 54.8516L127.918 54.768L127.88 54.7634L127.857 54.7603C121.968 53.9562 116.457 51.3995 112.041 47.4224C108.106 43.7078 105.208 39.0308 103.633 33.8535C102.788 31.1755 102.406 28.3728 102.504 25.5662ZM110.302 49.3216C115.066 53.6122 121 56.3864 127.348 57.2903L127.435 57.3109C127.498 57.3241 127.562 57.3325 127.626 57.336C128.791 57.4862 129.963 57.5624 131.137 57.5639C132.118 57.5648 133.099 57.5071 134.073 57.3913C134.62 57.3238 135.177 57.2304 135.878 57.0875C138.156 56.6783 140.299 55.7177 142.12 54.2896L142.362 54.215L142.509 53.9471C143.09 53.4248 143.606 52.8333 144.045 52.1858C148.235 45.927 142.962 42.2407 135.668 37.142C133.164 35.38 130.327 33.3842 127.578 31.0621L127.505 30.9617L127.361 30.8838L127.158 30.7106C126.69 30.3128 126.226 29.9174 125.766 29.4984C123.465 27.361 121.286 25.0963 119.239 22.7149L119.166 22.4787L118.918 22.3499C118.687 22.0814 118.454 21.8143 118.226 21.5529L117.742 20.9967C113.572 16.1626 111.034 13.4381 107.746 13.9525L107.642 13.9499L107.506 13.9905C106.285 14.2818 105.148 14.8536 104.186 15.6604C101.87 17.4237 100.387 20.5474 100.008 24.4782L99.9826 24.7673C99.9594 25.0074 99.9363 25.2476 99.9311 25.4716C99.8218 28.5627 100.24 31.6499 101.168 34.6004C102.86 40.2279 106.011 45.307 110.302 49.3216Z" fill="#002C3C"/>
<path d="M110.041 29.5797C111.019 28.8116 112.776 29.3286 113.858 30.7224C114.408 31.3973 114.719 32.235 114.742 33.1049C114.758 33.4071 114.704 33.7088 114.586 33.9872C114.467 34.2655 114.287 34.5133 114.059 34.7118C113.808 34.8776 113.526 34.9881 113.229 35.0362C112.933 35.0843 112.63 35.0687 112.34 34.9906C111.504 34.7587 110.767 34.2592 110.241 33.5685C109.911 33.1548 109.663 32.6823 109.509 32.176C109.195 31.1408 109.354 30.1108 110.041 29.5797ZM111.734 37.5154C112.401 37.6918 113.1 37.7153 113.778 37.5844C114.455 37.4534 115.095 37.1713 115.649 36.759C116.181 36.3132 116.607 35.7536 116.895 35.1213C117.183 34.489 117.326 33.8002 117.312 33.1056C117.311 32.5169 117.225 31.9316 117.055 31.368C116.808 30.558 116.41 29.8022 115.881 29.1405C113.889 26.6092 110.556 25.9114 108.437 27.5768C106.318 29.2416 106.221 32.6478 108.214 35.1792C109.092 36.3307 110.332 37.1535 111.734 37.5154Z" fill="#002C3C"/>
<path d="M134.263 49.8512L134.243 49.8299C133.622 49.1745 132.766 48.7923 131.864 48.767C130.961 48.7417 130.086 49.0754 129.429 49.6949C128.772 50.3145 128.388 51.1692 128.361 52.0716C128.334 52.974 128.665 53.8503 129.284 54.5084C129.902 55.1664 130.756 55.5523 131.658 55.5815C132.56 55.6106 133.437 55.2806 134.097 54.6639C134.756 54.0472 135.144 53.1941 135.175 52.2918C135.206 51.3896 134.878 50.5118 134.263 49.8512Z" fill="#002C3C"/>
<path d="M115.437 43.3048C115.241 43.3639 115.058 43.461 114.9 43.5907C114.741 43.7204 114.61 43.88 114.513 44.0605C114.416 44.241 114.356 44.4389 114.336 44.6427C114.316 44.8465 114.336 45.0523 114.395 45.2483C114.455 45.4443 114.552 45.6267 114.682 45.7849C114.812 45.9432 114.972 46.0743 115.153 46.1707C115.333 46.2671 115.531 46.327 115.735 46.3468C115.939 46.3666 116.145 46.346 116.341 46.2862L116.321 46.2649C116.518 46.2089 116.702 46.1144 116.861 45.9868C117.021 45.8593 117.154 45.7012 117.253 45.5219C117.351 45.3425 117.413 45.1454 117.434 44.942C117.456 44.7386 117.437 44.5329 117.378 44.337C117.32 44.141 117.223 43.9586 117.093 43.8003C116.964 43.6421 116.804 43.5112 116.623 43.4151C116.443 43.3191 116.245 43.2599 116.041 43.241C115.837 43.2221 115.632 43.2438 115.437 43.3048Z" fill="#002C3C"/>
<path d="M109.531 23.8268L109.511 23.8055C108.89 23.1507 108.036 22.7688 107.134 22.7435C106.232 22.7182 105.358 23.0517 104.701 23.6707C104.045 24.2896 103.662 25.1436 103.634 26.0452C103.607 26.9468 103.939 27.8224 104.556 28.4798C105.174 29.1372 106.027 29.5228 106.929 29.5519C107.83 29.5811 108.706 29.2514 109.365 28.6352C110.024 28.019 110.411 27.1667 110.442 26.2653C110.473 25.3638 110.146 24.4868 109.531 23.8268Z" fill="#002C3C"/>
<path d="M123.25 40.9094C123.529 40.3907 124.002 40.0034 124.565 39.8324C125.128 39.6614 125.737 39.7207 126.257 39.9972C126.764 40.2839 127.141 40.7548 127.31 41.3122C127.479 41.8697 127.427 42.4708 127.164 42.9908C126.885 43.5091 126.412 43.8959 125.849 44.0668C125.286 44.2377 124.678 44.1788 124.158 43.903C123.642 43.6208 123.258 43.1484 123.086 42.5865C123.002 42.3099 122.973 42.0194 123.001 41.7316C123.029 41.4438 123.114 41.1644 123.25 40.9094ZM122.948 46.1671C123.781 46.6324 124.735 46.838 125.686 46.7574C126.638 46.6768 127.543 46.3137 128.287 45.7148C129.03 45.1159 129.577 44.3085 129.859 43.3961C130.14 42.4838 130.142 41.5083 129.865 40.5947C129.588 39.6811 129.044 38.8711 128.304 38.2688C127.563 37.6665 126.659 37.2993 125.708 37.2143C124.757 37.1294 123.803 37.3305 122.967 37.792C122.131 38.2534 121.452 38.9541 121.018 39.8041C120.453 40.9082 120.338 42.1884 120.698 43.3752C121.058 44.5619 121.865 45.5628 122.948 46.1671Z" fill="#002C3C"/>
</svg>
