<svg width="127" height="94" viewBox="0 0 127 94" fill="none" xmlns="http://www.w3.org/2000/svg">
<path d="M93.5319 75.6641H90.3594L92.6461 92.7203H97.6515L99.9182 75.6641H96.7251L95.1594 90.1246L93.5319 75.6641Z" fill="#000000"/>
<path d="M104.481 75.6641H101.453V92.7203H104.481V75.6641Z" fill="#000000"/>
<path d="M109.141 75.6641H105.969L108.255 92.7203H113.261L115.528 75.6641H112.334L110.769 90.1246L109.141 75.6641Z" fill="#000000"/>
<path d="M123.115 80.1409V88.2571C123.115 89.7197 122.579 90.4614 121.529 90.4614C120.478 90.4614 119.942 89.7197 119.942 88.2571V80.1409C119.942 78.6783 120.478 77.9366 121.529 77.9366C122.579 77.9366 123.115 78.6783 123.115 80.1409ZM116.914 79.5847V88.8133C116.914 91.512 118.706 93.077 121.529 93.077C124.392 93.077 126.143 91.512 126.143 88.8133V79.5847C126.143 76.886 124.392 75.3203 121.529 75.3203C118.706 75.3203 116.914 76.886 116.914 79.5847Z" fill="#000000"/>
<path d="M77.2565 28.384H46.2787V21.887C48.7599 21.0131 51.3826 20.6109 54.0117 20.7011C59.9145 21.1492 69.7437 25.8024 69.8429 25.8494C70.1832 26.0123 70.5726 26.0403 70.9327 25.928C73.1096 25.2499 75.2251 24.3887 77.2565 23.3535V28.384ZM77.2565 32.2956C75.9104 33.0379 71.8682 34.7928 64.2793 34.3686C58.7547 33.9998 53.2901 33.003 47.991 31.3975H77.2565V32.2956ZM46.7665 34.1748C52.4045 35.9106 58.2251 36.9852 64.1113 37.3769C66.8268 37.5521 69.5534 37.4313 72.2427 37.0164C69.7211 38.2552 66.9605 38.9317 64.1518 38.9992C56.9685 39.1969 49.7049 35.7598 46.7665 34.1748ZM77.2565 50.4881C77.2533 52.3521 76.5114 54.1388 75.1933 55.4568C73.8753 56.7748 72.0886 57.5168 70.2247 57.5201H53.3112C51.4468 57.518 49.6593 56.7765 48.3409 55.4582C47.0225 54.1399 46.2809 52.3525 46.2787 50.4881V37.3145C49.7074 39.0443 57.0104 42.2252 64.24 42.0121C68.9567 41.9012 73.5156 40.2917 77.2565 37.4168V50.4881ZM41.9028 20.2962C42.741 16.9589 44.8326 11.8653 49.9823 9.29017H63.4733C65.7298 12.2215 67.5112 15.4896 68.7523 18.9745C68.815 19.1621 68.9142 19.3355 69.044 19.4848C69.1738 19.6341 69.3316 19.7564 69.5087 19.8446C69.6857 19.9329 69.8784 19.9854 70.0757 19.9992C70.2731 20.013 70.4712 19.9878 70.6588 19.9251C70.8464 19.8623 71.0198 19.7632 71.1691 19.6334C71.3184 19.5036 71.4407 19.3457 71.5289 19.1686C71.6172 18.9916 71.6697 18.7989 71.6835 18.6016C71.6973 18.4042 71.6721 18.2061 71.6093 18.0185C70.5266 14.9267 69.0394 11.9917 67.1865 9.29017H73.4113C74.9228 10.429 79.2819 13.8539 81.6138 17.152C78.259 19.6195 74.5409 21.5503 70.5928 22.8752C67.9224 21.6655 59.6814 18.1099 54.2403 17.6947C53.8772 17.667 53.509 17.6541 53.1368 17.6541C49.1454 17.6541 44.7142 19.149 41.9028 20.2962ZM51.1302 3.16978H72.3975V6.27664H51.1302V3.16978ZM80.2702 50.4881V21.6777C81.7854 20.7736 83.2325 19.7602 84.6002 18.6456C84.8645 18.4184 85.0421 18.1068 85.1031 17.7637C85.1641 17.4205 85.1047 17.0669 84.9349 16.7625C82.7584 12.8818 77.3248 8.50153 75.4154 7.03372V1.66461C75.4149 1.26463 75.2557 0.881223 74.9728 0.598455C74.6899 0.315686 74.3064 0.156657 73.9064 0.15625H49.6294C49.2295 0.156686 48.8461 0.315733 48.5633 0.598513C48.2805 0.881294 48.1215 1.2647 48.121 1.66461V6.8612C39.4398 11.6065 38.4213 22.6022 38.4109 22.7194C38.3898 22.9871 38.4407 23.2555 38.5583 23.4969C38.6758 23.7383 38.8558 23.9439 39.0795 24.0923C39.3033 24.2407 39.5627 24.3266 39.8308 24.3411C40.0989 24.3555 40.366 24.2979 40.6044 24.1743C40.6153 24.1685 41.666 23.6277 43.2657 22.9788V50.4881C43.2682 53.1519 44.3273 55.706 46.2105 57.5899C48.0938 59.4739 50.6474 60.5339 53.3112 60.5375H70.2247C72.8885 60.5339 75.4421 59.4739 77.3253 57.5899C79.2085 55.706 80.2677 53.1519 80.2702 50.4881Z" fill="#000000"/>
<path d="M6.24717 81.9346C6.24717 83.3554 5.93813 83.891 4.86688 83.891H3.07464V78.2058H4.86688C5.93817 78.2058 6.24717 78.7414 6.24717 80.1416V81.9346ZM5.89699 75.6719H0.046875V92.7281H3.07464V86.4249H5.89691C7.27704 86.4249 8.22481 85.9717 8.65733 85.1683C9.1205 84.3252 9.33487 83.3679 9.27541 82.4077V79.689C9.33748 78.7353 9.12282 77.7839 8.65733 76.9491C8.22479 76.1251 7.27715 75.6719 5.89699 75.6719Z" fill="#000000"/>
<path d="M15.9856 82.8404H14.1528V78.2051H15.945C16.9957 78.2051 17.3247 78.7208 17.3247 80.018V81.2129C17.3247 82.3459 16.975 82.8404 15.9856 82.8404ZM17.5519 92.7281H20.5178C20.372 91.9335 20.3169 91.1249 20.3535 90.3178V87.7639C20.3913 87.1331 20.3286 86.5003 20.1676 85.8893C20.1072 85.584 19.9805 85.2957 19.7967 85.0446C19.3129 84.511 18.6408 84.186 17.9221 84.1382C18.3865 84.1177 18.8338 83.9572 19.2052 83.6777C19.5767 83.3983 19.8549 83.013 20.0034 82.5725C20.2773 81.7928 20.3963 80.967 20.3535 80.1416V79.5654C20.4127 78.6224 20.1902 77.6831 19.7143 76.8667C19.2404 76.1045 18.2929 75.6719 16.9132 75.6719H11.125V92.7281H14.1528V85.3742H15.9656C16.8714 85.3742 17.3244 85.9303 17.3247 87.0423V89.6174C17.2645 90.6598 17.3409 91.7055 17.5519 92.7281Z" fill="#000000"/>
<path d="M28.4744 88.2571C28.4744 89.7191 27.9387 90.4614 26.8882 90.4614C25.8375 90.4614 25.3018 89.7191 25.3018 88.2571V80.1403C25.3018 78.6782 25.8375 77.9366 26.8882 77.9366C27.9387 77.9366 28.4744 78.6783 28.4744 80.1403V88.2571ZM26.8882 75.3203C24.0659 75.3203 22.2734 76.886 22.2734 79.5847V88.8126C22.2734 91.5113 24.0658 93.077 26.8882 93.077C29.7509 93.077 31.5021 91.5113 31.5021 88.8126V79.5847C31.5021 76.886 29.7509 75.3203 26.8882 75.3203Z" fill="#000000"/>
<path d="M39.9034 88.2584C39.9034 89.6792 39.5944 90.1949 38.5231 90.1949H36.7309V78.2058H38.5231C39.5944 78.2058 39.9034 78.7414 39.9034 80.1416V88.2584ZM39.5532 75.6719H33.7031V92.7281H39.5532C40.9334 92.7281 41.8811 92.2749 42.3137 91.4715C42.7768 90.6284 42.9911 89.6711 42.9317 88.711V79.689C42.9937 78.7353 42.7792 77.7839 42.3137 76.9491C41.8811 76.1251 40.9334 75.6719 39.5532 75.6719Z" fill="#000000"/>
<path d="M45.125 75.6719V88.8146C45.125 91.5127 46.9172 93.0783 49.7396 93.0783C52.6025 93.0783 54.3535 91.5127 54.3535 88.8146V75.6719H51.3258V88.2584C51.3258 89.7204 50.7901 90.4627 49.7396 90.4627C48.6889 90.4627 48.1532 89.7204 48.1532 88.2584V75.6719H45.125Z" fill="#000000"/>
<path d="M65.7443 82.201V79.5847C65.7443 76.886 63.9931 75.3203 61.1302 75.3203C58.308 75.3203 56.5156 76.886 56.5156 79.5847V88.8133C56.5156 91.512 58.308 93.0777 61.1302 93.0777C63.9931 93.0777 65.7443 91.512 65.7443 88.8133V85.6407H62.7165V88.2571C62.7165 89.7197 62.1809 90.4614 61.1302 90.4614C60.0797 90.4614 59.544 89.7197 59.544 88.2571V80.1409C59.544 78.6783 60.0796 77.9366 61.1302 77.9366C62.1809 77.9366 62.7165 78.6783 62.7165 80.1409V82.201H65.7443Z" fill="#000000"/>
<path d="M72.3143 92.7203V78.1973H74.6834V75.6641H66.9375V78.1973H69.2866V92.7203H72.3143Z" fill="#000000"/>
<path d="M79.0518 80.1403C79.0518 78.6783 79.5875 77.9366 80.6382 77.9366C81.6887 77.9366 82.2244 78.6783 82.2244 80.1403V88.257C82.2244 89.7191 81.6887 90.4613 80.6382 90.4613C79.5875 90.4613 79.0518 89.719 79.0518 88.257V80.1403ZM80.6382 93.077C83.5009 93.077 85.2521 91.5113 85.2521 88.8126V79.5847C85.2521 76.886 83.5009 75.3203 80.6382 75.3203C77.8159 75.3203 76.0234 76.886 76.0234 79.5847V88.8126C76.0234 91.5113 77.8158 93.077 80.6382 93.077Z" fill="#000000"/>
</svg>
