<svg width="53" height="71" viewBox="0 0 53 71" fill="none" xmlns="http://www.w3.org/2000/svg">
<path d="M5.37817 67.3987L3.75073 52.9375H0.578125L2.86483 69.9938H7.87022L10.1363 52.9375H6.94384L5.37817 67.3987Z" fill="#000000"/>
<path d="M18.9895 55.4714V52.9375H11.6562V69.9944H18.9895V67.4605H14.6846V62.4551H18.8665V59.9212H14.6846V55.4714H18.9895Z" fill="#000000"/>
<path d="M30.1193 58.9516V56.8503C30.1193 54.1516 28.3681 52.5859 25.5052 52.5859C22.683 52.5859 20.8906 54.1516 20.8906 56.8503V66.4703C20.8906 68.8806 22.168 70.2815 24.4958 70.2815C26.0408 70.2815 27.1115 69.7458 27.6677 68.6952L27.8744 69.9924H30.1193V60.4961H25.4846V63.03H27.0915V65.5021C27.0915 67.0884 26.5353 67.727 25.4428 67.727C24.4746 67.727 23.919 67.1914 23.919 65.6875V57.4066C23.919 55.9439 24.4546 55.2029 25.5052 55.2029C26.5559 55.2029 27.0915 55.9439 27.0915 57.4066V58.9517L30.1193 58.9516Z" fill="#000000"/>
<path d="M35.2124 63.876L36.386 55.183L37.5191 63.876H35.2124ZM33.914 52.9375L31.4219 69.9938H34.4295L34.9028 66.3893H37.8487L38.3225 69.9938H41.3302L38.8582 52.9375H33.914Z" fill="#000000"/>
<path d="M52.4538 69.9938V52.9375H49.6726L49.755 63.0725L45.7372 52.9375H42.8125V69.9938H45.5943L45.5112 59.8794L49.4453 69.9938H52.4538Z" fill="#000000"/>
<path d="M45.9752 26.1325C41.7778 33.0647 36.5175 36.9164 29.92 37.8776C30.5743 36.0622 31.0379 34.1836 31.3035 32.2722C31.3181 32.2241 31.3299 32.175 31.3388 32.1254C32.1388 27.6419 34.035 23.4258 36.8587 19.8525C37.9748 18.4146 39.2867 17.1399 40.7561 16.0658C40.9173 15.9612 41.0563 15.8259 41.1652 15.6676C41.274 15.5093 41.3505 15.3311 41.3904 15.1431C41.4303 14.9552 41.4327 14.7612 41.3975 14.5723C41.3623 14.3834 41.2901 14.2034 41.1852 14.0424C41.0803 13.8815 40.9447 13.7428 40.7861 13.6343C40.6275 13.5258 40.4491 13.4497 40.261 13.4103C40.073 13.3709 39.8791 13.369 39.6903 13.4046C39.5015 13.4403 39.3215 13.5128 39.1608 13.6181C37.448 14.839 35.9217 16.3024 34.6299 17.9623C33.2585 19.672 32.0815 21.529 31.1207 23.4988C30.6314 20.7918 29.7391 18.1734 28.4734 15.731C28.5056 15.6879 28.5358 15.6441 28.5643 15.5978L28.5649 15.5971C30.5881 12.2542 33.3709 9.43542 36.6875 7.36946C40.0041 5.3035 43.761 4.04858 47.6535 3.70652C49.1556 7.31352 49.7864 11.2238 49.4948 15.1201C49.2032 19.0165 47.9974 22.7893 45.9752 26.1325ZM28.5836 30.1806C28.4444 32.1933 28.0607 34.1815 27.4408 36.1014L16.9286 18.29C16.7305 17.9573 16.4085 17.7167 16.0332 17.621C15.658 17.5253 15.2601 17.5823 14.9268 17.7794C14.5935 17.9766 14.3519 18.2978 14.2551 18.6728C14.1582 19.0477 14.214 19.4458 14.4101 19.7797L25.0607 37.8222C21.3408 37.2396 17.8019 35.8191 14.7113 33.6683C11.6208 31.5174 9.05941 28.6923 7.22073 25.4064C5.38204 22.1205 4.31407 18.4598 4.09755 14.7007C3.88104 10.9416 4.52163 7.1824 5.97089 3.70715C12.4539 4.28492 18.4523 7.3803 22.6797 12.3294C26.907 17.2784 29.0265 23.687 28.5836 30.1806ZM49.9081 1.58206C49.8002 1.33849 49.6272 1.12938 49.4082 0.977652C49.1892 0.825927 48.9327 0.737457 48.6668 0.721972L48.6083 0.720675L48.5091 0.721343C44.192 0.924822 39.982 2.13363 36.2146 4.25151C32.4471 6.36939 29.2263 9.3378 26.8087 12.9203C24.3913 9.33762 21.1708 6.36894 17.4036 4.25073C13.6364 2.13252 9.42652 0.923297 5.10943 0.719379L5.01025 0.71875L4.92538 0.720675C4.693 0.739913 4.46861 0.814304 4.27076 0.937691C4.0729 1.06108 3.90728 1.2299 3.78777 1.43011C3.7627 1.47188 3.74015 1.51508 3.72018 1.5595C1.80027 5.69042 0.925892 10.2302 1.17407 14.7787C1.42224 19.3272 2.78534 23.7448 5.1433 27.6423C7.50125 31.5398 10.7817 34.7975 14.6955 37.1284C18.6092 39.4593 23.0362 40.7917 27.5863 41.0083L27.8336 41.009L27.849 41.0083C32.0779 40.8516 36.1822 39.5344 39.7125 37.201C43.299 34.6986 46.2899 31.4365 48.4723 27.6467C50.8352 23.7547 52.2023 19.3403 52.4527 14.7941C52.7032 10.2479 51.8292 5.71004 49.9081 1.58206Z" fill="#000000"/>
</svg>
