<svg width="140" height="95" viewBox="0 0 140 95" fill="none" xmlns="http://www.w3.org/2000/svg">
<path d="M9.28372 59.0609V57.4122C9.28372 54.7141 7.51192 53.1484 4.64902 53.1484C1.7443 53.1484 0.05503 54.8171 0.05503 57.3922V58.7307C0.0452535 59.4731 0.244975 60.2032 0.631224 60.8373C1.01747 61.4715 1.57461 61.9839 2.23878 62.3158C2.85681 62.6242 3.47478 62.9126 4.07157 63.1804C5.28714 63.6955 6.25532 64.4371 6.25532 65.5083V66.0645C6.25532 67.6508 5.74027 68.2894 4.68957 68.2894C3.61844 68.2894 3.08285 67.5478 3.0828 66.0645V64.4989H0.05503V66.662C0.05503 69.2777 1.7855 70.9051 4.66898 70.9051C7.49131 70.9051 9.28372 69.3601 9.28372 66.6407V65.0757C9.3257 64.4224 9.20015 63.7692 8.91892 63.1781C8.6377 62.5869 8.21013 62.0774 7.67679 61.6978C7.19652 61.3924 6.6938 61.1238 6.17297 60.8944C4.62843 60.1733 3.10339 59.8019 3.0828 58.2369V57.969C3.0828 56.5064 3.61843 55.7648 4.66898 55.7648C5.71968 55.7648 6.25532 56.4858 6.25532 57.9478V59.0609H9.28372Z" fill="#002C3C"/>
<path d="M14.2932 53.5078H11.2656V70.5641H14.2932V53.5078Z" fill="#002C3C"/>
<path d="M26.2812 70.5641V53.5078H23.5007L23.5831 63.6428L19.5653 53.5078H16.6406V70.5641H19.4217L19.3394 60.4497L23.2735 70.5641H26.2812Z" fill="#002C3C"/>
<path d="M37.1948 61.7191H35.4026V56.0339H37.1948C38.2661 56.0339 38.5751 56.5695 38.5751 57.9697V59.7627C38.5751 61.1835 38.2661 61.7191 37.1948 61.7191ZM40.9855 62.9964C41.4486 62.1532 41.6629 61.196 41.6035 60.2359V57.5165C41.6655 56.5628 41.451 55.6114 40.9855 54.7766C40.5528 53.9532 39.6046 53.5 38.225 53.5H32.375V70.5563H35.4026V64.2524H38.225C39.6046 64.2524 40.5529 63.7998 40.9855 62.9964Z" fill="#002C3C"/>
<path d="M48.3137 60.6685H46.4809V56.0333H48.2731C49.3238 56.0333 49.6528 56.5483 49.6528 57.8461V59.041C49.6528 60.174 49.3031 60.6685 48.3137 60.6685ZM49.8801 70.5563H52.8459C52.7002 69.7616 52.6451 68.953 52.6817 68.146V65.5914C52.7194 64.9608 52.6567 64.3283 52.4957 63.7174C52.4352 63.412 52.3086 63.1235 52.1248 62.8721C51.6408 62.3387 50.9688 62.0138 50.2502 61.9657C50.7145 61.9453 51.1618 61.7849 51.5333 61.5056C51.9047 61.2263 52.183 60.8411 52.3315 60.4007C52.6055 59.6209 52.7244 58.7951 52.6817 57.9697V57.3936C52.7407 56.4503 52.5182 55.5108 52.0424 54.6942C51.5686 53.9326 50.621 53.5 49.2413 53.5H43.4531V70.5563H46.4809V63.2017H48.2937C49.1995 63.2017 49.6525 63.758 49.6528 64.8704V67.4455C49.5926 68.4879 49.669 69.5337 49.8801 70.5563Z" fill="#002C3C"/>
<path d="M60.8025 66.0851C60.8025 67.5472 60.2669 68.2894 59.2161 68.2894C58.1656 68.2894 57.63 67.5472 57.63 66.0851V57.9684C57.63 56.5064 58.1656 55.7641 59.2161 55.7641C60.2668 55.7641 60.8025 56.5064 60.8025 57.9684V66.0851ZM63.8303 66.6407V57.4122C63.8303 54.7141 62.079 53.1484 59.2161 53.1484C56.394 53.1484 54.6016 54.7141 54.6016 57.4122V66.6407C54.6016 69.3395 56.3939 70.9051 59.2161 70.9051C62.079 70.9051 63.8303 69.3395 63.8303 66.6407Z" fill="#002C3C"/>
<path d="M70.8511 68.023H69.0589V63.0369H70.8923C71.7781 63.0369 72.2314 63.5938 72.2314 64.7262V66.0865C72.2314 67.5073 71.9223 68.023 70.8511 68.023ZM69.0589 56.0339H70.7482C71.7988 56.0339 72.1284 56.5695 72.1284 57.8873V58.7944C72.1284 59.968 71.7781 60.5037 70.7893 60.5037H69.0589V56.0339ZM74.6418 69.2996C75.1049 68.4565 75.3193 67.4992 75.2599 66.5391V65.5509C75.2954 64.9065 75.2328 64.2605 75.0744 63.635C75.0046 63.3187 74.8635 63.0225 74.6617 62.7691C74.1208 62.1909 73.3729 61.8504 72.5816 61.8221C74.1061 61.5543 74.7447 60.9981 74.9714 59.9269C75.1285 59.2801 75.191 58.6139 75.1567 57.9492V57.3517C75.2146 56.4313 74.9996 55.5142 74.5387 54.7155C74.0648 53.9532 73.1172 53.5 71.7781 53.5H66.0312V70.5563H71.8812C73.2609 70.5563 74.2091 70.103 74.6418 69.2996Z" fill="#002C3C"/>
<path d="M80.3401 53.5078H77.3125V70.5641H80.3401V53.5078Z" fill="#002C3C"/>
<path d="M86.3438 52.4581H87.93L89.5987 48.9766H87.0442L86.3438 52.4581Z" fill="#002C3C"/>
<path d="M88.74 66.0851C88.74 67.5472 88.2044 68.2894 87.1536 68.2894C86.1031 68.2894 85.5675 67.5472 85.5675 66.0851V57.9684C85.5675 56.5064 86.1031 55.7641 87.1536 55.7641C88.2043 55.7641 88.74 56.5064 88.74 57.9684V66.0851ZM91.7678 66.6407V57.4122C91.7678 54.7141 90.0165 53.1484 87.1536 53.1484C84.3315 53.1484 82.5391 54.7141 82.5391 57.4122V66.6407C82.5391 69.3395 84.3314 70.9051 87.1536 70.9051C90.0165 70.9051 91.7678 69.3395 91.7678 66.6407Z" fill="#002C3C"/>
<path d="M100.847 53.5078H93.1016V56.0417H95.45V70.5641H98.4777V56.0417H100.847V53.5078Z" fill="#002C3C"/>
<path d="M105.364 53.5078H102.336V70.5641H105.364V53.5078Z" fill="#002C3C"/>
<path d="M116.807 60.0291V57.4128C116.807 54.7141 115.056 53.1484 112.193 53.1484C109.371 53.1484 107.578 54.7141 107.578 57.4128V66.6414C107.578 69.3401 109.37 70.9058 112.193 70.9058C115.056 70.9058 116.807 69.3401 116.807 66.6414V63.4688H113.779V66.0852C113.779 67.5478 113.243 68.2894 112.193 68.2894C111.142 68.2894 110.607 67.5478 110.607 66.0852V57.9691C110.607 56.5064 111.142 55.7648 112.193 55.7648C113.243 55.7648 113.779 56.5064 113.779 57.9691V60.0291H116.807Z" fill="#002C3C"/>
<path d="M124.927 57.9684V66.0852C124.927 67.5472 124.392 68.2895 123.341 68.2895C122.29 68.2895 121.755 67.5472 121.755 66.0852V57.9684C121.755 56.5064 122.29 55.7641 123.341 55.7641C124.392 55.7641 124.927 56.5064 124.927 57.9684ZM118.727 57.4122V66.6407C118.727 69.3395 120.519 70.9051 123.341 70.9051C126.204 70.9051 127.955 69.3395 127.955 66.6407V57.4122C127.955 54.7141 126.204 53.1484 123.341 53.1484C120.519 53.1484 118.727 54.7141 118.727 57.4122Z" fill="#002C3C"/>
<path d="M139.018 59.0609V57.4122C139.018 54.7141 137.246 53.1484 134.383 53.1484C131.479 53.1484 129.789 54.8171 129.789 57.3922V58.7307C129.78 59.4731 129.979 60.2032 130.366 60.8373C130.752 61.4715 131.309 61.9839 131.973 62.3158C132.591 62.6242 133.209 62.9126 133.806 63.1804C135.022 63.6955 135.99 64.4371 135.99 65.5083V66.0645C135.99 67.6508 135.475 68.2894 134.424 68.2894C133.353 68.2894 132.817 67.5478 132.817 66.0645V64.4989H129.789V66.662C129.789 69.2777 131.52 70.9051 134.403 70.9051C137.226 70.9051 139.018 69.3601 139.018 66.6407V65.0757C139.06 64.4224 138.935 63.7692 138.653 63.1781C138.372 62.5869 137.945 62.0774 137.411 61.6978C136.931 61.3924 136.428 61.1238 135.907 60.8944C134.363 60.1733 132.838 59.8019 132.817 58.2369V57.969C132.817 56.5064 133.353 55.7648 134.403 55.7648C135.454 55.7648 135.99 56.4858 135.99 57.9478V59.0609H139.018Z" fill="#002C3C"/>
<path d="M33.0891 79.5652L34.2222 88.2581H31.9155L33.0891 79.5652ZM28.125 94.3766H31.132L31.6059 90.7714H34.5518L35.0257 94.3766H38.0333L35.5611 77.3203H30.617L28.125 94.3766Z" fill="#002C3C"/>
<path d="M49.1484 94.3766V77.3203H46.3678L46.4503 87.4553L42.4325 77.3203H39.5078V94.3766H42.2889L42.2058 84.2622L46.1406 94.3766H49.1484Z" fill="#002C3C"/>
<path d="M42.4919 76.3364C42.7595 75.7802 43.1099 75.4918 43.5424 75.4918C43.8864 75.5523 44.2112 75.6934 44.49 75.9038C44.8374 76.1412 45.2441 76.277 45.6644 76.2959C46.5082 76.2959 47.1676 75.7802 47.6826 74.7708L46.4671 73.8438C46.4109 74.0608 46.2865 74.2541 46.1122 74.3952C45.9379 74.5362 45.7229 74.6176 45.4989 74.6272C45.1525 74.5909 44.8201 74.4707 44.5307 74.277C44.1972 74.0641 43.8135 73.9431 43.4182 73.9261C42.6148 73.9261 41.8937 74.4618 41.2969 75.5124L42.4919 76.3364Z" fill="#002C3C"/>
<path d="M55.5737 79.5658L56.7061 88.2588H54.3994L55.5737 79.5658ZM54.0904 90.7721H57.0363L57.51 94.3772H60.5172L58.0457 77.3203H53.1015L50.6094 94.3772H53.6166L54.0904 90.7721Z" fill="#002C3C"/>
<path d="M66.8277 91.8433H65.0354V79.8542H66.8277C67.8989 79.8542 68.2079 80.3898 68.2079 81.7901V89.9068C68.2079 91.3277 67.8989 91.8433 66.8277 91.8433ZM70.6183 93.1199C71.0815 92.2768 71.2957 91.3195 71.2363 90.3594V81.3369C71.2983 80.3831 71.0838 79.4317 70.6183 78.5969C70.1856 77.7736 69.2374 77.3203 67.8578 77.3203H62.0078V94.3766H67.8578C69.2374 94.3766 70.1857 93.9233 70.6183 93.1199Z" fill="#002C3C"/>
<path d="M76.4807 77.3203H73.4531V94.3766H76.4807V77.3203Z" fill="#002C3C"/>
<path d="M83.6636 91.8277H81.8714V79.8386H83.6636C84.7349 79.8386 85.0439 80.3742 85.0439 81.7744V89.8912C85.0439 91.312 84.7348 91.8277 83.6636 91.8277ZM87.4543 93.1043C87.9174 92.2611 88.1317 91.3039 88.0723 90.3438V81.3212C88.1343 80.3675 87.9197 79.4161 87.4543 78.5813C87.0216 77.7579 86.0734 77.3047 84.6937 77.3047H78.8438V94.361H84.6937C86.0734 94.361 87.0216 93.9077 87.4543 93.1043Z" fill="#002C3C"/>
<path d="M93.1846 81.7809C93.1846 80.3189 93.7203 79.5766 94.771 79.5766C95.8215 79.5766 96.3572 80.3189 96.3572 81.7809V89.8976C96.3572 91.3597 95.8216 92.1019 94.771 92.1019C93.7203 92.1019 93.1846 91.3597 93.1846 89.8976V81.7809ZM94.771 94.7176C97.6337 94.7176 99.3849 93.152 99.3849 90.4532V81.2247C99.3849 78.5266 97.6337 76.9609 94.771 76.9609C91.9487 76.9609 90.1562 78.5266 90.1562 81.2247V90.4532C90.1562 93.152 91.9486 94.7176 94.771 94.7176Z" fill="#002C3C"/>
<path d="M110.44 82.8734V81.2247C110.44 78.5266 108.668 76.9609 105.805 76.9609C102.901 76.9609 101.211 78.6296 101.211 81.2047V82.5432C101.202 83.2856 101.401 84.0157 101.787 84.6498C102.174 85.284 102.731 85.7964 103.395 86.1283C104.013 86.4367 104.631 86.7251 105.228 86.9929C106.443 87.508 107.412 88.2496 107.412 89.3208V89.877C107.412 91.4633 106.897 92.1019 105.846 92.1019C104.775 92.1019 104.239 91.3603 104.239 89.877V88.3114H101.211V90.4745C101.211 93.0902 102.942 94.7176 105.825 94.7176C108.648 94.7176 110.44 93.1726 110.44 90.4532V88.8882C110.482 88.2349 110.356 87.5817 110.075 86.9906C109.794 86.3994 109.366 85.8899 108.833 85.5103C108.353 85.2049 107.85 84.9363 107.329 84.7069C105.785 83.9858 104.26 83.6144 104.239 82.0494V81.7815C104.239 80.3189 104.775 79.5773 105.825 79.5773C106.876 79.5773 107.412 80.2983 107.412 81.7603V82.8734H110.44Z" fill="#002C3C"/>
<path d="M75.8257 36.8447C75.1829 36.8433 74.5461 36.9696 73.9525 37.2163C73.3588 37.463 72.8201 37.8251 72.3675 38.2816L70.5158 40.1679C69.8766 40.805 69.011 41.1628 68.1086 41.1629C67.2061 41.163 66.3404 40.8055 65.701 40.1686L63.8387 38.3061C63.387 37.8527 62.8501 37.4932 62.2589 37.2484C61.6676 37.0035 61.0337 36.8782 60.3938 36.8795H56.7815C55.8467 36.8734 54.9521 36.4986 54.2921 35.8365C53.6321 35.1745 53.2601 34.2787 53.2569 33.3439V29.7503C53.259 29.109 53.134 28.4735 52.889 27.8808C52.6441 27.2881 52.2839 26.7498 51.8296 26.2971L49.9684 24.4365C49.3312 23.7971 48.9734 22.9312 48.9734 22.0285C48.9734 21.1258 49.3312 20.2598 49.9684 19.6204L51.8302 17.7593C52.2844 17.3068 52.6443 16.7689 52.8892 16.1765C53.1341 15.5841 53.259 14.949 53.2569 14.308V10.7067C53.2538 10.2502 53.341 9.79757 53.5132 9.37479C53.6854 8.95201 53.9393 8.56738 54.2604 8.24295C54.9184 7.58448 55.8107 7.21381 56.7416 7.21225H60.3898C61.0329 7.21343 61.6697 7.08695 62.2635 6.84019C62.8573 6.59342 63.3961 6.23128 63.8489 5.77472L65.7004 3.88908C66.3396 3.25201 67.2053 2.89422 68.1077 2.8941C69.0102 2.89398 69.8758 3.25155 70.5152 3.88845L72.3777 5.75024C72.8293 6.20427 73.3665 6.56425 73.9581 6.80934C74.5498 7.05444 75.1841 7.17979 75.8245 7.17815H79.4322C80.3675 7.18273 81.2631 7.55694 81.9236 8.21914C82.5841 8.88134 82.956 9.77781 82.9582 10.7131V14.3067C82.9558 14.9481 83.0808 15.5837 83.326 16.1763C83.5713 16.769 83.9318 17.3071 84.3868 17.7593L86.2479 19.6204C86.8848 20.2598 87.2424 21.1255 87.2426 22.028C87.2427 22.9305 86.8854 23.7963 86.2486 24.4359L84.3861 26.2977C83.9316 26.75 83.5714 27.288 83.3263 27.8806C83.0811 28.4731 82.9561 29.1084 82.9582 29.7496V33.3497C82.9615 33.806 82.8747 34.2585 82.7027 34.6812C82.5306 35.1039 82.2768 35.4884 81.9558 35.8128C81.297 36.4717 80.4039 36.8428 79.4721 36.8447H75.8257ZM79.4754 39.7417C81.1787 39.7367 82.8106 39.0571 84.014 37.8516C84.6027 37.2586 85.0684 36.5551 85.3844 35.7815C85.7004 35.0079 85.8604 34.1795 85.8552 33.3439V29.7483C85.8541 29.4878 85.9048 29.2296 86.0044 28.9887C86.104 28.7479 86.2504 28.5293 86.4352 28.3456L88.2971 26.4831C89.4761 25.3001 90.1381 23.698 90.138 22.0277C90.1379 20.3575 89.4757 18.7554 88.2964 17.5726L86.4352 15.7114C86.2503 15.5277 86.1038 15.3089 86.0042 15.068C85.9047 14.827 85.854 14.5687 85.8552 14.308V10.7157C85.8534 9.01214 85.1768 7.37867 83.9736 6.17275C82.7703 4.96684 81.1383 4.28668 79.4347 4.28115H75.8257C75.3008 4.27955 74.7976 4.0714 74.4249 3.70173L72.5632 1.83928C71.378 0.659534 69.7732 -0.00192681 68.101 4.21613e-06C66.4287 0.00193524 64.8255 0.667095 63.643 1.84957L61.7914 3.73458C61.6075 3.91926 61.3888 4.06564 61.148 4.16531C60.9073 4.26498 60.6491 4.31595 60.3885 4.31525H56.739C55.0361 4.31967 53.4043 4.99916 52.2016 6.20474C51.6127 6.79786 51.1469 7.50148 50.8309 8.27517C50.5148 9.04886 50.3547 9.87737 50.3598 10.7131V14.3093C50.3608 14.5696 50.3102 14.8276 50.2109 15.0683C50.1116 15.309 49.9655 15.5276 49.7812 15.7114L47.9193 17.5726L47.9186 17.5732C46.7398 18.7564 46.078 20.3585 46.0781 22.0286C46.0782 23.6988 46.7404 25.3008 47.9193 26.4838L49.7797 28.3449C49.9647 28.5289 50.1112 28.7479 50.2108 28.989C50.3104 29.2302 50.361 29.4887 50.3598 29.7496V33.3413C50.3617 35.0445 51.0379 36.6775 52.2406 37.8835C53.4433 39.0894 55.0746 39.77 56.7777 39.7765H60.3918C60.6516 39.776 60.909 39.8268 61.1491 39.9261C61.3891 40.0255 61.6072 40.1713 61.7906 40.3552L63.6531 42.2177C64.8384 43.3971 66.4431 44.0583 68.1151 44.0563C69.7872 44.0544 71.3902 43.3895 72.5728 42.2074L74.4242 40.3211C74.6082 40.1367 74.8269 39.9904 75.0676 39.891C75.3084 39.7915 75.5665 39.7408 75.827 39.7417H79.4754Z" fill="#002C3C"/>
<path d="M72.5283 16.5767L66.0776 22.5857L63.7406 20.4124C63.2636 19.9713 62.6379 19.7263 61.9882 19.7263C61.3385 19.7263 60.7128 19.9713 60.2358 20.4124C60.0045 20.6165 59.8193 20.8675 59.6925 21.1487C59.5656 21.4299 59.5 21.7349 59.5 22.0434C59.5 22.3519 59.5656 22.6568 59.6925 22.938C59.8193 23.2192 60.0045 23.4702 60.2358 23.6744L64.2937 27.4508C64.5209 27.6735 64.7901 27.849 65.0855 27.9671C65.381 28.0852 65.6969 28.1436 66.015 28.139C66.6555 28.1369 67.2711 27.8908 67.7365 27.4508L75.9711 19.7827C76.1998 19.5849 76.3844 19.3412 76.5128 19.0674C76.6412 18.7937 76.7106 18.496 76.7165 18.1936C76.7224 17.8913 76.6646 17.5911 76.5469 17.3126C76.4293 17.034 76.2544 16.7833 76.0335 16.5767C75.5565 16.1356 74.9306 15.8906 74.2809 15.8906C73.6312 15.8906 73.0053 16.1356 72.5283 16.5767Z" fill="#002C3C"/>
</svg>
