<svg width="156" height="75" viewBox="0 0 156 75" fill="none" xmlns="http://www.w3.org/2000/svg">
<path d="M44.6517 10.1596L45.7841 18.8526H43.4775L44.6517 10.1596ZM43.1684 21.3658H46.1143L46.588 24.971H49.5952L47.1236 7.91406H42.1795L39.6875 24.971H42.6952L43.1684 21.3658Z" fill="#002C3C"/>
<path d="M58.5358 22.437H53.3656L58.5983 10.448V7.91406H50.2961V10.448H55.4875L50.2344 22.437V24.971H58.5358V22.437Z" fill="#002C3C"/>
<path d="M60.0938 7.91406V21.0561C60.0938 23.7548 61.886 25.3205 64.7083 25.3205C67.5712 25.3205 69.3223 23.7548 69.3223 21.0561V7.91406H66.2945V20.5005C66.2945 21.9625 65.7589 22.7048 64.7083 22.7048C63.6576 22.7048 63.122 21.9625 63.122 20.5005V7.91406H60.0938Z" fill="#002C3C"/>
<path d="M67.044 3.39844H64.4895L63.7891 6.88004H65.396L67.044 3.39844Z" fill="#002C3C"/>
<path d="M80.4006 14.4354V11.8191C80.4006 9.12037 78.6494 7.55469 75.7865 7.55469C72.9643 7.55469 71.1719 9.12037 71.1719 11.8191V21.0476C71.1719 23.7463 72.9642 25.312 75.7865 25.312C78.6493 25.312 80.4006 23.7463 80.4006 21.0476V17.8751H77.3728V20.4914C77.3728 21.9541 76.8372 22.6957 75.7865 22.6957C74.7359 22.6957 74.2003 21.9541 74.2003 20.4914V12.3753C74.2003 10.9127 74.7359 10.171 75.7865 10.171C76.8372 10.171 77.3728 10.9127 77.3728 12.3753V14.4354H80.4006Z" fill="#002C3C"/>
<path d="M85.0483 18.8518L86.2219 10.1589L87.355 18.8518H85.0483ZM88.6941 7.91406H83.7498L81.2578 24.9703H84.2655L84.7387 21.3657H87.6852L88.1585 24.9703H91.1661L88.6941 7.91406Z" fill="#002C3C"/>
<path d="M97.1965 15.0825H95.3637V10.4474H97.1559C98.2066 10.4474 98.5356 10.9623 98.5356 12.2602V13.4551C98.5356 14.5881 98.1859 15.0825 97.1965 15.0825ZM98.7629 24.9703H101.729C101.583 24.1757 101.528 23.3671 101.564 22.56V20.0055C101.602 19.3749 101.539 18.7423 101.379 18.1314C101.318 17.826 101.191 17.5375 101.008 17.2862C100.524 16.7528 99.8516 16.4279 99.133 16.3798C99.5973 16.3594 100.045 16.199 100.416 15.9196C100.788 15.6403 101.066 15.2551 101.214 14.8147C101.488 14.035 101.607 13.2092 101.564 12.3838V11.8076C101.624 10.8644 101.401 9.92484 100.925 9.10826C100.451 8.34667 99.5038 7.91406 98.1241 7.91406H92.3359V24.9703H95.3637V17.6158H97.1765C98.0823 17.6158 98.5353 18.172 98.5356 19.2845V21.8596C98.4754 22.902 98.5518 23.9478 98.7629 24.9703Z" fill="#002C3C"/>
<path d="M110.654 22.437H106.349V17.4317H110.531V14.8972H106.349V10.448H110.654V7.91406H103.32V24.971H110.654V22.437Z" fill="#002C3C"/>
<path d="M121.245 13.4671V11.8184C121.245 9.12031 119.473 7.55469 116.61 7.55469C113.705 7.55469 112.016 9.22331 112.016 11.7984V13.1369C112.006 13.8793 112.206 14.6094 112.592 15.2436C112.978 15.8777 113.536 16.3902 114.2 16.7221C114.818 17.0305 115.436 17.3189 116.033 17.5867C117.248 18.1017 118.216 18.8433 118.216 19.9146V20.4708C118.216 22.0571 117.701 22.6957 116.651 22.6957C115.579 22.6957 115.044 21.9541 115.044 20.4708V18.9051H112.016V21.0682C112.016 23.6839 113.746 25.3114 116.63 25.3114C119.452 25.3114 121.245 23.7663 121.245 21.047V19.482C121.287 18.8287 121.161 18.1755 120.88 17.5843C120.599 16.9932 120.171 16.4837 119.638 16.1041C119.157 15.7987 118.655 15.5301 118.134 15.3006C116.589 14.5796 115.064 14.2081 115.044 12.6431V12.3752C115.044 10.9126 115.579 10.171 116.63 10.171C117.681 10.171 118.216 10.892 118.216 12.354V13.4671H121.245Z" fill="#002C3C"/>
<path d="M43.0707 38.0356L46.8085 48.15H49.6655V31.0938H47.0241L47.102 41.2288L43.2863 31.0938H40.5078V48.15H43.1493L43.0707 38.0356Z" fill="#002C3C"/>
<path d="M54.3741 42.0315L55.4892 33.3386L56.5656 42.0315H54.3741ZM53.1414 31.0938L50.7734 48.1499H53.6305L54.0807 44.5454H56.8791L57.3291 48.1499H60.1855L57.8377 31.0938H53.1414Z" fill="#002C3C"/>
<path d="M62.7073 48.15H65.583V33.6271H67.8344V31.0938H60.4766V33.6271H62.7073V48.15Z" fill="#002C3C"/>
<path d="M77.6649 44.228V31.0859H74.7885V43.6724C74.7885 45.1344 74.2792 45.8767 73.2813 45.8767C72.2841 45.8767 71.7748 45.1344 71.7748 43.6724V31.0859H68.8984V44.228C68.8984 46.9267 70.6006 48.4924 73.2813 48.4924C76.0012 48.4924 77.6649 46.9267 77.6649 44.228Z" fill="#002C3C"/>
<path d="M84.1881 38.2544H82.4466V33.6192H84.1488C85.1473 33.6192 85.4601 34.1342 85.4601 35.4321V36.627C85.4601 37.76 85.1274 38.2544 84.1881 38.2544ZM85.6753 48.1422H88.4931C88.3546 47.3467 88.3021 46.5386 88.3365 45.7319V43.1774C88.3724 42.5474 88.313 41.9156 88.1602 41.3033C88.1037 40.9999 87.9837 40.7118 87.8081 40.458C87.5857 40.197 87.314 39.9825 87.0083 39.8269C86.7027 39.6714 86.3694 39.5778 86.0274 39.5516C86.4772 39.5236 86.9076 39.3586 87.2609 39.0789C87.6142 38.7991 87.8734 38.418 88.0038 37.9866C88.2648 37.204 88.3777 36.3796 88.3365 35.5557V34.9795C88.3937 34.0404 88.1832 33.1044 87.7295 32.2801C87.2795 31.5185 86.3802 31.0859 85.0688 31.0859H79.5703V48.1422H82.4466V40.7877H84.1682C85.0295 40.7877 85.4601 41.3439 85.4601 42.4563V45.0315C85.403 46.0733 85.4753 47.1182 85.6753 48.1422Z" fill="#002C3C"/>
<path d="M92.7725 42.0315L93.8881 33.3386L94.964 42.0315H92.7725ZM95.7275 48.15H98.5838L96.236 31.0938H91.5397L89.1719 48.15H92.029L92.4789 44.5449H95.2774L95.7275 48.15Z" fill="#002C3C"/>
<path d="M106.239 45.6167H102.579V31.0938H99.7031V48.1506H106.239V45.6167Z" fill="#002C3C"/>
<path d="M119.735 48.15V31.0938H115.468L113.512 41.3111L111.594 31.0938H107.289V48.15H109.95L109.813 36.3464L112.181 48.15H114.862L117.23 36.3464L117.092 48.15H119.735Z" fill="#002C3C"/>
<path d="M128.646 33.6277V31.0938H121.68V48.1506H128.646V45.6167H124.555V40.6113H128.528V38.0768H124.555V33.6277H128.646Z" fill="#002C3C"/>
<path d="M139.447 48.15V31.0938H136.805L136.884 41.2288L133.068 31.0938H130.289V48.15H132.931L132.853 38.0356L136.59 48.15H139.447Z" fill="#002C3C"/>
<path d="M140.562 33.6277H142.793V48.1506H145.67V33.6277H147.92V31.0938H140.562V33.6277Z" fill="#002C3C"/>
<path d="M149.031 31.0938V48.15H155.998V45.6167H151.908V40.6107H155.88V38.0768H151.908V33.6277H155.998V31.0938H149.031Z" fill="#002C3C"/>
<path d="M46.7628 66.8443C46.7628 68.2657 46.4538 68.7808 45.3825 68.7808H43.5903V56.7917H45.3825C46.4538 56.7917 46.7628 57.3273 46.7628 58.7276V66.8443ZM46.4126 54.2578H40.5625V71.314H46.4126C47.7927 71.314 48.7405 70.8608 49.173 70.0574C49.6363 69.2146 49.8506 68.2574 49.791 67.2975V58.2743C49.8531 57.3205 49.6385 56.3691 49.173 55.5344C48.7405 54.711 47.7927 54.2578 46.4126 54.2578Z" fill="#002C3C"/>
<path d="M51.7188 71.3141H59.052V68.7801H54.7464V63.7748H58.9284V61.2409H54.7464V56.7911H59.052V54.2578H51.7188V71.3141Z" fill="#002C3C"/>
<path d="M65.2476 53.9375C62.4252 53.9375 60.6328 55.5032 60.6328 58.2013V67.8212C60.6328 70.2322 61.9102 71.6324 64.238 71.6324C65.783 71.6324 66.8543 71.0967 67.4099 70.0461L67.6166 71.3439H69.8615V61.8476H65.2268V64.3815H66.8337V66.853C66.8337 68.4393 66.2775 69.0785 65.185 69.0785C64.2174 69.0785 63.6612 68.5429 63.6612 67.039V58.7575C63.6612 57.2955 64.1968 56.5532 65.2476 56.5532C66.2981 56.5532 66.8337 57.2955 66.8337 58.7575V60.3025H69.8615V58.2013C69.8615 55.5032 68.1103 53.9375 65.2476 53.9375Z" fill="#002C3C"/>
<path d="M77.9347 59.8223C77.9347 60.9553 77.5845 61.4497 76.5956 61.4497H74.7621V56.8146H76.5544C77.6051 56.8146 77.9347 57.3295 77.9347 58.6274V59.8223ZM80.9631 66.3727C81.0007 65.7421 80.9381 65.1096 80.7776 64.4986C80.7168 64.1933 80.5903 63.9049 80.4068 63.6534C79.9227 63.1201 79.2507 62.7953 78.5321 62.7469C78.9963 62.7266 79.4436 62.5662 79.8149 62.2868C80.1863 62.0075 80.4644 61.6223 80.6127 61.1819C80.8871 60.4022 81.0061 59.5764 80.9631 58.751V58.1748C81.022 57.2316 80.7997 56.2922 80.3243 55.4754C79.85 54.7139 78.9028 54.2812 77.5226 54.2812H71.7344V71.3375H74.7621V63.983H76.5756C77.4814 63.983 77.9344 64.5394 77.9347 65.6523V68.2268C77.8748 69.2691 77.951 70.3149 78.1613 71.3375H81.1278C80.9819 70.5429 80.9266 69.7343 80.9631 68.9272V66.3727Z" fill="#002C3C"/>
<path d="M85.6265 65.1956L86.8001 56.5026L87.9331 65.1956H85.6265ZM84.3281 54.2578L81.8359 71.314H84.843L85.3168 67.7095H88.2627L88.7366 71.314H91.7442L89.2722 54.2578H84.3281Z" fill="#002C3C"/>
<path d="M99.1144 66.8443C99.1144 68.2657 98.8053 68.7808 97.7341 68.7808H95.9418V56.7917H97.7341C98.8054 56.7917 99.1144 57.3273 99.1144 58.7276V66.8443ZM98.7642 54.2578H92.9141V71.314H98.7642C100.144 71.314 101.092 70.8608 101.525 70.0574C101.988 69.2146 102.202 68.2574 102.143 67.2975V58.2743C102.205 57.3205 101.99 56.3691 101.525 55.5344C101.092 54.711 100.144 54.2578 98.7642 54.2578Z" fill="#002C3C"/>
<path d="M106.97 65.1956L108.144 56.5026L109.277 65.1956H106.97ZM105.672 54.2578L103.18 71.314H106.187L106.661 67.7095H109.606L110.08 71.314H113.088L110.616 54.2578H105.672Z" fill="#002C3C"/>
<path d="M120.474 66.8443C120.474 68.2657 120.165 68.7808 119.093 68.7808H117.301V56.7917H119.093C120.165 56.7917 120.474 57.3273 120.474 58.7276V66.8443ZM120.124 54.2578H114.273V71.314H120.124C121.504 71.314 122.451 70.8608 122.884 70.0574C123.347 69.2146 123.562 68.2574 123.502 67.2975V58.2743C123.564 57.3205 123.349 56.3691 122.884 55.5344C122.451 54.711 121.504 54.2578 120.124 54.2578Z" fill="#002C3C"/>
<path d="M131.459 66.8586C131.459 68.3206 130.923 69.0629 129.873 69.0629C128.822 69.0629 128.286 68.3206 128.286 66.8586V58.7419C128.286 57.2799 128.822 56.5375 129.873 56.5375C130.923 56.5375 131.459 57.2799 131.459 58.7419V66.8586ZM129.873 53.9219C127.05 53.9219 125.258 55.4876 125.258 58.1856V67.4148C125.258 70.1129 127.05 71.6786 129.873 71.6786C132.735 71.6786 134.487 70.1129 134.487 67.4148V58.1856C134.487 55.4876 132.735 53.9219 129.873 53.9219Z" fill="#002C3C"/>
<path d="M140.602 53.9219C137.697 53.9219 136.008 55.5906 136.008 58.1657V59.5041C135.998 60.2464 136.198 60.9765 136.584 61.6105C136.971 62.2445 137.528 62.7569 138.192 63.0886C138.81 63.3977 139.428 63.6861 140.025 63.9539C141.24 64.4689 142.208 65.2099 142.208 66.2811V66.8374C142.208 68.4236 141.693 69.0629 140.643 69.0629C139.572 69.0629 139.036 68.3211 139.036 66.8374V65.2723H136.008V67.4348C136.008 70.0517 137.739 71.6786 140.622 71.6786C143.444 71.6786 145.237 70.1341 145.237 67.4148V65.8485C145.279 65.1952 145.153 64.5421 144.872 63.951C144.591 63.3598 144.163 62.8503 143.63 62.4706C143.149 62.1657 142.647 61.8972 142.126 61.6672C140.582 60.9461 139.057 60.5753 139.036 59.0096V58.7419C139.036 57.2799 139.572 56.5375 140.622 56.5375C141.673 56.5375 142.209 57.2592 142.209 58.7212V59.8343H145.237V58.1856C145.237 55.4876 143.465 53.9219 140.602 53.9219Z" fill="#002C3C"/>
<path d="M26.2807 11.1245C26.2568 12.2633 26.2614 13.4203 26.2666 14.5392L26.2697 15.6985L26.2614 17.5173C26.2575 18.7359 26.2537 19.954 26.2716 21.172C26.2857 21.713 26.1435 22.2467 25.8621 22.709C25.5807 23.1713 25.1719 23.5427 24.6848 23.7786C24.2226 24.0541 23.7649 24.3381 23.307 24.6214C22.615 25.0501 21.9005 25.4937 21.1819 25.8993C19.5377 26.8263 17.5877 27.9123 15.5952 28.9276C15.2222 29.1177 14.8067 29.2091 14.3883 29.1932C13.9699 29.1773 13.5625 29.0546 13.2049 28.8368C11.336 27.7694 9.47553 26.684 7.61636 25.5992L5.68817 24.4752C5.55756 24.3992 5.42286 24.3259 5.28832 24.2531C4.98053 24.0991 4.6875 23.9172 4.41287 23.7098C3.98098 23.4176 3.62822 23.0229 3.38622 22.5611C3.14422 22.0992 3.02051 21.5845 3.02614 21.0631C3.08022 18.0515 3.07957 14.9711 3.02362 11.644C2.99659 10.0449 3.70216 8.93953 5.31221 8.05949C6.32487 7.50519 7.33942 6.91937 8.32065 6.3522C8.93016 6.00006 9.54046 5.64987 10.1515 5.30158C10.42 5.14965 10.687 4.99578 10.9542 4.84256C11.8157 4.34621 12.7059 3.83308 13.6119 3.40239C13.9865 3.21964 14.3976 3.12395 14.8144 3.12239C15.3948 3.13456 15.9614 3.30168 16.4554 3.60648C17.5935 4.26764 18.7341 4.92433 19.8771 5.57648C21.3256 6.40631 22.7734 7.23608 24.2142 8.08008C24.7645 8.41215 25.2768 8.80353 25.7418 9.24724C25.9638 9.50147 26.1272 9.80149 26.2203 10.1259C26.3134 10.4503 26.3341 10.7912 26.2807 11.1245ZM28.8475 9.04323C28.2309 7.61443 27.1233 6.45338 25.7251 5.77019C25.0743 5.3968 24.4259 5.01634 23.7784 4.63651C22.7836 4.05324 21.7556 3.45007 20.7294 2.88097C20.3572 2.67496 19.9929 2.45671 19.6279 2.23782C18.4987 1.47724 17.2532 0.905395 15.9404 0.544682C15.2109 0.375388 14.4551 0.352837 13.7168 0.478277C12.9786 0.603717 12.2726 0.874651 11.64 1.27538C10.6729 1.85285 9.69576 2.4136 8.71845 2.97433C8.16803 3.28978 7.61784 3.60689 7.06783 3.92577C6.65066 4.16848 6.22961 4.40543 5.80793 4.64169C4.72832 5.24878 3.61129 5.8771 2.58008 6.60006C1.86111 7.16309 1.28169 7.88439 0.886865 8.70782C0.217336 9.9368 0.254103 11.2887 0.289453 12.5975L0.298412 12.9773C0.337077 14.711 0.329999 16.4756 0.32293 18.1816C0.319628 19.2799 0.315235 20.3775 0.321673 21.4758C0.33393 22.3933 0.581032 23.2924 1.03948 24.0873C1.49793 24.8822 2.15243 25.5464 2.94048 26.0164C3.88886 26.6609 4.90922 27.2241 5.89611 27.7694C6.41493 28.0565 6.93514 28.343 7.4463 28.6424C7.94844 28.9372 8.44483 29.2443 8.94054 29.5514C9.8908 30.1405 10.8725 30.7488 11.891 31.2561C12.7607 31.7547 13.7339 32.0455 14.7345 32.1059C15.2543 32.107 15.7678 31.993 16.2384 31.7724C17.8465 31.0256 19.1476 30.3703 20.3316 29.7085C21.6926 28.9488 23.0548 28.1428 24.3725 27.3639C25.0234 26.9789 25.6751 26.5953 26.3277 26.2134C27.2106 25.7437 27.9488 25.0422 28.4628 24.1843C28.9767 23.3264 29.2471 22.3446 29.2447 21.3445C29.2717 20.2018 29.2646 19.0398 29.2588 17.917C29.2562 17.4889 29.254 17.0608 29.2524 16.6327L29.264 16.3913C29.264 15.9175 29.2664 15.4436 29.2711 14.9698C29.2794 13.8342 29.2878 12.66 29.2472 11.505C29.2433 10.6686 29.1084 9.83795 28.8475 9.04323Z" fill="#002C3C"/>
<path d="M22.5317 11.1627C22.286 11.0319 22.0112 10.9653 21.7329 10.9689C21.4546 10.9725 21.1818 11.0462 20.9395 11.1833C19.9551 11.7047 18.9824 12.2822 18.0425 12.841L17.0003 13.4578C16.0404 14.025 15.1359 14.5593 14.0382 14.1189C13.3847 13.8482 12.7493 13.5358 12.1358 13.1835C11.628 12.899 11.1271 12.6035 10.6262 12.3074C10.03 11.9552 9.43327 11.6037 8.82625 11.2715C8.50719 11.0662 8.12151 10.9912 7.74875 11.0619C7.37599 11.1325 7.04456 11.3435 6.82277 11.6513C6.63628 12.0188 6.58506 12.4402 6.67817 12.8416C6.77129 13.243 7.0028 13.5988 7.33201 13.8466L8.05626 14.2715C9.02128 14.8399 10.0186 15.4277 11.0447 15.9267C12.638 16.7031 13.3591 17.8284 13.3134 19.4662C13.2716 20.9372 13.2869 22.432 13.3011 23.8779L13.3075 24.4837C13.3171 25.5402 13.7846 26.0037 14.9195 26.0829C14.9594 26.0861 14.9993 26.0874 15.038 26.0874C15.3385 26.0972 15.6319 25.9947 15.8608 25.7997C16.0039 25.6583 16.1169 25.4892 16.1927 25.3029C16.2685 25.1165 16.3056 24.9167 16.3018 24.7155C16.39 22.9284 16.4042 21.2887 16.3462 19.7012C16.2914 18.2559 16.5387 17.1518 17.9261 16.4597C19.4879 15.6794 20.9982 14.7814 22.4113 13.9284C22.6931 13.7321 22.934 13.4828 23.1206 13.1944C23.2056 13.0805 23.29 12.9672 23.3806 12.8629L23.447 12.7863L23.4393 12.6859C23.4262 12.3767 23.3363 12.0755 23.1779 11.8096C23.0194 11.5437 22.7974 11.3214 22.5317 11.1627Z" fill="#002C3C"/>
<path d="M23.9318 35.7658L14.7786 44.919L5.62533 35.7658C5.48287 35.6224 5.31355 35.5086 5.12702 35.4309C4.94048 35.3531 4.74043 35.3128 4.53833 35.3125C4.33622 35.3122 4.13603 35.3518 3.94924 35.429C3.76246 35.5062 3.59274 35.6195 3.44983 35.7624C3.30692 35.9053 3.19366 36.075 3.11647 36.2618C3.03927 36.4486 2.99969 36.6487 3 36.8508C3.00032 37.0529 3.04049 37.2531 3.11827 37.4396C3.19606 37.6261 3.30993 37.7954 3.45329 37.9379L13.6925 48.1772C13.8351 48.3199 14.0045 48.4331 14.1908 48.5103C14.3772 48.5875 14.5769 48.6272 14.7786 48.6272C14.9803 48.6272 15.1801 48.5875 15.3664 48.5103C15.5528 48.4331 15.722 48.3199 15.8646 48.1772L26.1038 37.9379C26.3911 37.6497 26.5523 37.2593 26.552 36.8524C26.5517 36.4455 26.3899 36.0553 26.1021 35.7676C25.8144 35.4799 25.4243 35.318 25.0173 35.3177C24.6104 35.3174 24.22 35.4785 23.9318 35.7658Z" fill="#002C3C"/>
<path d="M23.9251 61.6747L14.7718 70.8279L5.61857 61.6747C5.33022 61.3881 4.94005 61.2276 4.53353 61.2282C4.12702 61.2289 3.73736 61.3906 3.44991 61.678C3.16246 61.9655 3.00064 62.3552 3 62.7617C2.99936 63.1683 3.15998 63.5584 3.44653 63.8468L13.6858 74.0861C13.8284 74.2288 13.9977 74.3419 14.1841 74.4191C14.3704 74.4963 14.5701 74.5361 14.7718 74.5361C14.9735 74.5361 15.1733 74.4963 15.3596 74.4191C15.546 74.3419 15.7153 74.2288 15.8579 74.0861L26.097 63.8468C26.3843 63.5586 26.5455 63.1682 26.5452 62.7613C26.5449 62.3544 26.3831 61.9642 26.0954 61.6765C25.8077 61.3887 25.4175 61.2269 25.0106 61.2266C24.6037 61.2262 24.2133 61.3874 23.9251 61.6747Z" fill="#002C3C"/>
<path d="M23.9251 48.3622L14.7718 57.5154L5.61857 48.3622C5.33022 48.0756 4.94005 47.9151 4.53353 47.9157C4.12702 47.9164 3.73736 48.0781 3.44991 48.3655C3.16246 48.653 3.00064 49.0426 3 49.4492C2.99936 49.8557 3.15998 50.2459 3.44653 50.5342L13.6858 60.7735C13.8284 60.9162 13.9977 61.0294 14.1841 61.1066C14.3704 61.1838 14.5701 61.2235 14.7718 61.2235C14.9735 61.2235 15.1733 61.1838 15.3596 61.1066C15.546 61.0294 15.7153 60.9162 15.8579 60.7735L26.097 50.5342C26.3843 50.246 26.5455 49.8557 26.5452 49.4488C26.5449 49.0419 26.3831 48.6517 26.0954 48.364C25.8077 48.0762 25.4175 47.9144 25.0106 47.9141C24.6037 47.9137 24.2133 48.0749 23.9251 48.3622Z" fill="#002C3C"/>
</svg>
