<svg width="124" height="70" viewBox="0 0 124 70" fill="none" xmlns="http://www.w3.org/2000/svg">
<path d="M61.8984 69.2516V52.1953H59.1179L59.2003 62.3303L55.1825 52.1953H52.2578V69.2516H55.0389L54.9565 59.1372L58.8906 69.2516H61.8984Z" fill="#000000"/>
<path d="M68.3313 54.4408L69.4644 63.1337H67.1577L68.3313 54.4408ZM63.3672 69.2516H66.3742L66.8481 65.6464H69.794L70.2678 69.2516H73.2755L70.8033 52.1953H65.8592L63.3672 69.2516Z" fill="#000000"/>
<path d="M79.2752 69.2516V54.7286H81.6444V52.1953H73.8984V54.7286H76.2475V69.2516H79.2752Z" fill="#000000"/>
<path d="M83.0781 52.1953V65.338C83.0781 68.0361 84.8703 69.6018 87.6927 69.6018C90.5556 69.6018 92.3067 68.0361 92.3067 65.338V52.1953H89.2789V64.7818C89.2789 66.2439 88.7433 66.9861 87.6927 66.9861C86.642 66.9861 86.1064 66.2439 86.1064 64.7818V52.1953H83.0781Z" fill="#000000"/>
<path d="M99.4777 59.3644H97.645V54.7285H99.4372C100.488 54.7285 100.817 55.2442 100.817 56.5421V57.7363C100.817 58.8693 100.467 59.3644 99.4777 59.3644ZM101.044 69.2515H104.01C103.864 68.4571 103.809 67.6487 103.846 66.8419V64.2874C103.884 63.6566 103.821 63.0238 103.66 62.4127C103.599 62.1074 103.473 61.8191 103.289 61.568C102.805 61.0344 102.133 60.7095 101.414 60.6616C101.879 60.6412 102.326 60.4808 102.697 60.2015C103.069 59.9222 103.347 59.537 103.496 59.0966C103.77 58.3166 103.888 57.4906 103.846 56.6651V56.0889C103.905 55.1458 103.682 54.2065 103.207 53.3902C102.733 52.6279 101.785 52.1953 100.405 52.1953H94.6172V69.2516H97.645V61.8977H99.4578C100.364 61.8977 100.817 62.4539 100.817 63.5664V66.1415C100.757 67.1836 100.833 68.2292 101.044 69.2515Z" fill="#000000"/>
<path d="M109.98 54.4408L111.113 63.1337H108.806L109.98 54.4408ZM105.016 69.2516H108.023L108.497 65.6464H111.442L111.916 69.2516H114.924L112.452 52.1953H107.508L105.016 69.2516Z" fill="#000000"/>
<path d="M116.414 52.1953V69.2516H123.294V66.7183H119.442V52.1953H116.414Z" fill="#000000"/>
<path d="M3.86515 49.9234V32.8672H1.14583L-0.0078125 34.8655V35.6683H0.836753V49.9234H3.86515Z" fill="#000000"/>
<path d="M12.1454 37.3434V45.4601C12.1454 46.9222 11.6098 47.6644 10.5593 47.6644C9.50857 47.6644 8.97292 46.9222 8.97292 45.4601V37.3434C8.97292 35.8814 9.50855 35.1397 10.5593 35.1397C11.6098 35.1397 12.1454 35.8814 12.1454 37.3434ZM5.94531 36.7878V46.0164C5.94531 48.7144 7.73694 50.2801 10.5593 50.2801C13.4228 50.2801 15.1738 48.7144 15.1738 46.0164V36.7878C15.1738 34.0891 13.4228 32.5234 10.5593 32.5234C7.73694 32.5234 5.94531 34.0891 5.94531 36.7878Z" fill="#000000"/>
<path d="M23.3486 37.3434V45.4601C23.3486 46.9222 22.813 47.6644 21.7624 47.6644C20.7117 47.6644 20.176 46.9222 20.176 45.4601V37.3434C20.176 35.8814 20.7117 35.1397 21.7624 35.1397C22.8129 35.1397 23.3486 35.8814 23.3486 37.3434ZM17.1484 36.7878V46.0164C17.1484 48.7144 18.9401 50.2801 21.7624 50.2801C24.6259 50.2801 26.377 48.7144 26.377 46.0164V36.7878C26.377 34.0891 24.6259 32.5234 21.7624 32.5234C18.9401 32.5234 17.1484 34.0891 17.1484 36.7878Z" fill="#000000"/>
<path d="M42.7342 32.8672H40.5718L33.3203 49.9234H35.504L42.7342 32.8672Z" fill="#000000"/>
<path d="M43.1462 43.469C43.1462 42.2947 43.414 41.6561 44.3412 41.6561C44.5468 41.6271 44.7561 41.6708 44.9329 41.7798C45.1097 41.8888 45.2429 42.0561 45.3093 42.2528C45.4394 42.6584 45.4885 43.0856 45.4536 43.5101V46.0434C45.4536 47.1971 45.1858 47.6297 44.2593 47.6297C43.7444 47.6297 43.4346 47.5267 43.2911 47.197C43.1522 46.8153 43.1027 46.4067 43.1462 46.0028V43.469ZM44.3 50.1224C47.0398 50.1224 48.1111 49.0924 48.1111 46.8064V42.6862C48.1111 40.3789 46.9987 39.1641 44.28 39.1641C41.5806 39.1641 40.4688 40.3789 40.4688 42.6862V46.8064C40.4688 49.0924 41.5606 50.1224 44.3 50.1224Z" fill="#000000"/>
<path d="M32.9457 39.5441C32.9457 40.6978 32.6785 41.1304 31.7515 41.1304C31.2364 41.1304 30.9268 41.0274 30.7833 40.6978C30.645 40.3156 30.5956 39.907 30.639 39.5029V36.9696C30.639 35.7954 30.9068 35.1561 31.8338 35.1561C32.0395 35.1273 32.2487 35.1713 32.4254 35.2803C32.6021 35.3894 32.7351 35.5568 32.8015 35.7535C32.9315 36.1589 32.9804 36.5859 32.9457 37.0102V39.5441ZM35.6033 36.1868C35.6033 33.8795 34.4908 32.6641 31.7721 32.6641C29.0734 32.6641 27.9609 33.8795 27.9609 36.1868V40.3064C27.9609 42.5931 29.0528 43.6231 31.7926 43.6231C34.532 43.6231 35.6033 42.5931 35.6033 40.3064V36.1868Z" fill="#000000"/>
<path d="M54.45 46.5175C55.2374 42.6973 58.5728 32.9222 72.067 32.9222C85.5613 32.9222 90.1971 42.5602 91.5535 46.5175H54.45ZM69.0986 17.7786C65.8743 13.7237 61.7954 10.4298 57.1526 8.13157C56.8257 7.96998 56.448 7.94485 56.1026 8.06173C55.7572 8.17861 55.4723 8.42792 55.3107 8.7548C55.1491 9.08169 55.1241 9.45937 55.2409 9.80477C55.3578 10.1502 55.6071 10.435 55.934 10.5966C60.5736 12.9031 64.5966 16.2823 67.6694 20.4541C64.4537 20.8295 58.0321 20.9762 53.3691 17.1831C48.9348 13.5734 49.0172 6.40946 49.2097 3.7616C57.2717 2.80881 62.9698 4.13757 66.1577 7.70156C68.879 10.7428 69.2454 14.9022 69.0986 17.7786ZM81.6864 9.47839V9.46938C84.5724 6.24469 89.7303 5.03503 97.0314 5.88739C97.2059 8.37048 97.224 14.7741 93.2569 17.9988C89.1071 21.3793 83.4085 21.3149 80.4317 20.9943C83.2231 17.2576 86.8538 14.2294 91.0307 12.154C91.3575 11.9924 91.6068 11.7076 91.7236 11.3622C91.8405 11.0169 91.8153 10.6393 91.6537 10.3125C91.4921 9.98569 91.2073 9.73647 90.8619 9.61966C90.5166 9.50284 90.139 9.52799 89.8122 9.68958C85.6303 11.7553 81.9455 14.7025 79.0115 18.3284C78.92 15.7269 79.3134 12.1353 81.6864 9.47839ZM94.439 48.7624C94.567 48.6038 94.6588 48.4191 94.7078 48.2212C94.7568 48.0234 94.762 47.8172 94.7229 47.6171C94.6861 47.4523 91.269 31.9147 74.834 30.3207C74.6872 30.3021 74.5314 30.2931 74.3853 30.284C74.8864 29.2324 75.4428 28.208 76.0521 27.2152C76.8398 25.9353 77.7058 24.7053 78.6451 23.5321C80.1094 23.7847 81.5929 23.9103 83.0789 23.9074C86.5972 23.9074 91.2329 23.1928 94.9887 20.1336C101.182 15.0947 99.716 4.88893 99.6517 4.45824C99.6077 4.16484 99.4695 3.89367 99.2581 3.68551C99.0467 3.47735 98.7734 3.34346 98.4794 3.30395C89.6384 2.07626 83.2901 3.54219 79.625 7.65525C75.2828 12.5383 76.1898 19.4647 76.6115 21.6632C75.2359 23.3458 74.0096 25.1451 72.9466 27.0407C72.6724 25.1496 72.1456 23.3039 71.3802 21.5531C71.7466 19.9591 73.3225 11.6042 68.2289 5.88743H68.2193C64.2433 1.42605 57.3633 -0.158937 47.7619 1.17819C47.4678 1.21784 47.1945 1.35186 46.9831 1.56013C46.7717 1.7684 46.6336 2.03965 46.5896 2.33312C46.5162 2.79986 44.9312 13.8671 51.6279 19.3179C55.6958 22.634 60.7256 23.404 64.5368 23.404C65.8481 23.4039 67.158 23.315 68.4574 23.1381C68.6589 23.1111 68.8422 23.0836 69.0072 23.0557C69.9391 25.3322 70.4152 27.7695 70.4087 30.2293H70.2536C52.9656 31.2916 51.4817 47.6171 51.4636 47.7819C51.4495 47.9711 51.4738 48.1613 51.5351 48.3408C51.5964 48.5204 51.6934 48.6857 51.8202 48.8268C51.9482 48.9666 52.104 49.0779 52.2777 49.1537C52.4514 49.2294 52.639 49.2679 52.8285 49.2665H93.3761C93.5797 49.2674 93.7809 49.2226 93.9649 49.1353C94.1489 49.0481 94.3109 48.9206 94.439 48.7624Z" fill="#000000"/>
</svg>
