<svg width="746" height="360" viewBox="0 0 746 360" fill="none" xmlns="http://www.w3.org/2000/svg">
<rect x="0.0078125" y="125.867" width="745.904" height="108.627" rx="38.278" fill="white"/>
<rect x="78.6328" y="251.047" width="583.481" height="108.627" rx="38.278" fill="white"/>
<rect x="46.5625" y="0.6875" width="633.139" height="108.627" rx="38.278" fill="white"/>
<path d="M626.886 292.484H619.034C618.237 292.484 617.668 291.915 617.668 291.118V289.525C617.668 286.68 615.62 284.632 612.775 284.632H606.516C603.671 284.632 601.622 286.68 601.622 289.525V293.28C601.622 296.125 603.557 298.06 606.288 298.06H615.62C623.813 298.06 629.162 303.295 629.162 311.488V319.568C629.162 327.648 623.472 333.338 615.392 333.338H605.264C596.843 333.338 591.153 327.648 591.153 319.227V315.699C591.153 314.902 591.608 314.333 592.405 314.333H600.712C601.509 314.333 602.078 314.902 602.078 315.699V318.202C602.078 321.047 604.126 323.096 606.971 323.096H613.23C616.075 323.096 618.123 321.047 618.123 318.202V313.309C618.123 310.578 616.189 308.643 613.458 308.643H604.581C596.388 308.643 591.039 303.295 591.039 295.101V288.728C591.039 280.307 596.729 274.617 605.264 274.617H614.027C622.562 274.617 628.251 280.307 628.251 288.728V291.118C628.251 291.915 627.682 292.484 626.886 292.484Z" fill="#002C3C"/>
<path d="M543.484 319.113V288.842C543.484 280.421 549.288 274.617 557.709 274.617H566.813C575.121 274.617 581.038 280.421 581.038 288.842V319.113C581.038 327.42 575.121 333.338 566.813 333.338H557.709C549.288 333.338 543.484 327.42 543.484 319.113ZM554.409 289.866V317.861C554.409 320.934 556.571 323.096 559.644 323.096H564.879C567.837 323.096 570.113 320.934 570.113 317.861V289.866C570.113 286.794 567.837 284.632 564.879 284.632H559.644C556.571 284.632 554.409 286.794 554.409 289.866Z" fill="#002C3C"/>
<path d="M529.511 322.528H534.519C535.315 322.528 535.77 323.097 535.77 323.78V331.632C535.77 332.428 535.315 332.997 534.519 332.997H527.008C519.042 332.997 513.238 327.194 513.238 319.341V284.746H505.955C505.272 284.746 504.703 284.291 504.703 283.495V276.211C504.703 275.529 505.272 274.96 505.955 274.96H513.238V262.783C513.238 262.1 513.807 261.531 514.604 261.531H523.139C523.821 261.531 524.39 262.1 524.39 262.783V274.96H533.95C534.746 274.96 535.315 275.529 535.315 276.211V283.495C535.315 284.291 534.746 284.746 533.95 284.746H524.39V317.293C524.39 320.366 526.553 322.528 529.511 322.528Z" fill="#002C3C"/>
<path d="M484.756 333.338H476.108C467.687 333.338 461.883 327.42 461.883 319.113V288.842C461.883 280.421 467.687 274.617 476.108 274.617H484.756C493.064 274.617 498.981 280.421 498.981 288.842V292.825C498.981 293.622 498.412 294.077 497.616 294.077H489.422C488.739 294.077 488.17 293.622 488.17 292.825V289.866C488.17 286.794 486.008 284.632 482.936 284.632H478.042C474.97 284.632 472.808 286.794 472.808 289.866V317.861C472.808 320.934 474.97 323.096 478.042 323.096H482.936C486.008 323.096 488.17 320.934 488.17 317.861V314.788C488.17 313.992 488.739 313.423 489.422 313.423H497.616C498.412 313.423 498.981 313.992 498.981 314.788V319.113C498.981 327.42 493.064 333.338 484.756 333.338Z" fill="#002C3C"/>
<path d="M440.762 274.961H449.183C449.866 274.961 450.435 275.53 450.435 276.213V320.367C450.435 327.878 443.494 333.34 435.869 333.34H426.424C418.913 333.34 412.312 327.878 412.312 320.367V276.213C412.312 275.53 412.881 274.961 413.678 274.961H422.213C422.896 274.961 423.465 275.53 423.465 276.213V317.863C423.465 320.936 425.627 323.098 428.7 323.098H433.593C437.007 323.098 439.397 320.708 439.397 317.294V276.213C439.397 275.53 439.966 274.961 440.762 274.961Z" fill="#002C3C"/>
<path d="M390.958 253.344H399.379C400.062 253.344 400.631 253.913 400.631 254.596V331.638C400.631 332.434 400.062 333.003 399.379 333.003H393.803C393.12 333.003 392.665 332.434 392.551 331.638L391.982 327.882C390.275 331.183 387.316 333.345 382.878 333.345H375.936C367.97 333.345 362.508 327.882 362.508 320.03V287.939C362.508 280.087 367.97 274.624 375.936 274.624H382.081C385.04 274.624 387.657 275.421 389.706 277.128V254.596C389.706 253.913 390.275 253.344 390.958 253.344ZM389.592 317.413V290.329C389.592 287.028 387.202 284.525 383.788 284.525H378.895C375.822 284.525 373.66 286.801 373.66 289.873V317.982C373.66 321.054 375.822 323.217 378.895 323.217H383.788C387.202 323.217 389.592 320.827 389.592 317.413Z" fill="#002C3C"/>
<path d="M314.039 319.113V288.842C314.039 280.421 319.843 274.617 328.264 274.617H337.368C345.675 274.617 351.593 280.421 351.593 288.842V319.113C351.593 327.42 345.675 333.338 337.368 333.338H328.264C319.843 333.338 314.039 327.42 314.039 319.113ZM324.964 289.866V317.861C324.964 320.934 327.126 323.096 330.199 323.096H335.433C338.392 323.096 340.668 320.934 340.668 317.861V289.866C340.668 286.794 338.392 284.632 335.433 284.632H330.199C327.126 284.632 324.964 286.794 324.964 289.866Z" fill="#002C3C"/>
<path d="M298.997 274.617H306.736C307.418 274.617 307.987 275.186 307.987 275.869V283.721C307.987 284.518 307.418 285.087 306.736 285.087H298.314C294.9 285.087 292.624 287.363 292.624 290.663V331.631C292.624 332.427 292.169 332.996 291.373 332.996H282.951C282.155 332.996 281.586 332.427 281.586 331.631V276.21C281.586 275.528 282.155 274.959 282.951 274.959H288.414C289.21 274.959 289.666 275.528 289.779 276.21L290.235 278.942C292.283 275.983 295.356 274.617 298.997 274.617Z" fill="#002C3C"/>
<path d="M249.761 274.617H256.816C264.668 274.617 270.131 280.08 270.131 287.932V320.023C270.131 327.875 264.668 333.338 256.816 333.338H250.671C247.598 333.338 245.095 332.541 243.046 330.948V352.228C243.046 352.911 242.477 353.48 241.681 353.48H233.373C232.577 353.48 232.008 352.911 232.008 352.228V276.21C232.008 275.528 232.577 274.959 233.373 274.959H238.836C239.632 274.959 240.088 275.528 240.201 276.21L240.657 278.942C242.819 275.983 246.005 274.617 249.761 274.617ZM258.978 317.861V289.866C258.978 286.794 256.816 284.632 253.743 284.632H248.964C245.436 284.632 243.046 287.021 243.046 290.435V317.292C243.046 320.706 245.55 323.096 248.964 323.096H253.743C256.816 323.096 258.978 320.934 258.978 317.861Z" fill="#002C3C"/>
<path d="M199.042 309.098H173.323V317.747C173.323 320.934 175.485 322.982 178.558 322.982H184.476C187.548 322.982 189.71 320.934 189.71 317.747V316.495C189.71 315.699 190.166 315.13 190.962 315.13H199.042C199.838 315.13 200.407 315.699 200.407 316.495V319.113C200.407 327.42 194.49 333.224 186.183 333.224H176.623C168.202 333.224 162.398 327.42 162.398 319.113V288.842C162.398 280.421 168.202 274.617 176.623 274.617H186.183C194.49 274.617 200.407 280.421 200.407 288.842V307.733C200.407 308.529 199.838 309.098 199.042 309.098ZM184.476 284.632H178.558C175.485 284.632 173.323 286.794 173.323 289.866V299.312H189.71V289.866C189.71 286.794 187.548 284.632 184.476 284.632Z" fill="#002C3C"/>
<path d="M141.27 253.344H149.691C150.374 253.344 150.943 253.913 150.943 254.596V331.638C150.943 332.434 150.374 333.003 149.691 333.003H144.115C143.432 333.003 142.977 332.434 142.863 331.638L142.294 327.882C140.587 331.183 137.629 333.345 133.19 333.345H126.249C118.283 333.345 112.82 327.882 112.82 320.03V287.939C112.82 280.087 118.283 274.624 126.249 274.624H132.394C135.353 274.624 137.97 275.421 140.018 277.128V254.596C140.018 253.913 140.587 253.344 141.27 253.344ZM139.905 317.413V290.329C139.905 287.028 137.515 284.525 134.101 284.525H129.207C126.135 284.525 123.973 286.801 123.973 289.873V317.982C123.973 321.054 126.135 323.217 129.207 323.217H134.101C137.515 323.217 139.905 320.827 139.905 317.413Z" fill="#002C3C"/>
<path d="M668.992 197.113V166.842C668.992 158.421 674.796 152.617 683.217 152.617H692.321C700.628 152.617 706.546 158.421 706.546 166.842V197.113C706.546 205.42 700.628 211.338 692.321 211.338H683.217C674.796 211.338 668.992 205.42 668.992 197.113ZM679.917 167.866V195.861C679.917 198.934 682.079 201.096 685.152 201.096H690.386C693.345 201.096 695.621 198.934 695.621 195.861V167.866C695.621 164.794 693.345 162.632 690.386 162.632H685.152C682.079 162.632 679.917 164.794 679.917 167.866Z" fill="#002C3C"/>
<path d="M655.033 145.677L660.723 150.343C661.52 150.912 661.634 152.05 660.951 152.846L655.602 159.219C656.854 161.381 657.537 163.999 657.537 166.844V181.637C657.537 189.945 651.619 195.862 643.312 195.862H635.346L633.07 201.211H638.874C648.547 201.211 658.675 200.642 658.675 216.005C658.675 226.588 654.692 231.937 638.191 231.937C623.169 231.937 619.642 225.792 619.528 216.688C619.528 215.663 620.324 214.981 621.235 214.981H627.949C628.859 214.981 629.656 215.663 629.77 216.688C629.997 220.215 631.704 221.922 638.646 221.922C646.043 221.922 647.75 220.557 647.75 216.688C647.75 211.453 644.677 211.453 638.419 211.453H627.721C627.039 211.453 626.47 210.998 626.242 210.315L623.511 201.78C623.397 201.439 623.511 201.097 623.625 200.756L626.697 194.269C622.145 191.993 619.414 187.441 619.414 181.637V166.844C619.414 158.422 625.218 152.619 633.639 152.619H643.312C645.019 152.619 646.726 152.846 648.205 153.415L652.53 145.904C652.985 145.222 654.35 145.108 655.033 145.677ZM646.612 180.386V167.868C646.612 164.795 644.336 162.633 641.377 162.633H635.574C632.501 162.633 630.339 164.795 630.339 167.868V180.386C630.339 183.458 632.501 185.62 635.574 185.62H641.377C644.336 185.62 646.612 183.458 646.612 180.386Z" fill="#002C3C"/>
<path d="M570.945 197.113V166.842C570.945 158.421 576.749 152.617 585.17 152.617H594.274C602.582 152.617 608.499 158.421 608.499 166.842V197.113C608.499 205.42 602.582 211.338 594.274 211.338H585.17C576.749 211.338 570.945 205.42 570.945 197.113ZM581.87 167.866V195.861C581.87 198.934 584.032 201.096 587.105 201.096H592.34C595.298 201.096 597.574 198.934 597.574 195.861V167.866C597.574 164.794 595.298 162.632 592.34 162.632H587.105C584.032 162.632 581.87 164.794 581.87 167.866Z" fill="#002C3C"/>
<path d="M546.194 131.344H554.729C555.411 131.344 555.98 131.913 555.98 132.596V195.299C555.98 198.372 558.143 200.534 561.101 200.534H562.353C563.15 200.534 563.605 201.103 563.605 201.786V209.638C563.605 210.434 563.15 211.003 562.353 211.003H558.598C550.632 211.003 544.828 205.2 544.828 197.347V132.596C544.828 131.913 545.397 131.344 546.194 131.344Z" fill="#002C3C"/>
<path d="M516.734 148.179H509.224C508.086 148.179 507.858 147.382 508.427 146.586L515.596 134.523C515.938 133.954 516.393 133.727 517.303 133.727H525.952C526.976 133.727 527.318 134.409 526.635 135.32L518.441 147.382C518.1 147.838 517.417 148.179 516.734 148.179ZM509.565 152.617H519.466C527.432 152.617 533.235 158.421 533.235 166.387V209.631C533.235 210.427 532.666 210.996 531.87 210.996H526.407C525.611 210.996 525.269 210.427 525.156 209.631L524.7 206.217C522.993 209.289 519.807 211.338 515.824 211.338H507.858C499.892 211.338 494.43 205.875 494.43 198.023V188.805C494.43 180.953 499.892 175.491 507.858 175.491H515.255C518.1 175.491 520.49 176.288 522.311 177.881V167.866C522.311 164.794 520.148 162.632 517.076 162.632H511.386C508.199 162.632 506.151 164.68 506.151 167.866V168.549C506.151 169.346 505.582 169.915 504.899 169.915H497.047C496.25 169.915 495.681 169.346 495.681 168.549V166.387C495.681 158.421 501.599 152.617 509.565 152.617ZM522.197 195.178V190.626C522.197 187.326 519.807 185.05 516.507 185.05H510.817C507.63 185.05 505.354 187.326 505.354 190.399V195.406C505.354 198.592 507.63 200.868 510.817 200.868H516.621C519.921 200.868 522.197 198.592 522.197 195.178Z" fill="#002C3C"/>
<path d="M481.824 200.528H486.831C487.628 200.528 488.083 201.097 488.083 201.78V209.632C488.083 210.428 487.628 210.997 486.831 210.997H479.32C471.354 210.997 465.551 205.194 465.551 197.341V162.746H458.267C457.585 162.746 457.016 162.291 457.016 161.495V154.211C457.016 153.529 457.585 152.96 458.267 152.96H465.551V140.783C465.551 140.1 466.12 139.531 466.916 139.531H475.451C476.134 139.531 476.703 140.1 476.703 140.783V152.96H486.262C487.059 152.96 487.628 153.529 487.628 154.211V161.495C487.628 162.291 487.059 162.746 486.262 162.746H476.703V195.293C476.703 198.366 478.865 200.528 481.824 200.528Z" fill="#002C3C"/>
<path d="M426.409 152.617H436.309C444.275 152.617 450.079 158.421 450.079 166.387V209.631C450.079 210.427 449.51 210.996 448.713 210.996H443.251C442.455 210.996 442.113 210.427 441.999 209.631L441.544 206.217C439.837 209.289 436.651 211.338 432.668 211.338H424.702C416.736 211.338 411.273 205.875 411.273 198.023V188.805C411.273 180.953 416.736 175.491 424.702 175.491H432.099C434.944 175.491 437.334 176.287 439.154 177.881V167.866C439.154 164.794 436.992 162.632 433.919 162.632H428.23C425.043 162.632 422.995 164.68 422.995 167.866V168.549C422.995 169.346 422.426 169.915 421.743 169.915H413.891C413.094 169.915 412.525 169.346 412.525 168.549V166.387C412.525 158.421 418.443 152.617 426.409 152.617ZM439.04 195.178V190.626C439.04 187.326 436.651 185.05 433.351 185.05H427.661C424.474 185.05 422.198 187.326 422.198 190.399V195.406C422.198 198.592 424.474 200.868 427.661 200.868H433.464C436.764 200.868 439.04 198.592 439.04 195.178Z" fill="#002C3C"/>
<path d="M388.717 211.338H380.069C371.648 211.338 365.844 205.42 365.844 197.113V166.842C365.844 158.421 371.648 152.617 380.069 152.617H388.717C397.025 152.617 402.942 158.421 402.942 166.842V170.825C402.942 171.622 402.373 172.077 401.577 172.077H393.383C392.7 172.077 392.131 171.622 392.131 170.825V167.866C392.131 164.794 389.969 162.632 386.897 162.632H382.003C378.931 162.632 376.768 164.794 376.768 167.866V195.861C376.768 198.934 378.931 201.096 382.003 201.096H386.897C389.969 201.096 392.131 198.934 392.131 195.861V192.788C392.131 191.992 392.7 191.423 393.383 191.423H401.577C402.373 191.423 402.942 191.992 402.942 192.788V197.113C402.942 205.42 397.025 211.338 388.717 211.338Z" fill="#002C3C"/>
<path d="M296.688 197.113V166.842C296.688 158.421 302.491 152.617 310.912 152.617H320.016C328.324 152.617 334.241 158.421 334.241 166.842V197.113C334.241 205.42 328.324 211.338 320.016 211.338H310.912C302.491 211.338 296.688 205.42 296.688 197.113ZM307.612 167.866V195.861C307.612 198.934 309.774 201.096 312.847 201.096H318.082C321.041 201.096 323.317 198.934 323.317 195.861V167.866C323.317 164.794 321.041 162.632 318.082 162.632H312.847C309.774 162.632 307.612 164.794 307.612 167.866Z" fill="#002C3C"/>
<path d="M281.646 152.617H289.384C290.067 152.617 290.636 153.186 290.636 153.869V161.721C290.636 162.518 290.067 163.087 289.384 163.087H280.963C277.549 163.087 275.273 165.363 275.273 168.663V209.631C275.273 210.427 274.818 210.996 274.021 210.996H265.6C264.803 210.996 264.234 210.427 264.234 209.631V154.21C264.234 153.528 264.803 152.959 265.6 152.959H271.062C271.859 152.959 272.314 153.528 272.428 154.21L272.883 156.942C274.932 153.983 278.004 152.617 281.646 152.617Z" fill="#002C3C"/>
<path d="M249.808 200.528H254.815C255.612 200.528 256.067 201.097 256.067 201.78V209.632C256.067 210.428 255.612 210.997 254.815 210.997H247.305C239.339 210.997 233.535 205.194 233.535 197.341V162.746H226.252C225.569 162.746 225 162.291 225 161.495V154.211C225 153.529 225.569 152.96 226.252 152.96H233.535V140.783C233.535 140.1 234.104 139.531 234.901 139.531H243.436C244.118 139.531 244.687 140.1 244.687 140.783V152.96H254.246C255.043 152.96 255.612 153.529 255.612 154.211V161.495C255.612 162.291 255.043 162.746 254.246 162.746H244.687V195.293C244.687 198.366 246.85 200.528 249.808 200.528Z" fill="#002C3C"/>
<path d="M217.339 170.484H209.487C208.69 170.484 208.121 169.915 208.121 169.118V167.525C208.121 164.68 206.073 162.632 203.228 162.632H196.969C194.124 162.632 192.076 164.68 192.076 167.525V171.28C192.076 174.125 194.01 176.06 196.741 176.06H206.073C214.266 176.06 219.615 181.295 219.615 189.488V197.568C219.615 205.648 213.925 211.338 205.845 211.338H195.717C187.296 211.338 181.606 205.648 181.606 197.227V193.699C181.606 192.902 182.061 192.333 182.858 192.333H191.165C191.962 192.333 192.531 192.902 192.531 193.699V196.202C192.531 199.047 194.579 201.096 197.424 201.096H203.683C206.528 201.096 208.576 199.047 208.576 196.202V191.309C208.576 188.578 206.642 186.643 203.911 186.643H195.034C186.841 186.643 181.492 181.295 181.492 173.101V166.728C181.492 158.307 187.182 152.617 195.717 152.617H204.48C213.015 152.617 218.705 158.307 218.705 166.728V169.118C218.705 169.915 218.136 170.484 217.339 170.484Z" fill="#002C3C"/>
<path d="M170.581 187.098H144.862V195.747C144.862 198.934 147.024 200.982 150.097 200.982H156.015C159.087 200.982 161.249 198.934 161.249 195.747V194.495C161.249 193.699 161.705 193.13 162.501 193.13H170.581C171.378 193.13 171.947 193.699 171.947 194.495V197.113C171.947 205.42 166.029 211.224 157.722 211.224H148.162C139.741 211.224 133.938 205.42 133.938 197.113V166.842C133.938 158.421 139.741 152.617 148.162 152.617H157.722C166.029 152.617 171.947 158.421 171.947 166.842V185.733C171.947 186.529 171.378 187.098 170.581 187.098ZM156.015 162.632H150.097C147.024 162.632 144.862 164.794 144.862 167.866V177.312H161.249V167.866C161.249 164.794 159.087 162.632 156.015 162.632Z" fill="#002C3C"/>
<path d="M112.817 152.961H121.238C121.921 152.961 122.49 153.53 122.49 154.213V198.367C122.49 205.878 115.548 211.34 107.924 211.34H98.4783C90.9676 211.34 84.3672 205.878 84.3672 198.367V154.213C84.3672 153.53 84.9362 152.961 85.7328 152.961H94.2677C94.9505 152.961 95.5195 153.53 95.5195 154.213V195.863C95.5195 198.936 97.6817 201.098 100.754 201.098H105.648C109.062 201.098 111.451 198.708 111.451 195.294V154.213C111.451 153.53 112.02 152.961 112.817 152.961Z" fill="#002C3C"/>
<path d="M52.5418 152.617H59.5974C67.4495 152.617 72.9119 158.08 72.9119 165.932V209.631C72.9119 210.427 72.3429 210.996 71.6601 210.996H63.1251C62.3285 210.996 61.7595 210.427 61.7595 209.631V167.866C61.7595 164.794 59.5973 162.632 56.5247 162.632H51.7452C48.3312 162.632 45.8276 165.021 45.8276 168.435V209.631C45.8276 210.427 45.3724 210.996 44.5758 210.996H36.1547C35.3581 210.996 34.7891 210.427 34.7891 209.631V154.21C34.7891 153.528 35.3581 152.959 36.1547 152.959H41.617C42.4136 152.959 42.8688 153.528 42.9826 154.21L43.4378 156.942C45.6 153.983 48.7864 152.617 52.5418 152.617Z" fill="#002C3C"/>
<path d="M625.487 26.1791H632.998C633.681 26.1791 634.363 25.8377 634.705 25.3825L642.898 13.3198C643.581 12.4094 643.24 11.7266 642.216 11.7266H633.567C632.656 11.7266 632.201 11.9542 631.86 12.5232L624.69 24.5859C624.121 25.3825 624.349 26.1791 625.487 26.1791ZM624.69 87.6308V32.2105C624.69 31.5277 625.259 30.9587 626.056 30.9587H634.591C635.274 30.9587 635.843 31.5277 635.843 32.2105V87.6308C635.843 88.4274 635.274 88.9964 634.591 88.9964H626.056C625.259 88.9964 624.69 88.4274 624.69 87.6308Z" fill="#002C3C"/>
<path d="M603.114 30.9609H611.535C612.218 30.9609 612.787 31.5299 612.787 32.2127V76.3669C612.787 83.8777 605.845 89.3401 598.221 89.3401H588.775C581.264 89.3401 574.664 83.8777 574.664 76.3669V32.2127C574.664 31.5299 575.233 30.9609 576.03 30.9609H584.565C585.247 30.9609 585.816 31.5299 585.816 32.2127V73.8633C585.816 76.9359 587.979 79.0981 591.051 79.0981H595.945C599.359 79.0981 601.748 76.7083 601.748 73.2943V32.2127C601.748 31.5299 602.317 30.9609 603.114 30.9609Z" fill="#002C3C"/>
<path d="M556.154 30.9586H561.73C562.413 30.9586 562.982 31.5276 562.982 32.2104V108.228C562.982 108.911 562.413 109.48 561.73 109.48H553.309C552.626 109.48 552.057 108.911 552.057 108.228V86.8341C550.009 88.5411 547.392 89.3377 544.433 89.3377H538.288C530.322 89.3377 524.859 83.8753 524.859 76.0232V43.9317C524.859 36.0796 530.322 30.6172 538.288 30.6172H545.229C549.099 30.6172 552.285 31.9828 554.447 34.8278L554.902 32.2104C555.016 31.5276 555.471 30.9586 556.154 30.9586ZM551.944 73.292V46.4353C551.944 43.0213 549.554 40.6315 546.14 40.6315H541.246C538.174 40.6315 536.012 42.7937 536.012 45.8663V73.861C536.012 76.9336 538.174 79.0958 541.246 79.0958H546.14C549.554 79.0958 551.944 76.706 551.944 73.292Z" fill="#002C3C"/>
<path d="M489.932 30.6172H499.833C507.799 30.6172 513.602 36.421 513.602 44.3869V87.6307C513.602 88.4273 513.033 88.9963 512.237 88.9963H506.775C505.978 88.9963 505.637 88.4273 505.523 87.6307L505.068 84.2167C503.361 87.2893 500.174 89.3377 496.191 89.3377H488.225C480.259 89.3377 474.797 83.8753 474.797 76.0232V66.8054C474.797 58.9533 480.259 53.4909 488.225 53.4909H495.622C498.467 53.4909 500.857 54.2875 502.678 55.8807V45.8663C502.678 42.7937 500.516 40.6315 497.443 40.6315H491.753C488.567 40.6315 486.518 42.6799 486.518 45.8663V46.5491C486.518 47.3457 485.949 47.9147 485.266 47.9147H477.414C476.618 47.9147 476.049 47.3457 476.049 46.5491V44.3869C476.049 36.421 481.966 30.6172 489.932 30.6172ZM502.564 73.1782V68.6262C502.564 65.326 500.174 63.05 496.874 63.05H491.184C487.998 63.05 485.722 65.326 485.722 68.3986V73.4058C485.722 76.5922 487.998 78.8682 491.184 78.8682H496.988C500.288 78.8682 502.564 76.5922 502.564 73.1782Z" fill="#002C3C"/>
<path d="M420.565 30.6172H430.466C438.432 30.6172 444.235 36.421 444.235 44.3869V87.6307C444.235 88.4273 443.666 88.9963 442.87 88.9963H437.407C436.611 88.9963 436.269 88.4273 436.156 87.6307L435.7 84.2167C433.993 87.2893 430.807 89.3377 426.824 89.3377H418.858C410.892 89.3377 405.43 83.8753 405.43 76.0232V66.8054C405.43 58.9533 410.892 53.4909 418.858 53.4909H426.255C429.1 53.4909 431.49 54.2875 433.311 55.8807V45.8663C433.311 42.7937 431.148 40.6315 428.076 40.6315H422.386C419.199 40.6315 417.151 42.6799 417.151 45.8663V46.5491C417.151 47.3457 416.582 47.9147 415.899 47.9147H408.047C407.25 47.9147 406.681 47.3457 406.681 46.5491V44.3869C406.681 36.421 412.599 30.6172 420.565 30.6172ZM433.197 73.1782V68.6262C433.197 65.326 430.807 63.05 427.507 63.05H421.817C418.63 63.05 416.354 65.326 416.354 68.3986V73.4058C416.354 76.5922 418.63 78.8682 421.817 78.8682H427.621C430.921 78.8682 433.197 76.5922 433.197 73.1782Z" fill="#002C3C"/>
<path d="M392.83 23.6768L398.52 28.3426C399.317 28.9116 399.431 30.0496 398.748 30.8462L393.399 37.219C394.651 39.3811 395.334 41.9985 395.334 44.8435V59.6375C395.334 67.9448 389.416 73.8624 381.109 73.8624H373.143L370.867 79.211H376.671C386.344 79.211 396.472 78.642 396.472 94.0049C396.472 104.588 392.489 109.937 375.988 109.937C360.966 109.937 357.439 103.792 357.325 94.6877C357.325 93.6635 358.121 92.9807 359.032 92.9807H365.746C366.656 92.9807 367.453 93.6635 367.567 94.6877C367.794 98.2155 369.501 99.9225 376.443 99.9225C383.84 99.9225 385.547 98.5569 385.547 94.6877C385.547 89.4529 382.474 89.4529 376.215 89.4529H365.518C364.835 89.4529 364.266 88.9977 364.039 88.3149L361.308 79.78C361.194 79.4386 361.308 79.0972 361.422 78.7558L364.494 72.2692C359.942 69.9932 357.211 65.4412 357.211 59.6375V44.8435C357.211 36.4224 363.015 30.6186 371.436 30.6186H381.109C382.816 30.6186 384.523 30.8462 386.002 31.4152L390.327 23.9044C390.782 23.2216 392.147 23.1078 392.83 23.6768ZM384.409 58.3857V45.8677C384.409 42.7951 382.133 40.6329 379.174 40.6329H373.37C370.298 40.6329 368.136 42.7951 368.136 45.8677V58.3857C368.136 61.4582 370.298 63.6204 373.37 63.6204H379.174C382.133 63.6204 384.409 61.4582 384.409 58.3857Z" fill="#002C3C"/>
<path d="M342.169 30.6172H349.907C350.59 30.6172 351.159 31.1862 351.159 31.869V39.7211C351.159 40.5177 350.59 41.0867 349.907 41.0867H341.486C338.072 41.0867 335.796 43.3627 335.796 46.6629V87.6307C335.796 88.4273 335.341 88.9963 334.545 88.9963H326.123C325.327 88.9963 324.758 88.4273 324.758 87.6307V32.2104C324.758 31.5276 325.327 30.9586 326.123 30.9586H331.586C332.382 30.9586 332.838 31.5276 332.951 32.2104L333.407 34.9416C335.455 31.9828 338.528 30.6172 342.169 30.6172Z" fill="#002C3C"/>
<path d="M289.385 30.6172H299.286C307.252 30.6172 313.056 36.421 313.056 44.3869V87.6307C313.056 88.4273 312.487 88.9963 311.69 88.9963H306.228C305.431 88.9963 305.09 88.4273 304.976 87.6307L304.521 84.2167C302.814 87.2893 299.627 89.3377 295.644 89.3377H287.678C279.712 89.3377 274.25 83.8753 274.25 76.0232V66.8054C274.25 58.9533 279.712 53.4909 287.678 53.4909H295.075C297.92 53.4909 300.31 54.2875 302.131 55.8807V45.8663C302.131 42.7937 299.969 40.6315 296.896 40.6315H291.206C288.02 40.6315 285.971 42.6799 285.971 45.8663V46.5491C285.971 47.3457 285.402 47.9147 284.72 47.9147H276.867C276.071 47.9147 275.502 47.3457 275.502 46.5491V44.3869C275.502 36.421 281.419 30.6172 289.385 30.6172ZM302.017 73.1782V68.6262C302.017 65.326 299.627 63.05 296.327 63.05H290.637C287.451 63.05 285.175 65.326 285.175 68.3986V73.4058C285.175 76.5922 287.451 78.8682 290.637 78.8682H296.441C299.741 78.8682 302.017 76.5922 302.017 73.1782Z" fill="#002C3C"/>
<path d="M251.694 89.3377H243.045C234.624 89.3377 228.82 83.4201 228.82 75.1128V44.8421C228.82 36.421 234.624 30.6172 243.045 30.6172H251.694C260.001 30.6172 265.919 36.421 265.919 44.8421V48.8251C265.919 49.6217 265.35 50.0769 264.553 50.0769H256.36C255.677 50.0769 255.108 49.6217 255.108 48.8251V45.8663C255.108 42.7937 252.946 40.6315 249.873 40.6315H244.98C241.907 40.6315 239.745 42.7937 239.745 45.8663V73.861C239.745 76.9336 241.907 79.0958 244.98 79.0958H249.873C252.946 79.0958 255.108 76.9336 255.108 73.861V70.7884C255.108 69.9918 255.677 69.4228 256.36 69.4228H264.553C265.35 69.4228 265.919 69.9918 265.919 70.7884V75.1128C265.919 83.4201 260.001 89.3377 251.694 89.3377Z" fill="#002C3C"/>
<path d="M216.73 48.4837H208.878C208.081 48.4837 207.512 47.9147 207.512 47.1181V45.5249C207.512 42.6799 205.464 40.6315 202.619 40.6315H196.36C193.515 40.6315 191.466 42.6799 191.466 45.5249V49.2803C191.466 52.1253 193.401 54.0599 196.132 54.0599H205.464C213.657 54.0599 219.006 59.2946 219.006 67.4882V75.568C219.006 83.6477 213.316 89.3377 205.236 89.3377H195.108C186.687 89.3377 180.997 83.6477 180.997 75.2266V71.6988C180.997 70.9022 181.452 70.3332 182.248 70.3332H190.556C191.352 70.3332 191.921 70.9022 191.921 71.6988V74.2024C191.921 77.0474 193.97 79.0958 196.815 79.0958H203.074C205.919 79.0958 207.967 77.0474 207.967 74.2024V69.309C207.967 66.5778 206.033 64.6432 203.301 64.6432H194.425C186.231 64.6432 180.883 59.2947 180.883 51.1011V44.7283C180.883 36.3072 186.573 30.6172 195.108 30.6172H203.87C212.405 30.6172 218.095 36.3072 218.095 44.7283V47.1181C218.095 47.9147 217.526 48.4837 216.73 48.4837Z" fill="#002C3C"/>
<path d="M169.972 65.0984H144.253V73.7472C144.253 76.9336 146.415 78.982 149.488 78.982H155.405C158.478 78.982 160.64 76.9336 160.64 73.7472V72.4954C160.64 71.6988 161.095 71.1298 161.892 71.1298H169.972C170.768 71.1298 171.337 71.6988 171.337 72.4954V75.1128C171.337 83.4201 165.42 89.2239 157.112 89.2239H147.553C139.132 89.2239 133.328 83.4201 133.328 75.1128V44.8421C133.328 36.421 139.132 30.6172 147.553 30.6172H157.112C165.42 30.6172 171.337 36.421 171.337 44.8421V63.7328C171.337 64.5294 170.768 65.0984 169.972 65.0984ZM155.405 40.6315H149.488C146.415 40.6315 144.253 42.7937 144.253 45.8663V55.3117H160.64V45.8663C160.64 42.7937 158.478 40.6315 155.405 40.6315Z" fill="#002C3C"/>
<path d="M112.2 9.34375H120.621C121.304 9.34375 121.873 9.91275 121.873 10.5955V87.6378C121.873 88.4344 121.304 89.0034 120.621 89.0034H115.045C114.362 89.0034 113.907 88.4344 113.793 87.6378L113.224 83.8824C111.517 87.1826 108.558 89.3448 104.12 89.3448H97.1783C89.2124 89.3448 83.75 83.8824 83.75 76.0302V43.9388C83.75 36.0866 89.2124 30.6243 97.1783 30.6243H103.324C106.282 30.6243 108.9 31.4208 110.948 33.1278V10.5955C110.948 9.91275 111.517 9.34375 112.2 9.34375ZM110.834 73.4128V46.3286C110.834 43.0284 108.445 40.5248 105.031 40.5248H100.137C97.0645 40.5248 94.9023 42.8008 94.9023 45.8734V73.9818C94.9023 77.0544 97.0645 79.2166 100.137 79.2166H105.031C108.445 79.2166 110.834 76.8268 110.834 73.4128Z" fill="#002C3C"/>
</svg>
