<?xml version="1.0" encoding="utf-8"?>
<!-- Generator: Adobe Illustrator 25.4.1, SVG Export Plug-In . SVG Version: 6.00 Build 0)  -->
<svg version="1.1" id="Layer_1" xmlns="http://www.w3.org/2000/svg" xmlns:xlink="http://www.w3.org/1999/xlink" x="0px" y="0px"
	 viewBox="0 0 216.9 268.4" style="enable-background:new 0 0 216.9 268.4;" xml:space="preserve">
<style type="text/css">
	.st0{fill:#002C3C;}
</style>
<g>
	<path class="st0" d="M216.9,113.7c-0.5-2.9-3.8-5.3-7.2-7.5l-0.4-0.3c-10.7-7-22.4-12.3-34.7-15.7c-0.7-0.2-1.4-0.5-2-1
		c-4.2-3.6-6.9-8.7-9.5-13.5c-1.5-2.7-3-5.6-4.8-8.1c-6.1-8.7-16.9-14.5-29-15.4c-4.4-0.4-8.8,0-13,1.4c-3.2,1-6.2,2.5-9,4.5
		C103,37.8,92.9,19.7,78,5.3c-0.3-0.3-0.5-0.5-0.8-0.8c-2-2-4.3-4.3-7.5-4.5c-1.9-0.1-5.4,0.5-7.2,5.3c-7.4,19.7-8.4,38.1-3,54.6
		c0.2,0.7,0.5,1.5,0.8,2.3C43,51.8,25.6,36.8,15.1,15.8c-0.6-1.3-1.5-2.4-2.8-3.3c-0.8-0.5-1.8-0.8-2.8-1c-1-0.1-2,0-2.9,0.3
		c-0.9,0.3-1.8,0.8-2.5,1.5c-0.7,0.7-1.3,1.5-1.6,2.3c-0.6,1.2-1,2.5-1.3,3.9c-3,16.3-0.6,31.7,7.2,45.9c0.4,0.8,0.9,1.5,1.3,2.1
		c1,1.6,1.8,2.9,2.2,4.9c4.6,25.3,18.3,46.4,36.9,57.1c-10.8,13.8-17.8,30.2-20.3,47.5c-6,40.5,8.9,71.5,42,87.2
		c0.2,0.1,0.4,0.2,0.6,0.3l0.1,0c1.3,0.6,2.9,1.4,4.6,1.4c0.9,0,1.8-0.2,2.7-0.7c1.6-0.9,2.5-2.7,2.6-4.6c0-0.5,0-1-0.1-1.4
		c6,3.5,12.7,6.5,19.9,8.7c0.7,0.2,1.5,0.3,2.1,0.3c2.8,0,4.8-1.8,5.5-3.9c0.8-2.5-0.3-5.8-4.5-7.1c-8.6-2.7-16.6-6.9-23.8-12.3
		c-9.8-7.1-16.8-17.5-19.6-29.2c-0.2-1.4-0.9-2.7-1.9-3.7l-0.1-0.1c-1.5-1.3-3.7-1.7-5.8-1.2c-1.8,0.5-3.2,1.7-3.8,3.3l0,0.1
		c-0.4,1.4-0.3,2.9,0,4.2c2.7,12.2,9.6,23.2,19.8,32.2c-16.3-9.7-26.2-27.3-27.4-49.3c-1.3-24.9,6.8-49.4,21.9-65.8
		c9,2.5,18.3,3.8,27.7,3.6c12.4-0.2,20.5-5.4,23.2-15.1c1.1-3.9,0.7-7.7-1.3-10.8c-2.4-3.9-7.2-6.7-13.1-7.8
		c-8.7-1.5-16.9,0.3-24,3.3c1-0.9,1.7-2.1,2.1-3.3c0.8-2.9-0.2-6.6-4.4-8c-44-15-57.1-38.6-59.5-57.8c25,32.3,63.1,47.3,84.2,53.6
		c3,0.9,5.3,0.7,7.1-0.5c1.8-1.2,2.9-3.4,3.2-6.6c0.3-3.3,0.5-6.6,0.5-10c4.7-7.8,11.3-11.4,20.2-10.8c5.5,0.3,11.9,2.8,16,6.2
		c1.6,1.3,2.9,2.8,3.9,4.5c2.1,3.8,4.2,7.5,6.3,11.3c-10.9,0.7-18.5,5.9-22.6,15.6c-0.7,1.7-1.9,5.8-3.7,12.6l-0.6,2.4
		c-2.9,11.2-5.4,20.8-11.1,29.1c-6,8.7-17.2,15.9-30.8,19.7l-0.1,0c-5.8,1.6-12.3,3.5-17.2,6.7c-0.3,0.2-0.6,0.5-0.8,0.9
		c-0.2,0.3-0.3,0.6-0.4,1c-0.3,1.6-0.1,3.2,0.5,4.6c0.6,1.5,1.7,2.7,3,3.5c2.5,1.6,4.4,1.3,5.5,0.8c4.1-1.9,8.5-3.1,12.7-4.4
		c3.3-1,6.8-2,10-3.3c5.6-2.1,11.1-4.9,16.1-8.2c18-12.2,23.5-31.4,27.9-51.7c3-13.9,10.1-18.9,23-16.2c14.1,3,27.6,9.2,39,18.1
		c2,1.5,6,2.1,8.7,0.5C216.4,118,217.3,116,216.9,113.7z M72.7,67.2c2.1-2.1,2.5-5.1,1.2-8c-6.1-12.8-4.9-28.7-1.6-40.4
		c15.7,17.3,23.9,38.3,23.3,59.7c-7-2.4-15.4-5.7-24.3-10.3C71.8,68,72.3,67.6,72.7,67.2z M75,125.6c6.8-4.5,14.1-7.1,21.6-7.8
		c1.4-0.1,2.7,0,4,0.2c-1.2,4.6-4.1,7.1-8.9,7.8C86.2,126.6,80.5,126.6,75,125.6z M42.3,109.3c-4.4-5.6-8-11.7-10.8-18.1
		c8.1,5.9,17.3,10.9,29.4,16c2.9,1.3,5.9,2.4,9.1,3.3c0.8,0.2,1.6,0.2,2.4,0.1c-6.6,3.4-12,7.6-15.2,10.5
		C51.3,118.8,45.5,113.4,42.3,109.3z"/>
	<path class="st0" d="M133.7,86.3c0.5,0.1,1,0.2,1.5,0.2c0.9,0,1.8-0.2,2.6-0.6c1.3-0.6,2.3-1.6,3-2.9c0.8-1.7,0.9-3.7,0.2-5.7
		c-0.6-1.8-1.9-3.2-3.4-3.9c-1.6-0.7-3.4-1-5.2-0.8c-2.9,0.2-4.8,1.9-5,4.5C127.2,80.8,130.4,85.6,133.7,86.3z"/>
	<path class="st0" d="M72.9,192.2c-3-0.7-6.7,0.4-7.5,3.8c-3.3,13.6-1.1,26.1,6.5,37.3c6.7,9.9,15.1,15.6,26.4,21.7
		c1.4,0.8,3,1.5,4.7,1.5c1.2,0,2.5-0.3,3.7-1.3c0.4-0.3,0.7-0.7,0.8-1.1c1.3-3.6,0.2-6.5-3-8.1c-27.7-13.4-29.9-32.9-26.8-46.9
		C78.5,195.9,76.5,193,72.9,192.2z"/>
</g>
</svg>
