<svg width="217" height="269" viewBox="0 0 217 269" fill="none" xmlns="http://www.w3.org/2000/svg">
<path d="M78.0222 264.535L78.0192 264.536C76.6842 265.327 75.3265 265.229 74.1326 264.866C73.2691 264.603 72.3825 264.161 71.607 263.774C71.3652 263.654 71.1343 263.539 70.9182 263.436C53.5912 255.237 41.8068 243.118 35.0666 228.305C28.3329 213.506 26.6648 196.09 29.4348 177.324C31.9372 159.742 39.1394 143.167 50.2738 129.346C29.6539 118.059 17.0752 95.6333 12.8627 72.3498C12.5963 70.8825 12.1025 69.76 11.4852 68.6653C11.1975 68.1552 10.8869 67.6576 10.5527 67.1222C10.5222 67.0733 10.4914 67.0241 10.4605 66.9745C10.095 66.3885 9.70731 65.7615 9.32575 65.0681L9.32506 65.0669C1.61834 51.0138 -0.736416 35.914 2.25573 19.8091L2.25661 19.8044L2.25662 19.8044C2.49844 18.5369 2.90253 17.3058 3.45889 16.1416C3.7712 15.3778 4.24422 14.6901 4.8459 14.1252C5.45582 13.5525 6.18331 13.1198 6.97767 12.8571C7.77202 12.5945 8.61411 12.5083 9.4452 12.6045C10.2763 12.7008 11.0764 12.9771 11.7897 13.4143L11.803 13.4225L11.816 13.431C12.8677 14.1216 13.6946 15.1041 14.1956 16.2578C24.7311 37.2316 42.489 53.1666 62.5655 64.7661C62.413 64.5063 62.2713 64.2428 62.1394 63.9805C61.4069 62.5245 60.879 60.906 60.4793 59.6806L60.4594 59.6198L78.0222 264.535ZM78.0222 264.535C79.4944 263.655 80.1235 262.034 80.103 260.526C80.0825 259.019 79.4161 257.417 78.0308 256.501L78.0093 256.487M78.0222 264.535L78.0093 256.487M78.0093 256.487L77.9871 256.474M78.0093 256.487L77.9871 256.474M77.9871 256.474C76.5675 255.637 75.0957 254.892 73.5806 254.244C52.9325 244.795 41.6862 224.418 40.4556 201.418C39.1639 177.282 46.6009 151.913 63.0444 134.391M77.9871 256.474L63.0444 134.391M63.0444 134.391C72.1316 137.013 81.5562 138.281 91.0143 138.155M63.0444 134.391L91.0143 138.155M91.0143 138.155C91.0141 138.155 91.0139 138.155 91.0137 138.155L91.0009 137.155L91.0143 138.155ZM134.695 103.794L133.778 103.397C133.778 103.397 133.778 103.397 133.778 103.396C135.958 98.3549 139.128 94.5381 143.306 92.0087C147.15 89.6817 151.785 88.4816 157.168 88.36C154.801 84.1327 152.455 79.9089 150.13 75.6886C149.041 73.8338 147.616 72.1975 145.928 70.863L145.919 70.8557L145.91 70.8482C141.521 67.2058 134.867 64.8218 129.388 64.4799L129.387 64.4799C124.711 64.1855 120.64 65.0057 117.135 66.9007C113.628 68.7967 110.627 71.8024 108.147 75.9755L108.141 75.9866L108.137 75.9919L108.138 75.9962L108.138 76.0071C108.168 79.3914 108.005 82.7747 107.649 86.1404L107.649 86.1406C107.363 88.8454 106.536 90.9111 104.876 92.0278C103.214 93.146 101.035 93.0984 98.5783 92.3728C66.5661 82.9386 33.3208 64.5542 12.753 36.3377C14.855 70.0861 44.8137 88.8731 73.244 98.5401C74.9744 99.1284 76.1338 100.202 76.7264 101.518C77.3104 102.816 77.303 104.257 76.8846 105.535C76.0548 108.071 73.4799 110.238 70.1391 109.474L70.1161 109.468L70.0932 109.462C67.0743 108.619 64.1232 107.55 61.2649 106.263C49.6654 101.381 39.1715 95.9967 29.1923 88.2187C32.1437 96.0474 36.2867 103.38 41.4799 109.956C45.3142 114.777 51.4367 120.169 57.2677 122.216L119.054 148.195M134.695 103.794C134.02 105.351 132.815 109.441 131.081 116.065C130.872 116.863 130.666 117.656 130.461 118.442C127.548 129.656 124.963 139.606 119.054 148.195M134.695 103.794C138.815 94.2669 146.491 89.4526 157.723 89.3513L134.695 103.794ZM119.054 148.195L118.23 147.628C111.262 157.761 98.628 164.419 86.8548 167.724L86.8539 167.725M119.054 148.195L86.8539 167.725M86.8539 167.725L86.7565 167.752C81.1231 169.34 74.5618 171.189 69.7238 174.358C69.5176 174.491 69.3434 174.668 69.2136 174.876C69.0914 175.072 69.0111 175.292 68.9781 175.52C68.7102 176.884 68.8647 178.297 69.4214 179.571C69.9802 180.85 70.9173 181.927 72.1065 182.657C73.6166 183.654 75.1886 184.048 76.6558 183.377L76.24 182.467L76.6536 183.378C80.3074 181.718 84.1239 180.524 87.9891 179.379C88.4959 179.228 89.0038 179.079 89.5123 178.929C92.8609 177.944 96.2361 176.95 99.4842 175.687C105.07 173.599 110.406 170.894 115.392 167.624L115.398 167.62M86.8539 167.725L115.398 167.62M115.398 167.62L115.404 167.616M115.398 167.62L115.404 167.616M115.404 167.616C133.263 155.529 138.532 136.52 142.877 116.522L142.877 116.521M115.404 167.616L142.877 116.521M142.877 116.521C144.427 109.369 147.06 104.454 150.908 101.665C154.732 98.8923 159.962 98.0736 167.054 99.5726L167.055 99.573M142.877 116.521L167.055 99.573M167.055 99.573C181.415 102.583 194.898 108.829 206.479 117.836L206.483 117.839L167.055 99.573ZM174.32 91.1855L174.327 91.1877C186.537 94.5497 198.145 99.8054 208.726 106.763C208.849 106.844 208.983 106.931 209.128 107.025C210.093 107.652 211.503 108.568 212.765 109.6C213.492 110.195 214.2 110.852 214.76 111.542C215.311 112.22 215.783 113.008 215.923 113.862L174.32 91.1855ZM174.32 91.1855L174.312 91.1835M174.32 91.1855L174.312 91.1835M174.312 91.1835C173.43 90.956 172.613 90.5299 171.921 89.9378C168.61 87.0429 166.239 83.3949 164.072 79.5382C163.457 78.4425 162.854 77.322 162.25 76.1978C160.753 73.4153 159.245 70.6104 157.499 68.103C151.113 58.9222 139.876 53.942 129.229 53.0958C124.999 52.6882 120.73 53.1418 116.68 54.4295C113.072 55.5769 109.704 57.3651 106.736 59.7048C102.625 39.2591 92.3777 20.5395 77.3454 6.0527C77.0862 5.79926 76.8176 5.52816 76.5408 5.24892C75.757 4.45803 74.9085 3.60178 74.027 2.8962C72.8109 1.92271 71.3824 1.10349 69.6798 1.00992L69.6779 1.00982M174.312 91.1835L69.6779 1.00982M69.6779 1.00982C68.2534 0.93414 66.9701 1.29608 65.8905 2.1324M69.6779 1.00982L65.8905 2.1324M65.8905 2.1324C64.829 2.95471 64.0388 4.17737 63.468 5.70138L65.8905 2.1324ZM96.5747 79.9522C87.2082 76.8105 77.7737 72.8934 68.697 68.1396C69.9496 67.9719 71.1021 67.3982 71.9814 66.5357C73.6312 64.9174 74.2801 62.3296 73.0087 59.6402L73.0084 59.6396C66.9971 46.9459 67.6149 30.2984 71.8304 16.8529C87.8232 33.9228 97.6029 55.8753 96.5747 79.9522ZM107.138 76.0161C107.132 75.8215 107.184 75.6295 107.288 75.4647C112.396 66.8674 119.783 62.8731 129.45 63.4819C135.117 63.8355 141.98 66.2866 146.549 70.0787L107.138 76.0161ZM96.5197 116.857L96.5231 116.857C98.1956 116.713 99.8802 116.842 101.511 117.238C101.599 117.264 101.674 117.322 101.721 117.401C101.77 117.482 101.785 117.579 101.763 117.671L101.761 117.679C101.134 120.433 99.9957 122.519 98.3928 124.009C96.7911 125.498 94.6545 126.458 91.9158 126.839L91.9137 126.84C85.44 127.755 78.8604 127.52 72.4773 126.15C79.6414 120.951 87.7581 117.577 96.5197 116.857ZM63.4678 5.70194C56.8562 23.3241 54.5967 41.6966 60.4592 59.619L63.4678 5.70194Z" fill="#002C3C" stroke="#002C3C" stroke-width="2"/>
<path d="M140.369 82.7677L140.373 82.7584L140.378 82.7491C141.173 81.1525 141.15 79.2613 140.625 77.6508C140.104 76.049 139.028 74.5491 137.501 73.8515L137.492 73.8473L137.482 73.8433C135.92 73.1669 134.229 72.8905 132.545 73.0391C130.58 73.1676 129.196 73.9777 128.496 75.331C127.833 76.6146 127.906 78.1631 128.3 79.5581C128.699 80.9739 129.468 82.3837 130.412 83.5064C131.336 84.6049 132.526 85.5427 133.824 85.8299C135.086 86.1479 136.409 86.0172 137.591 85.4613C138.777 84.9035 139.747 83.9531 140.369 82.7677Z" fill="#002C3C" stroke="#002C3C" stroke-width="2"/>
<path d="M72.2841 232.989L72.2842 232.989L98.9976 253.7L98.5212 254.58C98.5213 254.58 98.5215 254.58 98.5216 254.58C99.7436 255.242 101.024 255.808 102.356 255.952C103.734 256.101 105.104 255.793 106.465 254.832L106.465 254.832L106.471 254.827C106.78 254.605 107.013 254.293 107.137 253.935C107.693 252.343 107.816 250.845 107.338 249.522C106.853 248.18 105.811 247.187 104.385 246.498C95.0666 241.994 87.0209 235.996 81.9435 228.22C76.8857 220.474 74.7232 210.889 77.2795 199.07C77.6572 197.331 77.219 195.837 76.2866 194.714C75.3785 193.621 74.0512 192.935 72.6955 192.64C71.3397 192.345 69.8596 192.419 68.5966 192.959C67.3093 193.51 66.2426 194.555 65.8582 196.129C62.5628 209.586 64.7006 221.899 72.2841 232.989Z" fill="#002C3C" stroke="#002C3C" stroke-width="2"/>
<path d="M58.3526 212.519L58.3183 212.482L58.2804 212.449C57.0181 211.346 55.1684 210.964 53.5264 211.23C51.8677 211.498 50.2038 212.47 49.5388 214.322L49.5235 214.364L49.5122 214.408C49.1699 215.724 49.1843 217.106 49.5536 218.414C55.1796 244.228 78.4691 260.55 101.064 267.568L101.064 267.568C104.39 268.6 107.146 266.906 108 264.471C108.424 263.261 108.367 261.883 107.674 260.648C106.982 259.412 105.71 258.414 103.876 257.831C95.26 255.076 87.1618 250.909 79.9119 245.499L79.906 245.495L79.9001 245.491C69.9895 238.32 62.9627 227.849 60.0826 215.961C59.8487 214.672 59.2482 213.477 58.3526 212.519Z" fill="#002C3C" stroke="#002C3C" stroke-width="2"/>
</svg>
