<svg xmlns="http://www.w3.org/2000/svg" xmlns:xlink="http://www.w3.org/1999/xlink" viewBox="0 0 428.60098 396.9794">
  <defs>
    <style>
      .e715c0a1-608d-4b86-89ab-67e2c6a4db47 {
        fill: none;
      }

      .a6c2aeaf-dc24-44bd-8922-617a093b0de1 {
        clip-path: url(#a71aab96-9157-4e2f-9db9-b25e0d1d5b52);
      }

      .f2cbfdaf-349f-4e33-ba1d-64c0ab106db7 {
        fill: #fff;
      }

      .e58f0203-eb57-4c7d-b6c0-6cf82be84d4c {
        fill: #231f20;
      }

      .b0f3530f-6440-46a4-a790-85953debff0f {
        opacity: 0.5;
      }

      .b2e4d791-a607-45ca-af0c-ac1f3b6c3c3e {
        clip-path: url(#acc3d1b2-9245-499b-92ac-ca9632bac2bf);
      }
    </style>
    <clipPath id="a71aab96-9157-4e2f-9db9-b25e0d1d5b52" transform="translate(0 0.0004)">
      <rect class="e715c0a1-608d-4b86-89ab-67e2c6a4db47" width="428.60001" height="396.979"/>
    </clipPath>
    <clipPath id="acc3d1b2-9245-499b-92ac-ca9632bac2bf" transform="translate(0 0.0004)">
      <rect class="e715c0a1-608d-4b86-89ab-67e2c6a4db47" x="266.65302" y="211.386" width="64.18799" height="23.489"/>
    </clipPath>
  </defs>
  <g id="a2676136-029c-4727-adee-d774639b8258" data-name="Layer 2">
    <g id="be175614-cb60-4ee9-add1-b48dba41372a" data-name="Layer 1">
      <g class="a6c2aeaf-dc24-44bd-8922-617a093b0de1">
        <g class="a6c2aeaf-dc24-44bd-8922-617a093b0de1">
          <path class="f2cbfdaf-349f-4e33-ba1d-64c0ab106db7" d="M54.04-.0004H374.561a54.14012,54.14012,0,0,1,54.04,54.238v246.55a18.04528,18.04528,0,0,1-18.015,18.076H18.014A18.04443,18.04443,0,0,1,0,300.7876v-246.55A54.13947,54.13947,0,0,1,54.04-.0004" transform="translate(0 0.0004)"/>
          <path class="e58f0203-eb57-4c7d-b6c0-6cf82be84d4c" d="M175.002,258.0273a16.31917,16.31917,0,0,0,10.604-4.477,16.22265,16.22265,0,0,0,.839-22.062l-.332-.151-.428.412v.119c1.97,5.072.825,10.158-2.639,11.51-2.43.944-5.389-.197-7.71-2.665h-.637l-.046.564.046.045a11.47594,11.47594,0,0,1,3.038,8.025,11.09965,11.09965,0,0,1-3.038,7.962l-.142.306Z" transform="translate(0 0.0004)"/>
          <path class="e58f0203-eb57-4c7d-b6c0-6cf82be84d4c" d="M142.4277,256.62691c-.353-.489-.829-1.205-1.402-2.178a31.27893,31.27893,0,0,0-2.145-3.228l-1.573-1.446a4.89982,4.89982,0,0,0,2.255-1.631,4.53345,4.53345,0,0,0,.728-2.558,4.38252,4.38252,0,0,0-1.474-3.472,6.44275,6.44275,0,0,0-4.179-1.262h-4.183v17.005h2.607v-7.414h.176a3.39882,3.39882,0,0,1,1.667.276l1.115.897a10.6513,10.6513,0,0,1,1.351,1.66l.793,1.324.747,1.248.445.685.157.198.719,1.126h3.068Zm-6.125-8.878a6.8995,6.8995,0,0,1-2.429.291h-.828v-4.904h.653a8.52357,8.52357,0,0,1,2.448.245l1.083.836.377,1.326-.347,1.324Z" transform="translate(0 0.0004)"/>
        </g>
        <polygon class="e58f0203-eb57-4c7d-b6c0-6cf82be84d4c" points="145.494 240.805 154.39 240.805 154.39 243.193 148.113 243.193 148.113 247.491 154.39 247.491 154.39 249.88 148.113 249.88 148.113 257.824 145.494 257.824 145.494 240.805"/>
        <g class="a6c2aeaf-dc24-44bd-8922-617a093b0de1">
          <path class="e58f0203-eb57-4c7d-b6c0-6cf82be84d4c" d="M125.1066,243.08891a8.9131,8.9131,0,0,0-6.452-2.493,8.74244,8.74244,0,0,0-6.406,2.493,8.512,8.512,0,0,0-2.547,6.305,8.26014,8.26014,0,0,0,2.529,6.18,8.61227,8.61227,0,0,0,6.294,2.468,9.15851,9.15851,0,0,0,6.549-2.468,8.81432,8.81432,0,0,0,.033-12.485m-1.924,10.857a5.96953,5.96953,0,0,1-4.483,1.858,5.89175,5.89175,0,0,1-4.448-1.826,6.30782,6.30782,0,0,1-1.782-4.602,6.38166,6.38166,0,0,1,1.782-4.673,6.01686,6.01686,0,0,1,4.527-1.826,5.93515,5.93515,0,0,1,4.419,1.858,6.27867,6.27867,0,0,1,1.797,4.551,6.6316,6.6316,0,0,1-1.812,4.66" transform="translate(0 0.0004)"/>
          <path class="e58f0203-eb57-4c7d-b6c0-6cf82be84d4c" d="M172.1734,243.08891a8.90392,8.90392,0,0,0-6.455-2.493,8.78594,8.78594,0,0,0-6.404,2.493,8.50281,8.50281,0,0,0-2.526,6.305,8.30684,8.30684,0,0,0,2.513,6.18,8.62925,8.62925,0,0,0,6.293,2.468,9.137,9.137,0,0,0,6.549-2.468,8.85176,8.85176,0,0,0,.03-12.485m-1.939,10.857a6.31576,6.31576,0,0,1-8.916.032,6.32012,6.32012,0,0,1-1.777-4.602,6.3942,6.3942,0,0,1,1.777-4.673,6.02352,6.02352,0,0,1,4.53-1.826,5.94361,5.94361,0,0,1,4.42,1.858,6.28345,6.28345,0,0,1,1.793,4.551,6.60456,6.60456,0,0,1-1.827,4.66" transform="translate(0 0.0004)"/>
          <path class="e58f0203-eb57-4c7d-b6c0-6cf82be84d4c" d="M107.2764,253.94591a7.91928,7.91928,0,0,1-10.155.032,5.92651,5.92651,0,0,1-2.019-4.584,6.0541,6.0541,0,0,1,2.019-4.691,7.39717,7.39717,0,0,1,5.148-1.84,7.19494,7.19494,0,0,1,5.021,1.858l.03.046v-2.773a14.84245,14.84245,0,0,0-5.83-1.398,8.86339,8.86339,0,0,0-6.42,2.525,8.37455,8.37455,0,0,0-2.593,6.255,8.65518,8.65518,0,0,0,1.146,4.344,8.347,8.347,0,0,0,3.081,3.149,9.28729,9.28729,0,0,0,4.753,1.14,12.30726,12.30726,0,0,0,6.07-1.459v-2.83l-.016.014Z" transform="translate(0 0.0004)"/>
          <path class="e58f0203-eb57-4c7d-b6c0-6cf82be84d4c" d="M183.6787,237.0013a3.12888,3.12888,0,0,0-2.287-.896,3.07022,3.07022,0,0,0-2.274.896,3.012,3.012,0,0,0-.906,2.238,2.97284,2.97284,0,0,0,.906,2.21,3.06288,3.06288,0,0,0,2.239.864,3.30921,3.30921,0,0,0,2.341-.864,2.93506,2.93506,0,0,0,.918-2.21,3.02675,3.02675,0,0,0-.937-2.238" transform="translate(0 0.0004)"/>
          <path class="e58f0203-eb57-4c7d-b6c0-6cf82be84d4c" d="M229.29691,257.1689a10.09773,10.09773,0,0,1-5.754-1.797l1.307-2.572a7.78529,7.78529,0,0,0,4.496,1.628c1.617,0,2.715-.961,2.715-2.224,0-3.575-8.137-1.797-8.137-7.747,0-2.561,2.082-4.663,6.216-4.663a11.50292,11.50292,0,0,1,5.227,1.145l-1.146,2.632a8.79405,8.79405,0,0,0-4.145-.929c-1.591,0-2.639.506-2.639,1.75,0,3.032,8.185,1.859,8.185,7.601.015,2.68-2.304,5.176-6.325,5.176" transform="translate(0 0.0004)"/>
        </g>
        <polygon class="e58f0203-eb57-4c7d-b6c0-6cf82be84d4c" points="238.438 256.912 238.438 240.057 249.258 240.057 249.258 242.83 241.849 242.83 241.849 246.969 247.51 246.969 247.253 249.878 241.849 249.878 241.849 254.2 249.258 254.2 249.258 256.912 238.438 256.912"/>
        <g class="a6c2aeaf-dc24-44bd-8922-617a093b0de1">
          <path class="e58f0203-eb57-4c7d-b6c0-6cf82be84d4c" d="M255.44518,256.91121h-3.384v-16.851h5.653c3.484,0,6.296,1.55,6.296,5.051a5.24221,5.24221,0,0,1-3.337,4.856c1.223,2.346,2.511,4.598,3.735,6.944h-4.024l-2.89-6.363c-.778.014-1.303.014-2.036.014v6.349Zm1.715-14.311h-1.715v5.406h1.715c2.24,0,3.198-.99,3.198-2.91,0-1.872-1.131-2.496-3.198-2.496" transform="translate(0 0.0004)"/>
          <path class="e58f0203-eb57-4c7d-b6c0-6cf82be84d4c" d="M273.1582,257.1689c-4.961,0-7.629-3.153-7.629-8.77,0-5.251,2.654-8.605,7.629-8.605a11.59474,11.59474,0,0,1,6.006,1.417l-1.303,2.651a7.638,7.638,0,0,0-4.336-1.173c-2.93,0-4.388,1.98-4.388,5.696,0,3.881,1.458,5.889,4.324,5.889a8.49228,8.49228,0,0,0,4.653-1.539l1.099,2.637a10.81618,10.81618,0,0,1-6.055,1.797" transform="translate(0 0.0004)"/>
          <path class="e58f0203-eb57-4c7d-b6c0-6cf82be84d4c" d="M288.1152,257.16891c-5.82,0-7.5-4.236-7.5-8.831,0-4.415,1.601-8.54,7.5-8.54,5.976,0,7.548,4.079,7.548,8.54-.014,4.523-1.73,8.831-7.548,8.831m0-14.555c-3.085,0-3.896,2.679-3.896,5.692,0,3.35.78,6.108,3.896,6.108,3.021,0,3.908-2.712,3.908-6.108,0-3.06-.822-5.692-3.908-5.692" transform="translate(0 0.0004)"/>
        </g>
        <polygon class="e58f0203-eb57-4c7d-b6c0-6cf82be84d4c" points="303.571 242.83 303.571 256.912 300.028 256.912 300.028 242.83 295.772 242.83 295.772 240.061 307.96 240.061 307.96 242.83 303.571 242.83"/>
        <polygon class="e58f0203-eb57-4c7d-b6c0-6cf82be84d4c" points="310.069 256.912 310.069 240.057 320.896 240.057 320.896 242.83 313.469 242.83 313.469 246.969 319.146 246.969 318.893 249.878 313.469 249.878 313.469 254.2 320.896 254.2 320.896 256.912 310.069 256.912"/>
        <g class="a6c2aeaf-dc24-44bd-8922-617a093b0de1">
          <path class="e58f0203-eb57-4c7d-b6c0-6cf82be84d4c" d="M330.0928,257.1689c-4.957,0-7.613-3.153-7.613-8.77,0-5.251,2.636-8.605,7.613-8.605a11.55148,11.55148,0,0,1,6.006,1.417l-1.303,2.651a7.63552,7.63552,0,0,0-4.336-1.173c-2.925,0-4.388,1.98-4.388,5.696,0,3.881,1.463,5.889,4.325,5.889a8.5038,8.5038,0,0,0,4.654-1.539l1.098,2.637a10.74055,10.74055,0,0,1-6.056,1.797" transform="translate(0 0.0004)"/>
          <g class="b0f3530f-6440-46a4-a790-85953debff0f">
            <g class="b2e4d791-a607-45ca-af0c-ac1f3b6c3c3e">
              <rect class="e58f0203-eb57-4c7d-b6c0-6cf82be84d4c" x="275.65302" y="218.3864" width="46.18799" height="15.489"/>
            </g>
          </g>
        </g>
        <rect class="e58f0203-eb57-4c7d-b6c0-6cf82be84d4c" x="238.27602" y="218.3894" width="37.52299" height="15.485"/>
        <rect class="e58f0203-eb57-4c7d-b6c0-6cf82be84d4c" x="275.65601" y="262.44341" width="46.18701" height="4.698"/>
        <rect class="e58f0203-eb57-4c7d-b6c0-6cf82be84d4c" x="238.27499" y="262.4424" width="37.54099" height="4.703"/>
        <rect class="e58f0203-eb57-4c7d-b6c0-6cf82be84d4c" x="196.56" y="193.9874" width="186.194" height="2.769"/>
        <rect class="e58f0203-eb57-4c7d-b6c0-6cf82be84d4c" x="45.846" y="193.9874" width="151.29401" height="2.769"/>
        <polygon class="e58f0203-eb57-4c7d-b6c0-6cf82be84d4c" points="166.873 131.015 166.873 98.464 184.994 98.464 184.994 102.227 171.769 102.227 171.769 112.349 183.849 112.349 183.849 116.019 171.769 116.019 171.769 131.033 166.873 131.033 166.873 131.015"/>
        <g class="a6c2aeaf-dc24-44bd-8922-617a093b0de1">
          <path class="e58f0203-eb57-4c7d-b6c0-6cf82be84d4c" d="M191.8447,114.7428a12.70122,12.70122,0,0,0,3.452,9.229,11.41348,11.41348,0,0,0,8.548,3.576,12.91218,12.91218,0,0,0,5.943-1.402c4.212-2.192,6.324-5.998,6.324-11.388a13.59115,13.59115,0,0,0-2.27-7.87,11.24429,11.24429,0,0,0-6.849-4.569,12.98369,12.98369,0,0,0-3.211-.41,11.10612,11.10612,0,0,0-8.459,3.576,12.80046,12.80046,0,0,0-3.478,9.258m-4.959,0a16.00507,16.00507,0,0,1,4.817-12.041,16.84187,16.84187,0,0,1,12.265-4.673,17.5697,17.5697,0,0,1,10.526,3.227,15.00572,15.00572,0,0,1,5.899,8.57,19.8964,19.8964,0,0,1,.712,5.208,15.67349,15.67349,0,0,1-4.862,11.753,18.39987,18.39987,0,0,1-24.54.029,16.12631,16.12631,0,0,1-4.817-12.073" transform="translate(0 0.0004)"/>
          <path class="e58f0203-eb57-4c7d-b6c0-6cf82be84d4c" d="M225.8701,131.01471v-32.551h4.723l10.203,12.834a3.63006,3.63006,0,0,1,.843,2.271,3.42855,3.42855,0,0,1,.793-2.271l10.204-12.834h4.765v32.551h-4.938v-26.492l-.21,1.129-.49.897-10.111,12.622-10.159-12.622-.616-1.446-.095-.595v26.492h-4.912Z" transform="translate(0 0.0004)"/>
        </g>
        <polygon class="e58f0203-eb57-4c7d-b6c0-6cf82be84d4c" points="263.372 131.015 263.372 98.464 282.398 98.464 282.398 102.227 268.28 102.227 268.28 112.621 281.647 112.621 281.647 116.294 268.28 116.294 268.28 127.285 282.825 127.285 282.825 131.047 263.372 131.047 263.372 131.015"/>
        <polygon class="e58f0203-eb57-4c7d-b6c0-6cf82be84d4c" points="287.285 131.015 287.285 98.464 291.81 98.464 312.159 122.475 312.873 123.92 312.968 124.516 312.968 98.464 317.929 98.464 317.929 131.015 313.443 131.015 293.006 106.869 292.241 105.057 292.241 131.015 287.285 131.015"/>
        <polygon class="e58f0203-eb57-4c7d-b6c0-6cf82be84d4c" points="319.873 102.163 319.873 98.465 346.447 98.465 346.447 102.181 335.638 102.181 335.638 131.03 330.724 131.03 330.724 102.163 319.873 102.163"/>
        <g class="a6c2aeaf-dc24-44bd-8922-617a093b0de1">
          <path class="e58f0203-eb57-4c7d-b6c0-6cf82be84d4c" d="M352.24118,114.7428a12.69719,12.69719,0,0,0,3.452,9.229,11.443,11.443,0,0,0,8.548,3.576,12.92639,12.92639,0,0,0,5.945-1.402c4.209-2.192,6.326-5.998,6.326-11.388a13.60015,13.60015,0,0,0-2.273-7.87,11.25221,11.25221,0,0,0-6.85-4.569,12.97957,12.97957,0,0,0-3.212-.41,11.09749,11.09749,0,0,0-8.455,3.576,12.79009,12.79009,0,0,0-3.481,9.258m-4.958,0a16.01543,16.01543,0,0,1,4.816-12.041,16.84648,16.84648,0,0,1,12.269-4.673,17.563,17.563,0,0,1,10.521,3.227,14.99491,14.99491,0,0,1,5.898,8.57,19.81914,19.81914,0,0,1,.715,5.208,15.66863,15.66863,0,0,1-4.865,11.753,18.39723,18.39723,0,0,1-24.538.029,16.1368,16.1368,0,0,1-4.816-12.073" transform="translate(0 0.0004)"/>
        </g>
        <polygon class="e58f0203-eb57-4c7d-b6c0-6cf82be84d4c" points="167.886 178.602 167.886 144.33 176.483 144.33 176.483 172.559 191.648 172.559 191.648 178.602 167.886 178.602"/>
        <g class="a6c2aeaf-dc24-44bd-8922-617a093b0de1">
          <path class="e58f0203-eb57-4c7d-b6c0-6cf82be84d4c" d="M201.68039,161.45171a11.92224,11.92224,0,0,0,1.954,7.02,8.94427,8.94427,0,0,0,5.291,3.636,10.577,10.577,0,0,0,2.641.337,8.93843,8.93843,0,0,0,6.848-2.955,11.5444,11.5444,0,0,0,2.83-8.038,11.39108,11.39108,0,0,0-2.83-8.039,8.903,8.903,0,0,0-6.804-2.952,10.747,10.747,0,0,0-2.685.335,8.99432,8.99432,0,0,0-5.291,3.669,11.94226,11.94226,0,0,0-1.954,6.987m-8.49,0a17.41183,17.41183,0,0,1,3.718-11.191,16.75836,16.75836,0,0,1,9.89-5.997,23.51338,23.51338,0,0,1,4.923-.521,17.77187,17.77187,0,0,1,12.893,4.983,18.301,18.301,0,0,1,0,25.452,17.79542,17.79542,0,0,1-12.893,4.982,23.806,23.806,0,0,1-4.923-.52,16.79745,16.79745,0,0,1-9.89-5.968,17.39613,17.39613,0,0,1-3.718-11.22" transform="translate(0 0.0004)"/>
          <path class="e58f0203-eb57-4c7d-b6c0-6cf82be84d4c" d="M233.03419,176.9649v-7.095l1.792,1.187a14.263,14.263,0,0,0,6.917,1.995,6.52671,6.52671,0,0,0,3.526-.897,3.34487,3.34487,0,0,0,1.637-2.999,3.94573,3.94573,0,0,0-1.142-2.758,9.80427,9.80427,0,0,0-2.639-1.764l-3.381-1.719q-6.7035-3.42751-6.71-8.999a10.30474,10.30474,0,0,1,.65-3.472,9.30681,9.30681,0,0,1,4.292-4.857,14.36387,14.36387,0,0,1,7.329-1.858,18.997,18.997,0,0,1,9.345,2.575v7.142l-1.638-1.342a11.62529,11.62529,0,0,0-6.454-2.238,5.47358,5.47358,0,0,0-3.178.898,3.67917,3.67917,0,0,0-1.637,2.754c-.191,1.721.844,3.245,3.135,4.57l1.141.624,2.925,1.477q6.91652,3.46949,6.911,8.569a10.35025,10.35025,0,0,1-.698,3.519,9.49562,9.49562,0,0,1-4.322,4.95,15.491,15.491,0,0,1-7.945,1.901,23.48013,23.48013,0,0,1-9.856-2.163" transform="translate(0 0.0004)"/>
          <path class="e58f0203-eb57-4c7d-b6c0-6cf82be84d4c" d="M282.8761,158.993h3.483a5.51556,5.51556,0,0,0,3.924-1.31,4.235,4.235,0,0,0,1.243-3.547q-.24152-4.33651-5.469-4.34h-3.181Zm-8.546,19.609V144.33h14.762a12.69744,12.69744,0,0,1,6.918,1.858,8.4621,8.4621,0,0,1,3.717,4.767,11.20866,11.20866,0,0,1,.491,3.242,8.65579,8.65579,0,0,1-1.494,4.857,6.93913,6.93913,0,0,1-4.181,3.045,8.83609,8.83609,0,0,1,3.577,3.426q.693,1.0485,4.371,7.991l2.689,5.086h-9.047l-1.686-3.426q-3.474-6.9885-5.261-9.042a5.4167,5.4167,0,0,0-4.224-1.905h-2.036v14.373Z" transform="translate(0 0.0004)"/>
        </g>
        <rect class="e58f0203-eb57-4c7d-b6c0-6cf82be84d4c" x="305.91501" y="144.33141" width="8.59702" height="34.27299"/>
        <g class="a6c2aeaf-dc24-44bd-8922-617a093b0de1">
          <path class="e58f0203-eb57-4c7d-b6c0-6cf82be84d4c" d="M327.18817,161.45171a11.779,11.779,0,0,0,1.971,7.02,8.94424,8.94424,0,0,0,5.291,3.636,10.48449,10.48449,0,0,0,2.638.337,8.92407,8.92407,0,0,0,6.849-2.955,11.5364,11.5364,0,0,0,2.832-8.038,11.38327,11.38327,0,0,0-2.832-8.039,8.90387,8.90387,0,0,0-6.803-2.952,10.75062,10.75062,0,0,0-2.684.335,8.99429,8.99429,0,0,0-5.291,3.669,11.798,11.798,0,0,0-1.971,6.987m-8.489,0a17.34478,17.34478,0,0,1,3.734-11.191,16.76049,16.76049,0,0,1,9.886-5.997,23.57405,23.57405,0,0,1,4.928-.521,17.76555,17.76555,0,0,1,12.891,4.983,18.29842,18.29842,0,0,1,0,25.452,17.78749,17.78749,0,0,1-12.891,4.982,23.85294,23.85294,0,0,1-4.928-.52,16.79956,16.79956,0,0,1-9.886-5.968,17.32923,17.32923,0,0,1-3.734-11.22" transform="translate(0 0.0004)"/>
          <path class="e58f0203-eb57-4c7d-b6c0-6cf82be84d4c" d="M358.54391,176.9649v-7.095l1.793,1.187a14.25757,14.25757,0,0,0,6.918,1.995,6.5834,6.5834,0,0,0,3.525-.897,3.34894,3.34894,0,0,0,1.637-2.999,3.94043,3.94043,0,0,0-1.145-2.758,9.8116,9.8116,0,0,0-2.636-1.764l-3.385-1.719q-6.7035-3.42751-6.707-8.999a10.30716,10.30716,0,0,1,.651-3.472,9.29209,9.29209,0,0,1,4.291-4.857,14.3552,14.3552,0,0,1,7.326-1.858,18.97378,18.97378,0,0,1,9.344,2.575v7.142l-1.635-1.342a11.61228,11.61228,0,0,0-6.453-2.238,5.46372,5.46372,0,0,0-3.177.898,3.71039,3.71039,0,0,0-1.636,2.754c-.207,1.721.841,3.245,3.128,4.57l1.146.624,2.924,1.477q6.912,3.46949,6.913,8.569a10.31118,10.31118,0,0,1-.701,3.519,9.46982,9.46982,0,0,1-4.32,4.95,15.505,15.505,0,0,1-7.948,1.901,23.4834,23.4834,0,0,1-9.853-2.163" transform="translate(0 0.0004)"/>
        </g>
        <path class="e58f0203-eb57-4c7d-b6c0-6cf82be84d4c" d="M46.313,179.758H87.39V94.402H46.313Zm1.913-83.523H85.474v81.69H48.226Z" transform="translate(0 0.0004)"/>
        <path class="e58f0203-eb57-4c7d-b6c0-6cf82be84d4c" d="M85.484,179.758h58.495V94.402H85.484Zm1.913-83.523h54.664v81.69H87.397Z" transform="translate(0 0.0004)"/>
        <g class="a6c2aeaf-dc24-44bd-8922-617a093b0de1">
          <path class="e58f0203-eb57-4c7d-b6c0-6cf82be84d4c" d="M93.3242,104.738a3.1712,3.1712,0,0,0,1.812-.531l-.334-.792-1.384.469c-.859,0-1.3-.606-1.3-1.765,0-1.111.441-1.703,1.317-1.703l1.288.347.394-.788a3.275,3.275,0,0,0-1.793-.442c-1.494,0-2.288,1.005-2.288,2.586,0,1.676.794,2.619,2.288,2.619" transform="translate(0 0.0004)"/>
          <path class="e58f0203-eb57-4c7d-b6c0-6cf82be84d4c" d="M97.1914,104.71661a1.68033,1.68033,0,0,0,1.811-1.915,1.8044,1.8044,0,1,0-3.605,0,1.66812,1.66812,0,0,0,1.794,1.915m0-3.102c.476,0,.764.305.764,1.187,0,.868-.256,1.202-.764,1.202-.51,0-.747-.334-.747-1.202.017-.882.27-1.187.747-1.187" transform="translate(0 0.0004)"/>
          <path class="e58f0203-eb57-4c7d-b6c0-6cf82be84d4c" d="M100.7959,101.888l.65-.226.684.821v2.174h1.032V102.39l-.044-.502.647-.226.717.821v2.174h1.036V102.39c0-.943-.319-1.474-1.416-1.474l-1.16.502-1.195-.502-1.141.484-.178-.427h-.679v3.669h1.014v-2.754Z" transform="translate(0 0.0004)"/>
        </g>
        <rect class="e58f0203-eb57-4c7d-b6c0-6cf82be84d4c" x="106.636" y="99.46741" width="1.03" height="0.89999"/>
        <polygon class="e58f0203-eb57-4c7d-b6c0-6cf82be84d4c" points="106.225 100.995 106.225 101.619 106.671 101.694 106.671 104.664 107.69 104.664 107.69 100.995 106.225 100.995"/>
        <g class="a6c2aeaf-dc24-44bd-8922-617a093b0de1">
          <path class="e58f0203-eb57-4c7d-b6c0-6cf82be84d4c" d="M108.9102,103.505c0,.915.444,1.219,1.126,1.219l1.034-.244-.158-.731-.585.136-.413-.409v-1.783h1.03v-.699h-1.03v-.961l-1.019.323v.638h-.573v.699h.573v1.812Z" transform="translate(0 0.0004)"/>
          <path class="e58f0203-eb57-4c7d-b6c0-6cf82be84d4c" d="M113.26019,104.704l1.443-.348-.192-.685-1.112.305-.983-.901h2.384v-.426a1.549,1.549,0,0,0-1.608-1.736,1.68011,1.68011,0,0,0-1.807,1.887,1.71993,1.71993,0,0,0,1.875,1.904m-.145-3.106.686.886h-1.402Z" transform="translate(0 0.0004)"/>
        </g>
        <polygon class="e58f0203-eb57-4c7d-b6c0-6cf82be84d4c" points="112.04 99.84 112.154 100.403 114.153 100.037 114.025 99.324 112.04 99.84"/>
        <g class="a6c2aeaf-dc24-44bd-8922-617a093b0de1">
          <path class="e58f0203-eb57-4c7d-b6c0-6cf82be84d4c" d="M118.7289,104.71652l1.013-.47.113.409h.824v-5.19h-1.033v1.111l.112.672-.95-.352a1.68161,1.68161,0,0,0-1.656,1.905c0,1.323.685,1.915,1.577,1.915m.234-3.088.683.165v1.89l-.696.319c-.495,0-.779-.337-.779-1.201,0-.854.303-1.173.792-1.173" transform="translate(0 0.0004)"/>
          <path class="e58f0203-eb57-4c7d-b6c0-6cf82be84d4c" d="M123.3334,104.704l1.445-.348-.206-.685-1.126.305-.985-.901h2.366v-.426a1.54085,1.54085,0,0,0-1.606-1.736,1.67667,1.67667,0,0,0-1.813,1.887,1.78434,1.78434,0,0,0,1.925,1.904m-.142-3.106.682.886h-1.397Z" transform="translate(0 0.0004)"/>
          <path class="e58f0203-eb57-4c7d-b6c0-6cf82be84d4c" d="M92.968,107.09662H91.199v4.871a6.84489,6.84489,0,0,0,1.875.259c1.638,0,2.388-1.019,2.388-2.652,0-1.886-.957-2.478-2.494-2.478m.157,4.308-.907-.108v-3.407h.697c1.053,0,1.448.455,1.448,1.672.016,1.463-.539,1.843-1.238,1.843" transform="translate(0 0.0004)"/>
          <path class="e58f0203-eb57-4c7d-b6c0-6cf82be84d4c" d="M96.19239,110.31622a1.73534,1.73534,0,0,0,1.874,1.901l1.464-.347-.206-.686-1.111.32c-.652,0-.99-.334-.99-.915h2.389v-.427a1.55425,1.55425,0,0,0-1.609-1.747,1.67926,1.67926,0,0,0-1.811,1.901m2.417-.305h-1.399l.713-.882Z" transform="translate(0 0.0004)"/>
          <path class="e58f0203-eb57-4c7d-b6c0-6cf82be84d4c" d="M101.3574,111.54941l-.91-.258-.206.685,1.145.258c1,0,1.51-.517,1.51-1.187,0-1.187-1.67-1.019-1.67-1.6l.524-.334.939.183.147-.699-1.097-.183c-1.034,0-1.464.485-1.464,1.033,0,1.249,1.636,1.037,1.636,1.69Z" transform="translate(0 0.0004)"/>
          <path class="e58f0203-eb57-4c7d-b6c0-6cf82be84d4c" d="M104.979,109.98273c-.918,0-1.449.41-1.449,1.08a1.16877,1.16877,0,0,0,1.293,1.173l1.113-.502.142.441h.698v-2.346c0-.944-.478-1.413-1.559-1.413l-1.51.287.255.7,1.145-.245.683.61v.197h-.811Zm.811,1.338-.683.244-.572-.548.621-.47h.634Z" transform="translate(0 0.0004)"/>
        </g>
        <polygon class="e58f0203-eb57-4c7d-b6c0-6cf82be84d4c" points="108.688 109.48 109.367 109.236 109.83 109.297 109.858 108.475 109.431 108.415 108.51 108.978 108.476 108.978 108.368 108.475 107.669 108.475 107.669 112.145 108.688 112.145 108.688 109.48"/>
        <polygon class="e58f0203-eb57-4c7d-b6c0-6cf82be84d4c" points="110.445 112.128 111.461 112.128 111.461 109.463 112.16 109.222 112.636 109.284 112.67 108.462 112.223 108.415 111.302 108.979 111.288 108.979 111.175 108.477 110.46 108.477 110.46 112.128 110.445 112.128"/>
        <g class="a6c2aeaf-dc24-44bd-8922-617a093b0de1">
          <path class="e58f0203-eb57-4c7d-b6c0-6cf82be84d4c" d="M112.8892,110.33231a1.79865,1.79865,0,1,0,3.591,0,1.79941,1.79941,0,1,0-3.591,0m2.561,0c0,.868-.254,1.202-.748,1.202-.496,0-.747-.348-.747-1.202,0-.882.266-1.201.747-1.201.477.014.748.319.748,1.201" transform="translate(0 0.0004)"/>
          <path class="e58f0203-eb57-4c7d-b6c0-6cf82be84d4c" d="M118.3398,112.21759l.558-.061v-.685l-.622-.366v-4.139h-1v4.2a.92547.92547,0,0,0,1.064,1.051" transform="translate(0 0.0004)"/>
          <path class="e58f0203-eb57-4c7d-b6c0-6cf82be84d4c" d="M120.5635,111.09171v-4.125h-1.019v4.186c0,.653.289,1.05,1.068,1.05l.555-.06v-.685Z" transform="translate(0 0.0004)"/>
          <path class="e58f0203-eb57-4c7d-b6c0-6cf82be84d4c" d="M123.4922,108.4169a1.73569,1.73569,0,0,0-1.795,1.915,1.79854,1.79854,0,1,0,3.589,0,1.73171,1.73171,0,0,0-1.794-1.915m0,3.102c-.511,0-.746-.333-.746-1.201,0-.883.27-1.202.746-1.202.474,0,.744.305.744,1.202.019.882-.234,1.201-.744,1.201" transform="translate(0 0.0004)"/>
          <path class="e58f0203-eb57-4c7d-b6c0-6cf82be84d4c" d="M92.2051,117.86374h.587a1.78276,1.78276,0,0,0,2-1.719c0-1.083-.921-1.585-2-1.585h-1.62v5.057h1.033Zm0-2.465h.555l.954.793-.954.897h-.555Z" transform="translate(0 0.0004)"/>
        </g>
        <polygon class="e58f0203-eb57-4c7d-b6c0-6cf82be84d4c" points="96.42 116.962 97.121 116.718 97.582 116.779 97.615 115.957 97.17 115.911 96.249 116.478 96.231 116.478 96.136 115.972 95.421 115.972 95.421 119.641 96.437 119.641 96.437 116.962 96.42 116.962"/>
        <g class="a6c2aeaf-dc24-44bd-8922-617a093b0de1">
          <path class="e58f0203-eb57-4c7d-b6c0-6cf82be84d4c" d="M97.8418,117.78122c0,1.248.633,1.92,1.793,1.92a1.69055,1.69055,0,0,0,1.812-1.92,1.74723,1.74723,0,0,0-1.812-1.901,1.725,1.725,0,0,0-1.793,1.901m1.793-1.187c.495,0,.764.305.764,1.187,0,.883-.255,1.188-.764,1.188-.49,0-.746-.334-.746-1.188,0-.867.27-1.187.746-1.187" transform="translate(0 0.0004)"/>
          <path class="e58f0203-eb57-4c7d-b6c0-6cf82be84d4c" d="M105.6228,114.46323h-1.033v1.115l.112.667-.956-.366a1.68571,1.68571,0,0,0-1.635,1.905c0,1.309.701,1.919,1.573,1.919l1.018-.488.113.409h.824v-5.161Zm-1.033,4.218-.701.305c-.49,0-.778-.32-.778-1.202,0-.854.304-1.173.794-1.173l.685.183Z" transform="translate(0 0.0004)"/>
          <path class="e58f0203-eb57-4c7d-b6c0-6cf82be84d4c" d="M109.8662,119.6474v-3.669h-1.033v2.787l-.696.211-.67-.76v-2.238h-1.016v2.223c0,1.005.427,1.521,1.397,1.521l1.192-.534.16.459Z" transform="translate(0 0.0004)"/>
          <path class="e58f0203-eb57-4c7d-b6c0-6cf82be84d4c" d="M112.5537,116.62592l.954.229.256-.656-1.303-.305a1.72138,1.72138,0,0,0-1.833,1.905,1.68494,1.68494,0,0,0,1.833,1.918l1.318-.322-.193-.699-1.032.276c-.554,0-.889-.352-.889-1.173,0-.825.335-1.173.889-1.173" transform="translate(0 0.0004)"/>
          <path class="e58f0203-eb57-4c7d-b6c0-6cf82be84d4c" d="M116.7891,116.69321v-.699h-1.032v-.943l-1,.304v.639h-.572v.699h.572v1.811c0,.93.446,1.234,1.128,1.234l1.017-.258-.16-.714-.586.133-.414-.423v-1.798h1.047Z" transform="translate(0 0.0004)"/>
        </g>
        <polygon class="e58f0203-eb57-4c7d-b6c0-6cf82be84d4c" points="117.44 115.981 117.44 116.587 117.872 116.695 117.872 119.647 118.885 119.647 118.885 115.981 117.44 115.981"/>
        <rect class="e58f0203-eb57-4c7d-b6c0-6cf82be84d4c" x="117.837" y="114.46442" width="1.028" height="0.89999"/>
        <polygon class="e58f0203-eb57-4c7d-b6c0-6cf82be84d4c" points="122.208 115.979 121.399 119.053 121.38 119.053 120.572 115.979 119.411 115.979 120.572 119.648 122.065 119.648 123.222 115.979 122.208 115.979"/>
        <g class="a6c2aeaf-dc24-44bd-8922-617a093b0de1">
          <path class="e58f0203-eb57-4c7d-b6c0-6cf82be84d4c" d="M123.5972,117.78122a1.80094,1.80094,0,1,0,3.594,0,1.74642,1.74642,0,0,0-1.797-1.901,1.728,1.728,0,0,0-1.797,1.901m1.812-1.187c.476,0,.746.305.746,1.187,0,.883-.241,1.188-.746,1.188-.509,0-.748-.334-.748-1.188,0-.867.253-1.187.748-1.187" transform="translate(0 0.0004)"/>
          <path class="e58f0203-eb57-4c7d-b6c0-6cf82be84d4c" d="M92.2168,125.2124h.622l.858,1.919h1.207c-.38-.7-.761-1.385-1.125-2.084a1.582,1.582,0,0,0,1.001-1.464c0-1.051-.847-1.506-1.876-1.506h-1.705v5.054h1.018Zm0-2.389h.524l.956.746c0,.577-.288.868-.956.868h-.524Z" transform="translate(0 0.0004)"/>
          <path class="e58f0203-eb57-4c7d-b6c0-6cf82be84d4c" d="M97.1626,126.4697l-.986-.915h2.387v-.423a1.559,1.559,0,0,0-1.608-1.75,1.68583,1.68583,0,0,0-1.811,1.9,1.742,1.742,0,0,0,1.876,1.92l1.444-.366-.19-.671Zm-.271-2.375.687.883h-1.402Z" transform="translate(0 0.0004)"/>
          <path class="e58f0203-eb57-4c7d-b6c0-6cf82be84d4c" d="M100.1918,126.02762l.192-.197.49.06c.637,0,1.573-.365,1.573-1.262l-.379-.581.714.14.017-.735c-.672-.011-1.524-.072-1.939-.072-.604,0-1.574.287-1.574,1.262l.7,1.034-.73.567.95.62-1.018.806c0,.671.814,1.008,1.608,1.008.968,0,1.83-.472,1.83-1.327,0-1.398-2.434-.929-2.434-1.323m.668-1.947.684.548-.684.578-.686-.578Zm-.017,3.927-.715-.549.589-.549.892.489Z" transform="translate(0 0.0004)"/>
        </g>
        <rect class="e58f0203-eb57-4c7d-b6c0-6cf82be84d4c" x="103.741" y="121.94641" width="1.035" height="0.896"/>
        <polygon class="e58f0203-eb57-4c7d-b6c0-6cf82be84d4c" points="103.33 123.46 103.33 124.084 103.775 124.159 103.775 127.129 104.807 127.129 104.807 123.46 103.33 123.46"/>
        <g class="a6c2aeaf-dc24-44bd-8922-617a093b0de1">
          <path class="e58f0203-eb57-4c7d-b6c0-6cf82be84d4c" d="M107.3662,127.20172a1.67826,1.67826,0,0,0,1.795-1.92,1.797,1.797,0,1,0-3.588,0,1.6717,1.6717,0,0,0,1.793,1.92m0-3.107c.476,0,.747.305.747,1.187,0,.869-.257,1.188-.747,1.188-.493,0-.744-.334-.744-1.188.014-.882.27-1.187.744-1.187" transform="translate(0 0.0004)"/>
          <path class="e58f0203-eb57-4c7d-b6c0-6cf82be84d4c" d="M113.3535,127.124v-2.27c0-.926-.384-1.474-1.353-1.474l-1.21.501-.155-.426h-.701v3.669h1.031v-2.769l.672-.229.698.821v2.177Z" transform="translate(0 0.0004)"/>
          <path class="e58f0203-eb57-4c7d-b6c0-6cf82be84d4c" d="M115.6996,123.3783l-1.513.305.253.699,1.16-.258.683.624v.183h-.825c-.923,0-1.449.412-1.449,1.095a1.162,1.162,0,0,0,1.287,1.171l1.115-.498.145.423h.695v-2.327c0-.933-.474-1.417-1.551-1.417m.569,2.909-.687.24-.569-.531.618-.473h.638Z" transform="translate(0 0.0004)"/>
          <path class="e58f0203-eb57-4c7d-b6c0-6cf82be84d4c" d="M119.1543,126.1037v-4.143h-1.015v4.204a.92517.92517,0,0,0,1.063,1.051l.556-.061v-.685Z" transform="translate(0 0.0004)"/>
          <path class="e58f0203-eb57-4c7d-b6c0-6cf82be84d4c" d="M91.6523,132.20383h.386l.54,1.205h.759l-.696-1.312.633-.912c0-.656-.539-.961-1.191-.961h-1.064v3.185h.652v-1.205Zm0-1.506h.317l.592.473-.592.549h-.317Z" transform="translate(0 0.0004)"/>
          <path class="e58f0203-eb57-4c7d-b6c0-6cf82be84d4c" d="M95.4436,132.77371l-.712.201-.622-.564h1.494v-.258a.97547.97547,0,0,0-1.018-1.098,1.06,1.06,0,0,0-1.128,1.188,1.1045,1.1045,0,0,0,1.192,1.219l.906-.229Zm-.887-1.292.427.549h-.889Z" transform="translate(0 0.0004)"/>
          <path class="e58f0203-eb57-4c7d-b6c0-6cf82be84d4c" d="M95.9607,133.74622l1.018.628,1.142-.839c0-.868-1.526-.578-1.526-.836l.113-.122.314.047.989-.793-.238-.365.459.075v-.456l-1.225-.047-1,.793.446.638-.46.352.602.395Zm1.061-2.267.43.352-.43.348-.427-.348Zm-.092,1.783.554.32-.477.38-.444-.348Z" transform="translate(0 0.0004)"/>
        </g>
        <polygon class="e58f0203-eb57-4c7d-b6c0-6cf82be84d4c" points="98.555 131.091 98.555 131.486 98.824 131.547 98.824 133.401 99.459 133.401 99.459 131.091 98.555 131.091"/>
        <rect class="e58f0203-eb57-4c7d-b6c0-6cf82be84d4c" x="98.807" y="130.14639" width="0.653" height="0.56201"/>
        <g class="a6c2aeaf-dc24-44bd-8922-617a093b0de1">
          <path class="e58f0203-eb57-4c7d-b6c0-6cf82be84d4c" d="M99.9097,132.2258a1.07733,1.07733,0,0,0,1.146,1.219c.715,0,1.132-.412,1.132-1.219a1.14,1.14,0,1,0-2.278,0m1.146-.76.476.745-.476.761-.477-.761Z" transform="translate(0 0.0004)"/>
        </g>
        <polygon class="e58f0203-eb57-4c7d-b6c0-6cf82be84d4c" points="100.381 130.381 100.463 130.732 101.715 130.502 101.62 130.044 100.381 130.381"/>
        <polygon class="e58f0203-eb57-4c7d-b6c0-6cf82be84d4c" points="104.775 133.399 104.775 131.968 103.934 131.038 103.17 131.344 103.073 131.071 102.629 131.071 102.629 133.384 103.284 133.384 103.284 131.634 103.693 131.498 104.125 132.014 104.125 133.384 104.775 133.384 104.775 133.399"/>
        <g class="a6c2aeaf-dc24-44bd-8922-617a093b0de1">
          <path class="e58f0203-eb57-4c7d-b6c0-6cf82be84d4c" d="M108.483,130.14343h-.636v.703l.063.427-.603-.229a1.06363,1.06363,0,0,0-1.048,1.201c0,.822.446,1.206.984,1.206l.637-.306.064.259h.524v-3.261Zm-.651,2.651-.445.197-.491-.76.491-.732.445.122Z" transform="translate(0 0.0004)"/>
          <path class="e58f0203-eb57-4c7d-b6c0-6cf82be84d4c" d="M110.0476,131.0386a1.0569,1.0569,0,0,0-1.128,1.187,1.09969,1.09969,0,0,0,1.193,1.205l.906-.229-.128-.441-.714.197-.638-.578h1.514v-.276a.94941.94941,0,0,0-1.005-1.065m-.491.99.462-.549.429.549Z" transform="translate(0 0.0004)"/>
        </g>
        <polygon class="e58f0203-eb57-4c7d-b6c0-6cf82be84d4c" points="112.624 130.226 112.624 133.408 114.677 133.408 114.677 132.887 113.279 132.887 113.279 130.226 112.624 130.226"/>
        <g class="a6c2aeaf-dc24-44bd-8922-617a093b0de1">
          <path class="e58f0203-eb57-4c7d-b6c0-6cf82be84d4c" d="M115.8203,131.03922a1.099,1.099,0,0,0-1.142,1.188,1.06388,1.06388,0,0,0,1.142,1.215c.715,0,1.128-.409,1.128-1.215a1.09567,1.09567,0,0,0-1.128-1.188m0,1.933-.473-.76.473-.746.476.746Z" transform="translate(0 0.0004)"/>
          <path class="e58f0203-eb57-4c7d-b6c0-6cf82be84d4c" d="M117.9453,131.67859l.335-.212.572.119.093-.438-.681-.108c-.655,0-.924.306-.924.639,0,.792,1.017.653,1.017,1.065l-.348.262-.572-.169-.129.442.715.164.953-.746c.019-.774-1.031-.652-1.031-1.018" transform="translate(0 0.0004)"/>
          <path class="e58f0203-eb57-4c7d-b6c0-6cf82be84d4c" d="M122.80989,131.18451c0-.653-.526-.957-1.191-.957h-1.064v3.181h.633v-1.187h.381l.559,1.201h.762l-.698-1.309Zm-1.305.549h-.317v-1.019h.317l.608.47Z" transform="translate(0 0.0004)"/>
        </g>
        <polygon class="e58f0203-eb57-4c7d-b6c0-6cf82be84d4c" points="122.971 130.381 123.036 130.732 124.309 130.502 124.214 130.044 122.971 130.381"/>
        <polygon class="e58f0203-eb57-4c7d-b6c0-6cf82be84d4c" points="123.097 131.091 123.097 131.486 123.381 131.547 123.381 133.401 124.02 133.401 124.02 131.091 123.097 131.091"/>
        <g class="a6c2aeaf-dc24-44bd-8922-617a093b0de1">
          <path class="e58f0203-eb57-4c7d-b6c0-6cf82be84d4c" d="M125.623,131.03922a1.102,1.102,0,0,0-1.146,1.188,1.06667,1.06667,0,0,0,1.146,1.215c.715,0,1.132-.409,1.132-1.215a1.09073,1.09073,0,0,0-1.132-1.188m0,1.933-.46-.76.46-.746.477.746Z" transform="translate(0 0.0004)"/>
          <path class="e58f0203-eb57-4c7d-b6c0-6cf82be84d4c" d="M127.7529,131.67859l.314-.212.606.119.098-.438-.685-.108c-.65,0-.921.306-.921.639,0,.792,1.034.653,1.034,1.065l-.367.262-.572-.169-.128.442.715.164.955-.746c0-.774-1.049-.652-1.049-1.018" transform="translate(0 0.0004)"/>
          <path class="e58f0203-eb57-4c7d-b6c0-6cf82be84d4c" d="M90.9753,172.26l.655.99-.701.545.907.61-.971.778c0,.638.78.972,1.559.972.92,0,1.746-.455,1.746-1.295,0-1.323-2.334-.882-2.334-1.262l.187-.198.465.076c.617,0,1.522-.348,1.522-1.216l-.367-.549.687.122.018-.699-1.88-.076c-.585,0-1.493.259-1.493,1.202m1.366,2.191.862.474-.749.592-.682-.531Zm.812-2.191-.665.549-.652-.549.652-.535Z" transform="translate(0 0.0004)"/>
          <path class="e58f0203-eb57-4c7d-b6c0-6cf82be84d4c" d="M96.5811,171.0563a1.66605,1.66605,0,0,0-1.731,1.826,1.73487,1.73487,0,1,0,3.463,0,1.67629,1.67629,0,0,0-1.732-1.826m0,2.984c-.477,0-.716-.351-.716-1.158,0-.851.254-1.156.716-1.156.46,0,.729.305.729,1.156,0,.838-.256,1.158-.729,1.158" transform="translate(0 0.0004)"/>
          <path class="e58f0203-eb57-4c7d-b6c0-6cf82be84d4c" d="M100.92049,171.05911l-.98.427.08-.563v-1.234h-.989v4.979h.523l.181-.413,1.063.503a1.63143,1.63143,0,0,0,1.602-1.841c0-1.281-.618-1.858-1.48-1.858m-.234,2.985-.666-.366v-1.643l.68-.291c.462,0,.734.305.734,1.159,0,.836-.318,1.141-.748,1.141" transform="translate(0 0.0004)"/>
        </g>
        <rect class="e58f0203-eb57-4c7d-b6c0-6cf82be84d4c" x="103.042" y="173.6434" width="1.005" height="1.004"/>
        <g class="a6c2aeaf-dc24-44bd-8922-617a093b0de1">
          <path class="e58f0203-eb57-4c7d-b6c0-6cf82be84d4c" d="M106.5518,174.0079c-.539,0-.843-.323-.843-1.126,0-.793.318-1.127.843-1.127l.926.212.249-.657-1.27-.29a1.65274,1.65274,0,0,0-1.747,1.829,1.60544,1.60544,0,0,0,1.747,1.84l1.27-.315-.171-.657Z" transform="translate(0 0.0004)"/>
          <path class="e58f0203-eb57-4c7d-b6c0-6cf82be84d4c" d="M109.3672,173.67821v-3.988h-.971v4.035c0,.624.271,1.018,1.035,1.018l.542-.061v-.667Z" transform="translate(0 0.0004)"/>
        </g>
        <path class="e58f0203-eb57-4c7d-b6c0-6cf82be84d4c" d="M70.4466,113.23691v0Z" transform="translate(0 0.0004)"/>
        <g class="a6c2aeaf-dc24-44bd-8922-617a093b0de1">
          <path class="e58f0203-eb57-4c7d-b6c0-6cf82be84d4c" d="M73.102,104.86032l.141-.198.431.259.445.624-.014.168-.083.273h.114c.745.047,1.142-.014,1.348-.226l.194-.262.112-.971-.018-.062-.048-.09-1.129-.807-.111-.018h-.017l.017-.013h.125l1.192.807.274-.456.078-.474-.048-.15-.158.061-.239-.108-.049-.151-.157.058-.241-.105-.042-.154-.162.047-.223-.107-.047-.165-.161.057-.187.291,1.191.609.126.151v0l.016.047h-.016l-.143-.137-1.27-.61-.144.441-.731.474.078.319v.015l-.111-.108-.049-.198-.584.456Zm1.141-.441.449.201Zm-.029-.198.445-.197.285.197.275.226-.29.155-.54-.381-.413.123Zm-.921.061-.256.259Z" transform="translate(0 0.0004)"/>
          <path class="e58f0203-eb57-4c7d-b6c0-6cf82be84d4c" d="M81.166,117.9675a.8513.8513,0,0,0-.573-1.159l-.652.061-.016.018-.065.047-.124.305.459.437.256-.089.19-.259.158.216c.254.774-.649,1.061-.649,1.061a3.69741,3.69741,0,0,1-3.261-.426l.352-.18.314-.061v.043l.402.384.396-.384-.047-.197-.032-.043-1.051-.126a1.31025,1.31025,0,0,0,.034-1.108l-.114-.319-.062-.258-.348-.079-.402-.062-.394-.075.031.258-.367.366.381.624.383-.258-.348-.29.19-.151.619.348-.093,1.004-.142.033-.59-.351-.033-.015h-.142l-.446.09.699.595-.635.108-.113-.671-.045.014-.557.23.478.789-.591-.743-.27.09.018.137.347.717-.54.15-.189.502.238.216.225-.23-.225-.226.346-.046-.202.652-.777-.229a2.9115,2.9115,0,0,0,.49-1.535l-.446.136a.93973.93973,0,0,1-.271,1.022l-.141-.426-.144-.427-.38.107.206,1.004-.303.108-.157-.154.125-.23-.458-.014-.338.516.544.338-.83.104-.253-.273-.035-.018-.316.126-.046.103-.3-.057-.385-1.098-.236.029.177,1.005-.529-.287-.936-.216-.479.549.574.564.587-.546.4.198,1.146.38.408.319.367-.216a2.12715,2.12715,0,0,0,1.528-.501l.127-.061,1.204.229.179.033.395.121.127-.337.019-.108.444-.15-.192-.305.063-.151.191-.243.255-.108-.349-.104-.224-.154,1.018-.198a5.20421,5.20421,0,0,0,2.224.868l-.034.316h-.01l-.209.201.209.197.061-.014.463-.7a2.665,2.665,0,0,0,2.033-.778l.206-.043h.016l.269.118.288-.15.063-.183v-.015l-.082-.215Z" transform="translate(0 0.0004)"/>
        </g>
        <polygon class="e58f0203-eb57-4c7d-b6c0-6cf82be84d4c" points="67.378 119.608 67.506 119.426 67.284 118.956 66.854 118.971 66.424 118.956 66.187 119.426 66.328 119.608 66.025 119.941 66.266 120.307 66.521 120.689 66.868 120.918 67.221 120.689 67.473 120.307 67.711 119.941 67.378 119.608"/>
        <polygon class="e58f0203-eb57-4c7d-b6c0-6cf82be84d4c" points="69.64 118.308 69.798 118.29 69.704 118.11 69.64 118.308"/>
        <polygon class="e58f0203-eb57-4c7d-b6c0-6cf82be84d4c" points="64.281 118.324 64.44 118.342 64.376 118.141 64.281 118.324"/>
        <polygon class="e58f0203-eb57-4c7d-b6c0-6cf82be84d4c" points="63.587 118.127 63.705 118.127 63.75 118.095 63.779 118.015 63.75 117.926 63.641 117.894 63.622 117.883 63.587 118.127"/>
        <polygon class="e58f0203-eb57-4c7d-b6c0-6cf82be84d4c" points="65.832 118.136 65.782 118.334 65.813 118.548 65.928 118.609 66.052 118.563 66.115 118.365 66.088 118.168 65.96 118.075 65.832 118.136"/>
        <polygon class="e58f0203-eb57-4c7d-b6c0-6cf82be84d4c" points="67.851 118.136 67.822 118.334 67.866 118.548 67.98 118.591 68.108 118.548 68.135 118.334 68.09 118.136 67.98 118.075 67.851 118.136"/>
        <polygon class="e58f0203-eb57-4c7d-b6c0-6cf82be84d4c" points="62.486 118.082 62.644 118.114 62.598 117.914 62.486 118.082"/>
        <polygon class="e58f0203-eb57-4c7d-b6c0-6cf82be84d4c" points="60.831 117.604 60.941 117.636 61.005 117.604 61.038 117.528 61.038 117.438 60.925 117.393 60.909 117.374 60.831 117.604"/>
        <polygon class="e58f0203-eb57-4c7d-b6c0-6cf82be84d4c" points="72.828 117.391 72.814 117.409 72.877 117.638 72.99 117.592 73.023 117.535 73.023 117.47 72.957 117.391 72.828 117.391"/>
        <polygon class="e58f0203-eb57-4c7d-b6c0-6cf82be84d4c" points="74.29 117.33 74.437 117.268 74.29 117.118 74.29 117.33"/>
        <g class="a6c2aeaf-dc24-44bd-8922-617a093b0de1">
          <path class="e58f0203-eb57-4c7d-b6c0-6cf82be84d4c" d="M74.6755,116.44785l-.142.031a24.20832,24.20832,0,0,1-15.351,0l-.142-.031-.225.078-.937.7.588.151a22.14629,22.14629,0,0,0,8.392,1.477,21.93263,21.93263,0,0,0,8.39-1.477l.591-.151h.018l-.941-.7Zm-8.724,1.388h.19l-.219.15h-.049Zm-6.245-.704-.079.094-.109.028-.146-.043-.048-.017-.045.139v.061l.045.044h.015l-.015.046-.33-.122.01-.043h.078l.036-.065.129-.347.012-.065-.059-.043h-.018l.018-.046.251.079.143.042.081.061.031.094Zm.746.399-.159.183-.285.014-.175-.108-.078-.15.014-.169.093-.154.161-.072.177.015.22.164Zm.669.305.047.118.046.032-.014.047-.206-.047-.064-.183-.032-.107-.018-.029-.061-.032-.03.154v.061l.062.047-.014.042-.352-.089.014-.047h.082l.032-.061.096-.365v-.058l-.049-.033h-.019l.019-.046.255.079.06.014.128.029.065.046.046.076v.093l-.171.104Zm1.063.408-.568-.122v-.042h.014l.065-.015.027-.047.079-.365v-.061l-.062-.033.015-.061.336.061v.047h-.096l-.033.061-.077.351-.018.047.035.029.06.014.146-.014.077-.108.049.015Zm.731.14-.318-.061.02-.046h.062l.016-.018v-.043l-.016-.047-.205-.029-.018.015-.033.043.016.032.049.014v.061l-.21-.028v-.061l.133-.094.284-.441.047.015.109.502.032.107.051.018Zm1.096.137-.188-.033-.082-.165-.029-.093-.033-.032-.063-.014-.017.154.017.06.063.03h.016v.046l-.346-.046v-.062h.015l.078-.014.015-.061.049-.366-.018-.075-.065-.028h-.014v-.048l.27.029h.048l.128.033.078.046.049.057.016.079-.158.137.093.136.065.122.047.029Zm.715.061-.332-.033.02-.046h.042l.017-.015v-.046l-.017-.044-.204-.014-.02.029-.012.043.012.032.049.015v.046l-.22-.014v-.061l.111-.09.255-.473.046.014.16.517.033.093.046.014Zm.719-.535-.415.52.142.015.098-.015.044-.046.049-.079.064.014-.014.187-.587-.047v-.047l.395-.516h-.111l-.124.014-.083.075h-.048l.031-.168.541.047Zm.776.535-.27.089-.207-.043-.111-.125-.031-.151.046-.168.146-.104.175-.033.27.108.095.243Zm.958-.474-.053.014-.03.033v.549h-.062l-.428-.474v.291l.017.089.059.018v.058h-.237v-.058l.046-.018.033-.014v-.398l-.098-.09v-.061h.226l.366.395v-.226l-.098-.108v-.043h.226v.043Zm1.095.459-.255.104-.207-.043-.143-.107-.047-.155.047-.168.128-.118.173-.047.287.075.095.23Zm.554.061-.012-.046h.012l.067-.015v-.064l-.034-.363-.019-.06h-.06v-.047l.352-.032v.046h-.019l-.063.033-.015.06.03.363.015.046.033.018h.064l.127-.064.05-.105h.045l.014.198Zm1.001-.107v-.047l.05-.018v-.014l-.018-.029v-.015l-.032-.032-.205.018-.019.029-.011.043.011.032.049.015v.046l-.22.018v-.046l.078-.108.142-.516.064-.015.256.47.062.076.049.014v.061Zm1.128-.624-.043-.061-.049-.033h-.065l-.111.019.029.211h.051l.046-.032v-.062h.063l.036.216-.049.014-.034-.061h-.113l.033.169.031.061h.083v.06l-.335.058-.018-.058h.018l.064-.032v-.061l-.064-.38-.032-.061-.061-.014-.019.014-.016-.042.54-.08.034.169Zm.75-.155.047.212.018.111-.018.09-.082.075-.124.061h-.144l-.109-.047-.053-.075-.03-.089-.049-.244-.029-.062h-.063v-.06l.333-.061.014.043h-.014l-.049.032v.061l.049.258.033.108.045.061.112.014.078-.046.035-.076v-.122l-.049-.197-.11-.075-.018-.047.242-.047.013.061-.048.015Zm.303.427-.018-.047h.018l.065-.028v-.061l-.099-.366-.029-.061h-.078v-.047l.538-.121.044.154-.044.014-.048-.061-.05-.014h-.064l-.111.028.047.215.064-.018.05-.028v-.075l.064-.033.048.216-.048.014v-.014l-.019-.047-.06-.015-.064.015.029.15.035.047.029.015h.082l.075-.029.034-.061.015-.089.049-.019.049.215Zm1.22-.287-.142-.126-.064-.075-.032-.014-.078.014.046.155.032.046h.067l.015.043-.338.093-.01-.046h.01l.067-.047v-.061l-.096-.348-.035-.046h-.075l-.017-.062.254-.06.063-.015.127-.032h.078l.083.032.031.075-.078.184.142.104.111.078h.045l.02.048Zm.304-.093-.019-.033.18-.624-.113.033-.113.061-.033.107-.045.015-.048-.169.524-.15.014.046-.171.621.143-.043.097-.047.027-.047.019-.089.045-.018.047.183Zm.985-.319-.016-.047.048-.029v-.017l-.018-.029h-.014l-.029-.047-.196.076v.075l.034.032.062-.014.018.046-.207.076-.017-.047.064-.137v-.52l.046-.014.367.38.082.065h.046l.018.043Z" transform="translate(0 0.0004)"/>
        </g>
        <polygon class="e58f0203-eb57-4c7d-b6c0-6cf82be84d4c" points="63.214 107.762 63.933 107.762 63.566 107.55 63.214 107.762"/>
        <polygon class="e58f0203-eb57-4c7d-b6c0-6cf82be84d4c" points="66.01 107.437 65.63 107.576 65.602 107.59 65.314 107.712 65.264 107.727 68.225 107.727 68.175 107.712 67.871 107.59 67.841 107.576 67.461 107.437 66.01 107.437"/>
        <polygon class="e58f0203-eb57-4c7d-b6c0-6cf82be84d4c" points="69.717 107.749 70.333 107.749 70.049 107.565 70.016 107.551 69.717 107.749"/>
        <path class="e58f0203-eb57-4c7d-b6c0-6cf82be84d4c" d="M63.1629,113.209v0Z" transform="translate(0 0.0004)"/>
        <polygon class="e58f0203-eb57-4c7d-b6c0-6cf82be84d4c" points="62.927 107.958 62.97 108.065 63.134 108.245 66.614 108.245 66.709 107.958 62.927 107.958"/>
        <polygon class="e58f0203-eb57-4c7d-b6c0-6cf82be84d4c" points="63.255 108.415 63.415 108.702 66.469 108.702 66.561 108.415 63.255 108.415"/>
        <polygon class="e58f0203-eb57-4c7d-b6c0-6cf82be84d4c" points="63.518 108.916 63.61 109.206 66.313 109.206 66.41 108.916 63.518 108.916"/>
        <polygon class="e58f0203-eb57-4c7d-b6c0-6cf82be84d4c" points="63.676 109.421 63.722 109.711 66.185 109.711 66.265 109.421 63.676 109.421"/>
        <polygon class="e58f0203-eb57-4c7d-b6c0-6cf82be84d4c" points="63.709 110.365 63.644 110.656 65.025 110.656 64.595 110.365 63.709 110.365"/>
        <polygon class="e58f0203-eb57-4c7d-b6c0-6cf82be84d4c" points="63.722 109.878 63.722 109.892 63.722 110.168 64.328 110.168 63.893 109.878 63.722 109.878"/>
        <path class="e58f0203-eb57-4c7d-b6c0-6cf82be84d4c" d="M66.73589,110.75772l1.684,2.281v1.141l.242-.015h.061v-3.013h.207v3.013l.305-.043v-2.97h.189v2.909l.301-.108v-2.801h.205v2.694l.274-.23.013-.029v-1.979l-.239-.456-.108-.305h-1.734l-.382.273-.764-.273-.254-.089,2.849-.869h-2.212l-.063-.196h2.496l.064-.291h-2.657l-.061-.198h2.767l.093-.29h-2.958l-.047-.197h3.118l.156-.291h-3.369l-.064-.197h3.561l.206-.258.015-.018h-3.894l-.014-.043v2.848Zm1.478.394h.206v1.826l-.206-.563Z" transform="translate(0 0.0004)"/>
        <polygon class="e58f0203-eb57-4c7d-b6c0-6cf82be84d4c" points="67.402 114.526 67.705 114.376 67.705 112.56 67.402 112.331 67.402 114.526"/>
        <polygon class="e58f0203-eb57-4c7d-b6c0-6cf82be84d4c" points="66.903 115.11 67.016 114.926 67.031 114.899 67.205 114.669 67.205 112.159 66.903 111.943 66.903 115.11"/>
        <polygon class="e58f0203-eb57-4c7d-b6c0-6cf82be84d4c" points="66.395 112.074 66.395 114.602 66.633 114.893 66.648 114.922 66.697 114.996 66.697 111.862 66.395 112.074"/>
        <polygon class="e58f0203-eb57-4c7d-b6c0-6cf82be84d4c" points="65.884 112.435 65.884 114.321 66.19 114.473 66.19 112.219 65.884 112.435"/>
        <polygon class="e58f0203-eb57-4c7d-b6c0-6cf82be84d4c" points="67.923 114.29 68.225 114.228 68.225 112.919 67.923 112.692 67.923 114.29"/>
        <polygon class="e58f0203-eb57-4c7d-b6c0-6cf82be84d4c" points="65.384 112.792 65.384 114.191 65.687 114.252 65.687 112.576 65.384 112.792"/>
        <path class="e58f0203-eb57-4c7d-b6c0-6cf82be84d4c" d="M63.6756,113.78793v-2.632h.206v2.769l.302.122v-2.891h.207v2.955l.301.061v-3.016h.206v3.016h.304v-1.237l-.173.14,1.715-2.314v-.018l-.621-.868h-2.226l2.827.886-1.032.363-.38-.273h-1.719l-.11.291-.11.211v2.163Zm1.509-2.632h.206v.853l-.206.564Z" transform="translate(0 0.0004)"/>
        <polygon class="e58f0203-eb57-4c7d-b6c0-6cf82be84d4c" points="68.867 110.365 68.435 110.656 69.835 110.656 69.79 110.365 68.867 110.365"/>
        <polygon class="e58f0203-eb57-4c7d-b6c0-6cf82be84d4c" points="69.55 109.878 69.119 110.168 69.756 110.168 69.77 109.953 69.77 109.878 69.55 109.878"/>
        <g class="a6c2aeaf-dc24-44bd-8922-617a093b0de1">
          <path class="e58f0203-eb57-4c7d-b6c0-6cf82be84d4c" d="M61.8813,104.36853l1.507.216.427-.168.068-.048.029-.01.338-.854.015-.018.064.215-.097.47v.061l.065.155.571.06h.015l-.398.183-.142-.014.939.362.013.015-.236.064-.574-.139,1.1.501-.56-.028c.27.976.813.868.829.943l-.163.456,1.146-.212,1.191.23.033-.262c-.093-.24-.89-.438-1.619-.226l-.097.047-.017-.018.017-.015.097-.061,1.366-.043h.014l.495-.427.412-.351-.124.061-.179.029.097-.061.603-.851-.3.151-.111-.015.014-.014.147-.061.363-.459-.524-.911-.369-.305h-.079l-.078.015h-.014l.569.089.176-.455v.014a1.482,1.482,0,0,0,.667,1.689,2.14106,2.14106,0,0,0,2.192-.211l-.346.061-.241-.047.016-.014.255-.015c.94-.244.989-1.355.828-1.431h-.017l-.078.183-.161.198v-.029l.098-.961-.368-.47h-1.939l-.682-.398-.671.839-.284.151v-.061l.765-1.127-.367-.975-2.274-.09-.284.563.46-.409.795.258a.80489.80489,0,0,0-1.304.607v-.014l-.048.046-.03-.305.173-.656a1.64305,1.64305,0,0,0-2.082,1.646l.272.577v.047l-.224-.154-.226-.455-1.298-.183-.971.534-.224.334-.157.807Zm9.458-2.783.504.502v.592h-.013v-.014l-.098-.549-.285-.305.19.323.049.258-.253.685-.016-.014v-.014l.03-.854-.049-.093-.555-.38.302.38-.064.868h-.016l.016-.137-.016-.347-1.029-.46a1.137,1.137,0,0,1,1.303-.441m-3.737,4.218-.079-.276.363-.395Zm-.079-.549.27-.638Zm1-4.691-.177.398v-.029l-.107-.717-.353-.229Zm-.858,2.984-.177.75.384-.187-.412.689c-.607-.764.187-.99.205-1.252m-.397,1.31-.064,1.172-.048-.258-.112-1.173a8.18269,8.18269,0,0,0-.584-1.417,4.06823,4.06823,0,0,1,.808,1.676m-2.577-1.869a3.55274,3.55274,0,0,0,1.94,1.244l.222,1.553-.384-.408.29.014-.588-.534.555.261-1.205-.886,1.174.474c-.014-.215-1.528-.793-1.969-1.586l-.049-.118Zm-2.334,1.122.572-.592-.242-.168-.426.262.526-.459.411.333Zm.047-2.206,1.094.23a1.14463,1.14463,0,0,1,.115,1.643l-.415-1.127-1.176.442a1.071,1.071,0,0,1,1.303-.625l-1.19-.211-.333.23Z" transform="translate(0 0.0004)"/>
          <path class="e58f0203-eb57-4c7d-b6c0-6cf82be84d4c" d="M65.0246,119.30283l-.921.212-.529.29.179-1.004-.257-.029-.379,1.095-.303.06-.048-.107-.315-.122-.034.014-.254.276-.827-.104.537-.337-.312-.516-.467.014.132.227-.155.154-.308-.108.207-1.005-.381-.107-.127.427-.161.441-.27-1.019-.427-.122a2.74405,2.74405,0,0,0,.49,1.521l-.778.23-.204-.653.345.043-.219.215.237.226.225-.212-.192-.502-.541-.154.335-.714.014-.136-.269-.093-.588.746.495-.793-.543-.211-.049-.015-.11.671-.633-.108.698-.595-.431-.09h-.143l-.029.014-.591.334-.141-.028-.096-1.005.618-.351.192.153-.367.291.367.258.382-.627-.364-.362.029-.262-.395.06-.402.079-.348.076-.062.258-.11.319-.096.412-.333-.154-.354-1.323.083-.915a2.294,2.294,0,0,0,1.811-1.535,2.801,2.801,0,0,0-.096-1.492h.035l.125.305,1.288-.14.045-.014.064-.032.143-.062.051-.028a3.37291,3.37291,0,0,0,1.475-1.493l-.617-.319.874.136,1.288-.179.396.362.123.732.035.09-.289.534.084.183h-.051l-.205.198-.093.502h.093l.288,1.463a2.35183,2.35183,0,0,0,2.068.915h.01c.16,0,1.465.028,1.925.85l.238.201.243-.187c.473-.836,1.777-.864,1.92-.864h.018a2.41093,2.41093,0,0,0,2.063-.915l.303-.778.27-.897.638.502.284.851.16-.245c.286.793.047,1.267.27,1.328l.303-.474.108.398.098.532.51-.912.187.821-.124.428-1.529-.183-.047-.033a1.95007,1.95007,0,0,0-1.495-.15l-.427.075-.828.197-.522.277-.67.333-.252-.122-.05-.136-.082-.108-.204-.061-.271.277.064.179.126-.047.207.201-.349.441-.473-.061-.256-.136-.225.168-.221-.168-.239.136-.475.061-.335-.441.193-.201.126.047.064-.179-.27-.277-.206.061-.082.108-.049.136-.252.122-.653-.333-.511-.277-.841-.197-.427-.075a2.01585,2.01585,0,0,0-1.177.014l-.334-.136-.366-.198-.749-.061-.284-.107-.825-.639-.11-.154-.207-.38.109-1.066.033-.337-1.113-.042.095,1.079.288.445.045.498.734.549,1.19.807.348-.043.113.061.207.165-.954.535-.239.243.336.044-.336.136,1.432.426,1.111-.745.745-.381.78-.028.257.136-.145.258-.524.215a4.00306,4.00306,0,0,0-1.683.686l.427.104.938-.287.67.577.905.107h-.014l.315-.473-.27.032-.162-.047-.062-.168.081-.061.285.033.271-.276-.271-.288-.049.015.049.075-.111.09.111-.377.381.212.766.685.156.272.241.169.11.197h1.256l.111-.197.237-.169.161-.272.763-.685.379-.212.112.377-.094-.09.046-.075-.046-.015-.255.288.255.276.285-.033.078.061-.065.168-.154.047-.276-.032.32.473h-.014l.905-.107.67-.577.917.287.449-.104a4.11431,4.11431,0,0,0-1.684-.686l-.542-.215-.144-.258.255-.136.779.028.749.381,1.112.745,1.317-.394v-.014l-.028-.062v-.017l-.068-.119-.33-.426-.019-.018.524-.151-.22.151.3.609.206-.06.066-.015-.272-.459.331-.075.083-.395.321.079.376-.656.27-.137.592-.046.441.516.163-.408.473.408.179-.244c.017-.394-1.164-2.464-1.274-3.364l-.046-.029-.111-.366v.076l-.398-.517.191-.517.015.029.031.761.225.09.156-.183.02.031-.02.549.224.09.574-.897.093,1.521.348-.394-.028,1.28.38-.52c.079,1.005-.475,1.492-.128,1.661l.398-.578c-.016,1.08-.573,1.371-.334,1.554l.481-.381c-.035.958-.53,1.216-.307,1.521l.762-.459-.206,1.42.397-.398a20.14231,20.14231,0,0,0,.844-6.377,16.8888,16.8888,0,0,0-.569-3.852c-.225-.718-.654-2.192-1.641-2.389l-.811.699.144.789-.318.671.079.563-.905.108-.811.075.016-.015.937-.333-.187-.871a2.34917,2.34917,0,0,1-1.255.196c-.735-.028-.91.094-1.019.521l-.033-.197.573-.413.062-.287-.363.014-.94.578-.015.168.015.166.049.107.951.395.019.018-.273.028-.779-.273-.03.047-.652.305-.665-.29.092-1.521c-.015-.779-1.128-.427-1.524-.23l-1.195,1.005-.459.684.875.245h.128l.711-.216.254-.089.27.107.99.729.108.168-.094.229-.637.99-.093.241.27.868s.46.122.414-.606l.427.455.255-.473.031-1.019v-.046l.048.183a3.66759,3.66759,0,0,0,1.319,3.016,2.58565,2.58565,0,0,1-1.03-1.004l-.43,1.065.361.488.019.029-.206-.047v-.015l-.062-.06-.112-.212-.461-.445c-.113-.226-.049-.897-.731-.897h-.064l-.112.015h-.014l-.128-1.019a3.60888,3.60888,0,0,1,.843-1.628l.047-.108-.047-.061-1.003-.746v-.014l-.158-.061-.146.061-.823.258-.129-.015h-.015l-.97-.29a3.06991,3.06991,0,0,0-2.605,0l-.985.29-.146.015-.813-.244v-.014l-.157-.061-.16.061v.014l-1,.746-.03.061.049.108a3.595,3.595,0,0,1,.841,1.628v.366l-.162-.459-.091-.244-.399-.334-.367-.15-.49-.474-.238-.76.362.638.607-1.323,1.19-.169.241.079.189.197h.368l.095.165h.111l.918-.272h.017l.064-.015-.573-.276-.632-.286-.368.013-1.433-.154-.681.549-.224.291-.444.244-.029-.018-.224-.592v-.014l-.035-.061-1.142-.84-.208-.104v-.168l.639-.154.123-.607-.729-.197-.366-.305-.382-.015-.252.072.523-.24-.316-.445-.334.094-.275-.549-.204.136.286.52-.126.075-.24-.441-.204.136.253.442-.156.122-.462-.305-.16.183.444.29-.097.09-.522-.319-.178.183.558.319-.077.244-.687.441.731-.061.606.384.191.377.431.703.538.746.031.211-1.082.915c-.251.226-2.681,2.008-2.983,2.787l-.098.62-.491-.042.094-.596-.271-.108-.128.628.045.165-.141-.165-.079.197.335.212-.206.046.046.259.399-.122-.193.169.732-.137.717,1.216-.047.122-.637.563c-.397.245.366,1.768.318,2.558l.461.746-.494.2-.034.044-.045.2.396.377.402-.377v-.046l.313.061.334.183a3.67088,3.67088,0,0,1-3.256.423s-.907-.273-.65-1.065l.174-.212.189.259.256.093.459-.46-.125-.305-.064-.042h-.019v-.018l-.664-.061a.84591.84591,0,0,0-.558,1.158l-.826.136-.08.216v.014l.065.169.285.15.271-.122.205.047a2.71939,2.71939,0,0,0,2.036.76l.46.699.063.019.206-.215-.206-.198h-.029l-.034-.319a5.199,5.199,0,0,0,2.223-.868l1.035.197-.221.154-.353.104.255.108.192.244.063.15-.191.305.445.152.016.106.128.338.415-.122.172-.032,1.19-.23.146.061a2.11818,2.11818,0,0,0,1.526.52l.366.212.412-.32,1.146-.366.396-.211.587.549.573-.563Zm-3.705-4.2-.014.029-.016.015-.017.017-.113.014-.206-.014.063.104.064.033.097.042-.19.123-.255-.23-.032-.011-.033-.018-.444-.089.857-.079.256.064Zm12.193.681-.018.033-.475-.212-.32-.064-.254.243-.015-.071v-.14l.015-.014.033-.065.017-.01.033-.018.028-.029h.017l.254-.061.334.118.463.126Zm3.307-9.558.395-.639-.189-.487.523-.535.458.352.16.15.812,1.797a17.242,17.242,0,0,1,.124,7.719l-.221.901c.602-5.148.275-6.429.161-6.411l-.48.456.288-1.933-.316.09.108-1.202-.396-.502-.011-.441-.21.046-.113-.552-.269.047-.081-.32-.381.488.192.394-.225.366.111.869-.316.107Zm-.78,1.097.27-.047.235-.107-.064.093-.441.212-.655-.183Zm-4.897-1.937h-.044l-.974.065-.443.348a1.39308,1.39308,0,0,1,1.03-.639Zm1.019,2.181-.78-.262.633.137.573-.287.019.014Zm1.033,5.388.97-.123h.045l-.398.348a1.37317,1.37317,0,0,1-1.096-.53Zm-1.734-1.173.014.014v.381l.017.168-.077.38-.033.047-.032.032v.014l-.032.029h-.142l-.017-.015-.047-.014-.013-.014-.051-.047-.017-.014.035-.169.046.044.015.017.032.015h.063l.014-.015v-.017l.017-.015v-.014l.017-.047v-.136l.063-.624.035-.029h.029Zm-.794-.897.206-.093.11-.015h.018l.111.015.141.276.144.319-.144.197-.334-.609h-.124l-.064.018-.019.011-.045.018-.033.013-.109.108Zm-7.533.653a2.65983,2.65983,0,0,0,.46-1.614,2.79339,2.79339,0,0,0-.716-1.779l-.078-.201.113-.151.584-.365.068-.029.044-.018.127.078.779.273.225-.014.569-.215.302-.137h.035l1.189-.244,1.192.244h.035l.317.137.555.215.224.014.775-.273.128-.078.064.032.062.029.573.365.1.137-.081.201a2.99066,2.99066,0,0,0-.698,1.779,2.543,2.543,0,0,0,.459,1.631,1.96143,1.96143,0,0,1-.034,1.949,2.12388,2.12388,0,0,1-1.841.807l-1.51.653-.018.031-.237.381-.048.046-.063-.046-.225-.381-.015-.031-1.51-.653a2.0875,2.0875,0,0,1-1.84-.807,1.86239,1.86239,0,0,1-.065-1.966m-.334-1.109.142.423v.108l.014.062v.089l-.014.094v.15l-.014.093v.043l-.015.064-.021.044-.014.047-.032.075-.015.046-.016.047-.015.043-.033.061-.017.047-.033.046-.01.032-.068.058-.014.014-.049.047-.014.015-.064.046-.08.018h-.098l-.014-.064.127-.241.078-.183.196-.061.01-.459Zm-.068-.778-.681-.305-.714-.032c.779-.423,1.463.018,1.395.337m-4.605-4.354.431-.671.73.108h.46l.177.273-.622-.152-.478.062h-.365l-.157.304Zm.285-.047.445-.197Zm.652.915,1.384.226.05.032.505.67-.985-.458Zm-2.67,11.266h-.017l-.189-.108.112.259-.083.047-.127-.015h-.015l-.128-.305-.206-.29.608.243.157.122.049.047Z" transform="translate(0 0.0004)"/>
        </g>
        <rect class="f2cbfdaf-349f-4e33-ba1d-64c0ab106db7" y="302.4024" width="428.60001" height="94.577"/>
        <g class="a6c2aeaf-dc24-44bd-8922-617a093b0de1">
          <path class="e58f0203-eb57-4c7d-b6c0-6cf82be84d4c" d="M298.6554,44.66382c0,1.17-.36,1.62-1.44,1.62h-1.908v-4.86h1.854c1.134,0,1.494.54,1.494,1.998Zm2.268,9.846a9.3229,9.3229,0,0,1-.144-2.106v-2.232a5.14646,5.14646,0,0,0-.144-1.53,1.86083,1.86083,0,0,0-.306-.684,2.292,2.292,0,0,0-1.53-.774,2.1186,2.1186,0,0,0,1.818-1.566,5.0927,5.0927,0,0,0,.162-1.476v-1.026a5.67686,5.67686,0,0,0-.252-1.998,1.96546,1.96546,0,0,0-.468-.81,2.80454,2.80454,0,0,0-2.088-.702h-4.77v14.904h2.106v-6.408h1.872c.99,0,1.476.54,1.476,1.638v2.052a10.88538,10.88538,0,0,0,.18,2.718Zm-11.952-3.726q0,2.214-1.674,2.214t-1.674-2.214v-7.452c0-1.476.558-2.214,1.656-2.214,1.134,0,1.692.738,1.692,2.214Zm-5.454.396c0,2.43,1.26,3.636,3.798,3.636,2.52,0,3.78-1.206,3.78-3.636v-8.172c0-2.502-1.404-3.708-3.798-3.708s-3.78,1.206-3.78,3.708Zm-3.743-6.228a3.69883,3.69883,0,0,1-.306,1.782,1.31351,1.31351,0,0,1-1.224.486h-1.818v-5.796h1.818a1.31358,1.31358,0,0,1,1.224.486,3.69887,3.69887,0,0,1,.306,1.782Zm-3.348,4.104h2.664c1.548-.054,2.286-.558,2.556-1.548a6.86716,6.86716,0,0,0,.252-2.232v-1.89a6.69065,6.69065,0,0,0-.252-2.214,1.80841,1.80841,0,0,0-.45-.846,2.82227,2.82227,0,0,0-2.106-.72h-4.77v14.904h2.106Zm-9.63,1.728q0,2.214-1.674,2.214t-1.674-2.214v-7.452c0-1.476.558-2.214,1.656-2.214,1.134,0,1.692.738,1.692,2.214Zm-5.454.396c0,2.43,1.26,3.636,3.798,3.636,2.52,0,3.78-1.206,3.78-3.636v-8.172c0-2.502-1.404-3.708-3.798-3.708s-3.78,1.206-3.78,3.708Zm-4.086-.756a3.69885,3.69885,0,0,1-.306,1.782,1.3135,1.3135,0,0,1-1.224.486h-1.818v-11.268h1.818a1.31359,1.31359,0,0,1,1.224.486,3.69887,3.69887,0,0,1,.306,1.782Zm-.684,4.086c1.548-.054,2.286-.558,2.556-1.548a6.8673,6.8673,0,0,0,.252-2.232v-7.344a6.69086,6.69086,0,0,0-.252-2.214,1.80858,1.80858,0,0,0-.45-.846,2.8223,2.8223,0,0,0-2.106-.72h-4.77v14.904Zm-9.036-4.284c-.018,1.854-.612,2.772-1.764,2.772-1.098,0-1.584-.828-1.584-1.998v-1.62a1.66345,1.66345,0,0,1,.666-1.53,6.83714,6.83714,0,0,1,2.682-.612Zm2.268,4.284a5.35806,5.35806,0,0,1-.144-1.53v-10.026c0-2.43-1.422-3.654-3.798-3.654s-3.78,1.242-3.78,3.636v1.584h2.106v-1.296q0-2.106,1.674-2.106c1.116,0,1.674.702,1.674,2.088v2.16c-.486.054-.864.108-1.116.144s-.576.09-.954.144a7.59251,7.59251,0,0,0-.864.162,4.28461,4.28461,0,0,0-1.278.468,2.09939,2.09939,0,0,0-1.044,1.26,3.76223,3.76223,0,0,0-.198,1.44v2.358c0,2.178,1.26,3.438,3.042,3.438a2.89019,2.89019,0,0,0,2.484-1.296,4.94026,4.94026,0,0,0,.144,1.026Zm-11.79-3.726c0,1.422-.432,2.214-1.656,2.214q-1.674,0-1.674-2.214v-1.44h-2.124v1.836c0,2.43,1.26,3.636,3.78,3.636,2.538,0,3.798-1.206,3.798-3.636v-11.574h-2.124v4.446c0,1.746-.594,2.628-1.782,2.628-1.026,0-1.548-.702-1.548-2.124v-2.592a8.884,8.884,0,0,0-.18-2.358h-2.07a9.32513,9.32513,0,0,1,.126,2.106v3.258c0,2.502,1.296,3.6,3.078,3.6a2.90014,2.90014,0,0,0,2.376-1.044Zm-9.45,0q0,2.214-1.674,2.214t-1.674-2.214v-7.452c0-1.476.558-2.214,1.656-2.214,1.134,0,1.692.738,1.692,2.214Zm-5.454.396c0,2.43,1.26,3.636,3.798,3.636,2.52,0,3.78-1.206,3.78-3.636v-8.172c0-2.502-1.404-3.708-3.798-3.708s-3.78,1.206-3.78,3.708Zm-3.743-6.228a3.699,3.699,0,0,1-.306,1.782,1.31353,1.31353,0,0,1-1.224.486h-1.818v-5.796h1.818a1.3136,1.3136,0,0,1,1.224.486,3.699,3.699,0,0,1,.306,1.782Zm-3.348,4.104h2.664c1.548-.054,2.286-.558,2.556-1.548a6.868,6.868,0,0,0,.252-2.232v-1.89a6.69144,6.69144,0,0,0-.252-2.214,1.80866,1.80866,0,0,0-.45-.846,2.82235,2.82235,0,0,0-2.106-.72h-4.77v14.904h2.106Zm-6.372,1.17c-.018,1.854-.612,2.772-1.764,2.772-1.098,0-1.584-.828-1.584-1.998v-1.62a1.66347,1.66347,0,0,1,.666-1.53,6.837,6.837,0,0,1,2.682-.612Zm2.268,4.284a5.35855,5.35855,0,0,1-.144-1.53v-10.026c0-2.43-1.422-3.654-3.798-3.654s-3.78,1.242-3.78,3.636v1.584h2.106v-1.296q0-2.106,1.674-2.106c1.116,0,1.674.702,1.674,2.088v2.16c-.486.054-.864.108-1.116.144s-.576.09-.954.144a7.59277,7.59277,0,0,0-.864.162,4.28451,4.28451,0,0,0-1.278.468,2.09947,2.09947,0,0,0-1.044,1.26,3.76242,3.76242,0,0,0-.198,1.44v2.358c0,2.178,1.26,3.438,3.042,3.438a2.89021,2.89021,0,0,0,2.484-1.296,4.94072,4.94072,0,0,0,.144,1.026Zm-14.976-3.726q0,2.214-1.674,2.214t-1.674-2.214v-7.452c0-1.476.558-2.214,1.656-2.214,1.134,0,1.692.738,1.692,2.214Zm-5.454.396c0,2.43,1.26,3.636,3.798,3.636,2.52,0,3.78-1.206,3.78-3.636v-8.172c0-2.502-1.404-3.708-3.798-3.708s-3.78,1.206-3.78,3.708Zm-3.492-9.756h2.142v-1.818h-6.39v1.818h2.124v13.086h2.124Zm-7.542,9.36q0,2.214-1.674,2.214t-1.674-2.214v-7.452c0-1.476.558-2.214,1.656-2.214,1.134,0,1.692.738,1.692,2.214v1.602h2.124v-1.926c0-2.502-1.404-3.708-3.798-3.708s-3.78,1.206-3.78,3.708v8.172c0,2.43,1.26,3.636,3.798,3.636,2.52,0,3.78-1.206,3.78-3.636v-2.484h-2.124Zm-12.798-4.914v-2.538c0-1.476.558-2.214,1.656-2.214,1.134,0,1.692.738,1.692,2.214v2.538Zm3.348,3.492v1.422q0,2.214-1.674,2.214t-1.674-2.214v-3.096h5.472v-4.68c0-2.502-1.404-3.708-3.798-3.708s-3.78,1.206-3.78,3.708v8.172c0,2.43,1.26,3.636,3.798,3.636,2.52,0,3.78-1.206,3.78-3.636v-1.818Zm-9.63,1.422c0,1.422-.432,2.214-1.656,2.214q-1.674,0-1.674-2.214v-1.44h-2.124v1.836c0,2.43,1.26,3.636,3.78,3.636,2.538,0,3.798-1.206,3.798-3.636v-11.574h-2.124v4.446c0,1.746-.594,2.628-1.782,2.628-1.026,0-1.548-.702-1.548-2.124v-2.592a8.88457,8.88457,0,0,0-.18-2.358h-2.07a9.32359,9.32359,0,0,1,.126,2.106v3.258c0,2.502,1.296,3.6,3.078,3.6a2.90012,2.90012,0,0,0,2.376-1.044Zm-9.449,0q0,2.214-1.674,2.214t-1.674-2.214v-7.452c0-1.476.558-2.214,1.656-2.214,1.134,0,1.692.738,1.692,2.214Zm-5.454.396c0,2.43,1.26,3.636,3.798,3.636,2.52,0,3.78-1.206,3.78-3.636v-8.172c0-2.502-1.404-3.708-3.798-3.708s-3.78,1.206-3.78,3.708Zm-3.978-6.516c0,1.17-.36,1.62-1.44,1.62h-1.908v-4.86h1.854c1.134,0,1.494.54,1.494,1.998Zm2.268,9.846a9.32416,9.32416,0,0,1-.144-2.106v-2.232a5.1468,5.1468,0,0,0-.144-1.53,1.86067,1.86067,0,0,0-.306-.684,2.292,2.292,0,0,0-1.53-.774,2.11856,2.11856,0,0,0,1.818-1.566,5.092,5.092,0,0,0,.162-1.476v-1.026a5.67712,5.67712,0,0,0-.252-1.998,1.96536,1.96536,0,0,0-.468-.81,2.80456,2.80456,0,0,0-2.088-.702h-4.77v14.904h2.106v-6.408h1.872c.99,0,1.476.54,1.476,1.638v2.052a10.88643,10.88643,0,0,0,.18,2.718Zm-11.628-9.558a3.699,3.699,0,0,1-.306,1.782,1.31353,1.31353,0,0,1-1.224.486h-1.818v-5.796h1.818a1.3136,1.3136,0,0,1,1.224.486,3.699,3.699,0,0,1,.306,1.782Zm-3.348,4.104h2.664c1.548-.054,2.286-.558,2.556-1.548a6.86739,6.86739,0,0,0,.252-2.232v-1.89a6.69086,6.69086,0,0,0-.252-2.214,1.80849,1.80849,0,0,0-.45-.846,2.82228,2.82228,0,0,0-2.106-.72h-4.77v14.904h2.106Z" transform="translate(0 0.0004)"/>
          <path class="e58f0203-eb57-4c7d-b6c0-6cf82be84d4c" d="M314.0744,343.2105h-9.312v-1.856c0-5.728,9.376-4.16,9.376-12.064v-3.648c0-3.936-2.336-6.24-6.592-6.24-4.064,0-6.528,2.08-6.528,6.432v4.448h3.744v-4.064c0-2.4.928-3.584,2.816-3.584,1.952,0,2.816,1.024,2.816,3.744v2.176c0,6.304-9.376,4.032-9.376,12.096v5.792h13.056Zm-26.976-6.176,5.728-14.272v14.272Zm9.472,3.232h1.792v-3.232h-1.792v-17.088h-6.208l-6.72,16.64v3.68h9.184v6.176h3.744Zm-15.295-2.336c0-2.816-1.024-4.544-3.072-5.216,2.048-.672,3.072-2.336,3.072-4.928v-1.792c0-4.448-2.464-6.592-6.784-6.592-4.224,0-6.688,2.144-6.688,6.592v2.72h3.744v-2.144c0-2.624.992-3.936,2.944-3.936,2.016,0,3.008,1.312,3.008,3.936v1.536c0,2.048-.768,3.04-2.72,3.04h-2.176v3.2h2.176c1.824,0,2.72.96,2.72,2.848v2.624q0,3.936-2.976,3.936t-2.976-3.936v-2.848h-3.744v3.552c0,4.32,2.24,6.464,6.72,6.464,4.512,0,6.752-2.144,6.752-6.464Zm-16.512,0c0-2.816-1.024-4.544-3.072-5.216,2.048-.672,3.072-2.336,3.072-4.928v-1.792c0-4.448-2.464-6.592-6.784-6.592-4.224,0-6.688,2.144-6.688,6.592v2.72h3.744v-2.144c0-2.624.992-3.936,2.944-3.936,2.016,0,3.008,1.312,3.008,3.936v1.536c0,2.048-.768,3.04-2.72,3.04h-2.176v3.2h2.176c1.824,0,2.72.96,2.72,2.848v2.624q0,3.936-2.976,3.936t-2.976-3.936v-2.848h-3.744v3.552c0,4.32,2.24,6.464,6.72,6.464,4.512,0,6.752-2.144,6.752-6.464Zm-20.128,1.888c0,2.624-.992,3.936-3.008,3.936-1.952,0-2.944-1.312-2.944-3.936v-2.336h-3.744v3.04c0,4.32,2.24,6.464,6.72,6.464s6.72-2.144,6.72-6.464v-6.56c0-3.84-1.824-6.368-5.44-6.368a4.87975,4.87975,0,0,0-4.256,2.112v-6.528h9.408v-3.232h-13.152v14.656h3.744c.288-2.592,1.344-3.872,3.168-3.872,1.856,0,2.784,1.248,2.784,3.776Zm-12.896,3.392h-9.312v-1.856c0-5.728,9.376-4.16,9.376-12.064v-3.648c0-3.936-2.336-6.24-6.592-6.24-4.064,0-6.528,2.08-6.528,6.432v4.448h3.744v-4.064c0-2.4.928-3.584,2.816-3.584,1.952,0,2.816,1.024,2.816,3.744v2.176c0,6.304-9.376,4.032-9.376,12.096v5.792h13.056Zm-16-11.648h-9.568v3.232h9.568Zm-16.287-2.624c0,2.08-.64,2.88-2.56,2.88h-3.392v-8.64h3.296c2.016,0,2.656.96,2.656,3.552Zm4.032,17.504a16.57687,16.57687,0,0,1-.256-3.744v-3.968a9.15041,9.15041,0,0,0-.256-2.72,3.30826,3.30826,0,0,0-.544-1.216,4.07469,4.07469,0,0,0-2.72-1.376,3.7663,3.7663,0,0,0,3.232-2.784,9.05264,9.05264,0,0,0,.288-2.624v-1.824a10.09247,10.09247,0,0,0-.448-3.552,3.49436,3.49436,0,0,0-.832-1.44,4.98583,4.98583,0,0,0-3.712-1.248h-8.48v26.496h3.744v-11.392h3.328c1.76,0,2.624.96,2.624,2.912v3.648a19.35209,19.35209,0,0,0,.32,4.832Zm-16.256-3.232h-6.304v-23.264h-3.744v26.496h10.048Zm-17.952-10.016,5.504-13.248h-3.776l-3.616,8.64-3.584-8.64h-3.776l5.504,13.248-5.504,13.248h3.776l3.584-8.64,3.616,8.64h3.776Zm-11.039,10.016h-6.944v-8.864h6.784v-3.232h-6.784v-7.936h6.944v-3.232h-10.688v26.496h10.688Zm-14.304-5.28c0-2.816-1.024-4.544-3.072-5.216,2.048-.672,3.072-2.336,3.072-4.928v-1.792c0-4.448-2.464-6.592-6.784-6.592-4.224,0-6.688,2.144-6.688,6.592v2.72h3.744v-2.144c0-2.624.992-3.936,2.944-3.936,2.016,0,3.008,1.312,3.008,3.936v1.536c0,2.048-.768,3.04-2.72,3.04h-2.176v3.2h2.176c1.824,0,2.72.96,2.72,2.848v2.624q0,3.936-2.976,3.936t-2.976-3.936v-2.848h-3.744v3.552c0,4.32,2.24,6.464,6.72,6.464,4.512,0,6.752-2.144,6.752-6.464Zm-16.416,5.28h-9.312v-1.856c0-5.728,9.376-4.16,9.376-12.064v-3.648c0-3.936-2.336-6.24-6.592-6.24-4.064,0-6.528,2.08-6.528,6.432v4.448h3.744v-4.064c0-2.4.928-3.584,2.816-3.584,1.952,0,2.816,1.024,2.816,3.744v2.176c0,6.304-9.376,4.032-9.376,12.096v5.792h13.056Z" transform="translate(0 0.0004)"/>
        </g>
      </g>
    </g>
  </g>
</svg>
