<svg width="645" height="227" viewBox="0 0 645 227" fill="none" xmlns="http://www.w3.org/2000/svg">
<path d="M219.124 195.076C209.299 192.892 207.46 178.381 207.752 170.251C208.518 148.773 214.175 128.5 223.331 108.96C223.375 108.87 223.452 108.801 223.545 108.766C223.641 108.73 223.748 108.732 223.842 108.773C223.936 108.814 224.011 108.89 224.05 108.985C229.842 124.218 234.276 139.934 237.299 155.949C239.756 168.964 244.137 200.634 219.124 195.076ZM381.862 66.7656C375.639 33.246 346.508 7.37654 311.695 4.1999C284.101 1.68537 259.251 13.7193 240.006 32.092C236.774 35.184 233.525 38.2628 230.257 41.3283C229.957 41.6138 229.712 41.5719 229.527 41.2058L219.027 20.3637L216.711 15.9395C216.675 15.9125 216.635 15.8898 216.594 15.8718L211.079 5.69104C207.939 -0.104927 203.396 -1.47379 197.449 1.58453L187.251 6.82325C181.304 9.87811 179.898 14.3026 183.034 20.0967L191.947 36.5501L191.972 36.5348C197.848 47.5865 201.345 55.1317 208.092 70.0786C208.201 70.3037 208.249 70.5535 208.231 70.8029C208.213 71.0524 208.131 71.2929 207.991 71.5004C192.117 96.6858 181.699 124.92 177.411 154.38C172.688 186.27 181.832 225.592 222.877 226.243C230.002 226.451 237.09 225.142 243.672 222.404C275.537 208.788 273.106 168.545 266.406 140.9C260.918 118.25 253.502 96.1116 244.239 74.7262C244.159 74.5556 244.127 74.3668 244.144 74.1794C244.162 73.9919 244.229 73.8127 244.34 73.6601C255.599 57.3946 274.114 40.1865 293.735 35.588C317.766 29.9711 343.333 44.9704 349.983 68.3971C351.15 72.5036 351.734 78.5835 351.735 86.6367C351.726 132.404 351.732 167.133 351.748 212.925C351.747 213.024 351.763 213.122 351.795 213.216V214.961C351.795 221.458 355.13 224.705 361.799 224.703H373.232C379.899 224.703 383.234 221.456 383.235 214.961V196.515H383.225C383.231 160.041 383.235 129.837 383.235 91.2239C383.227 79.8077 382.769 71.6549 381.862 66.7656Z" fill="#002C3C"/>
<path d="M70.6593 81.0061C70.6593 88.6513 69.1872 94.0669 66.2431 97.2529C63.2988 100.438 58.8826 102.031 52.9947 102.032H35.9841V33.5372H52.9947C58.8826 33.5372 63.2987 35.1303 66.2431 38.3163C69.1875 41.5018 70.6596 46.9177 70.6593 54.564V81.0061ZM52.9947 1.67969H11.4492C3.81285 1.67969 -0.00354594 5.39642 2.47213e-06 12.8298V213.534C2.47213e-06 220.97 3.8164 224.687 11.4492 224.684H24.534C32.1656 224.684 35.9822 220.967 35.9841 213.534V133.89H52.9947C88.7586 133.89 106.642 115.518 106.643 78.7762V56.7938C106.643 20.0533 88.7605 1.68184 52.9947 1.67969Z" fill="#002C3C"/>
<path d="M150.792 1.67969H137.706C130.071 1.67969 126.255 5.39642 126.258 12.8298V213.534C126.258 220.97 130.074 224.687 137.706 224.684H150.792C158.423 224.684 162.24 220.967 162.242 213.534V12.8298C162.242 5.39828 158.425 1.68155 150.792 1.67969Z" fill="#002C3C"/>
<path d="M472.614 171.163C472.614 185.608 466.508 192.829 454.295 192.826H435.975V33.5372H454.295C466.506 33.5372 472.613 40.7585 472.614 55.2011V171.163ZM454.95 1.67969H411.441C403.805 1.67969 399.989 5.39642 399.992 12.8298V213.534C399.992 220.97 403.809 224.687 411.441 224.684H454.95C490.714 224.684 508.597 206.313 508.599 169.57V56.7938C508.599 20.0533 490.716 1.68184 454.95 1.67969Z" fill="#002C3C"/>
<path d="M566.16 150.774L582.516 40.5469H583.17L599.854 150.774H566.16ZM644.671 212.259L610.322 11.8742C609.229 5.07976 605.194 1.68156 598.219 1.67969H570.412C563.431 1.67969 559.396 5.07789 558.309 11.8742L523.96 212.259C523.776 213.205 523.667 214.164 523.633 215.127C523.633 221.499 527.231 224.685 534.428 224.685H544.569C551.981 224.685 556.124 221.286 557 214.489L561.907 181.039H604.107V180.402L609.014 214.489C609.883 221.289 614.026 224.688 621.445 224.685H634.203C641.399 224.685 644.997 221.499 644.997 215.127C644.961 214.164 644.851 213.206 644.671 212.259Z" fill="#002C3C"/>
</svg>
