<svg width="1030" height="212" viewBox="0 0 1030 212" fill="none" xmlns="http://www.w3.org/2000/svg">
<path d="M989.766 175.227V143.024C989.766 134.065 995.94 127.891 1004.9 127.891H1014.58C1023.42 127.891 1029.72 134.065 1029.72 143.024V175.227C1029.72 184.065 1023.42 190.36 1014.58 190.36H1004.9C995.94 190.36 989.766 184.065 989.766 175.227ZM1001.39 144.113V173.896C1001.39 177.164 1003.69 179.465 1006.96 179.465H1012.53C1015.67 179.465 1018.09 177.164 1018.09 173.896V144.113C1018.09 140.845 1015.67 138.544 1012.53 138.544H1006.96C1003.69 138.544 1001.39 140.845 1001.39 144.113Z" fill="#002D3C"/>
<path d="M959.423 105.258H968.382C969.108 105.258 969.713 105.863 969.713 106.59V188.551C969.713 189.398 969.108 190.004 968.382 190.004H962.449C961.723 190.004 961.239 189.398 961.118 188.551L960.512 184.556C958.696 188.067 955.549 190.367 950.827 190.367H943.442C934.967 190.367 929.156 184.556 929.156 176.202V142.062C929.156 133.708 934.967 127.897 943.442 127.897H949.98C953.127 127.897 955.912 128.745 958.091 130.561V106.59C958.091 105.863 958.696 105.258 959.423 105.258ZM957.97 173.418V144.604C957.97 141.093 955.427 138.43 951.796 138.43H946.59C943.321 138.43 941.021 140.851 941.021 144.12V174.023C941.021 177.292 943.321 179.592 946.59 179.592H951.796C955.427 179.592 957.97 177.05 957.97 173.418Z" fill="#002D3C"/>
<path d="M897.164 120.873V111.672C897.164 110.824 897.648 110.219 898.496 110.219H907.697C908.544 110.219 909.15 110.824 909.15 111.672V120.873C909.15 121.599 908.544 122.204 907.697 122.204H898.496C897.648 122.204 897.164 121.599 897.164 120.873ZM897.164 188.548V129.589C897.164 128.863 897.769 128.258 898.617 128.258H907.697C908.423 128.258 909.029 128.863 909.029 129.589V188.548C909.029 189.396 908.423 190.001 907.697 190.001H898.617C897.769 190.001 897.164 189.396 897.164 188.548Z" fill="#002D3C"/>
<path d="M866.337 105.258H875.296C876.022 105.258 876.627 105.863 876.627 106.59V188.551C876.627 189.398 876.022 190.004 875.296 190.004H869.363C868.637 190.004 868.153 189.398 868.032 188.551L867.426 184.556C865.61 188.067 862.463 190.367 857.741 190.367H850.356C841.881 190.367 836.07 184.556 836.07 176.202V142.062C836.07 133.708 841.881 127.897 850.356 127.897H856.894C860.041 127.897 862.826 128.745 865.005 130.561V106.59C865.005 105.863 865.61 105.258 866.337 105.258ZM864.884 173.418V144.604C864.884 141.093 862.342 138.43 858.71 138.43H853.504C850.235 138.43 847.935 140.851 847.935 144.12V174.023C847.935 177.292 850.235 179.592 853.504 179.592H858.71C862.342 179.592 864.884 177.05 864.884 173.418Z" fill="#002D3C"/>
<path d="M815.624 164.573H788.263V173.774C788.263 177.164 790.563 179.343 793.832 179.343H800.127C803.396 179.343 805.696 177.164 805.696 173.774V172.443C805.696 171.595 806.181 170.99 807.028 170.99H815.624C816.471 170.99 817.077 171.595 817.077 172.443V175.227C817.077 184.065 810.781 190.239 801.943 190.239H791.774C782.815 190.239 776.641 184.065 776.641 175.227V143.024C776.641 134.065 782.815 127.891 791.774 127.891H801.943C810.781 127.891 817.077 134.065 817.077 143.024V163.121C817.077 163.968 816.471 164.573 815.624 164.573ZM800.127 138.544H793.832C790.563 138.544 788.263 140.845 788.263 144.113V154.162H805.696V144.113C805.696 140.845 803.396 138.544 800.127 138.544Z" fill="#002D3C"/>
<path d="M735.394 127.891H742.9C751.254 127.891 757.065 133.702 757.065 142.055V176.196C757.065 184.549 751.254 190.36 742.9 190.36H736.363C733.094 190.36 730.43 189.513 728.251 187.818V210.457C728.251 211.184 727.646 211.789 726.798 211.789H717.961C717.113 211.789 716.508 211.184 716.508 210.457V129.586C716.508 128.859 717.113 128.254 717.961 128.254H723.772C724.619 128.254 725.103 128.859 725.224 129.586L725.709 132.491C728.009 129.343 731.399 127.891 735.394 127.891ZM745.2 173.896V144.113C745.2 140.845 742.9 138.544 739.631 138.544H734.547C730.794 138.544 728.251 141.087 728.251 144.719V173.29C728.251 176.922 730.915 179.465 734.547 179.465H739.631C742.9 179.465 745.2 177.164 745.2 173.896Z" fill="#002D3C"/>
<path d="M626.719 175.227V143.024C626.719 134.065 632.893 127.891 641.852 127.891H651.537C660.375 127.891 666.67 134.065 666.67 143.024V175.227C666.67 184.065 660.375 190.36 651.537 190.36H641.852C632.893 190.36 626.719 184.065 626.719 175.227ZM638.341 144.113V173.896C638.341 177.164 640.641 179.465 643.91 179.465H649.479C652.627 179.465 655.048 177.164 655.048 173.896V144.113C655.048 140.845 652.627 138.544 649.479 138.544H643.91C640.641 138.544 638.341 140.845 638.341 144.113Z" fill="#002D3C"/>
<path d="M585.868 127.891H592.648C601.001 127.891 606.813 133.702 606.813 141.934V188.544C606.813 189.392 606.207 189.997 605.36 189.997H596.28C595.554 189.997 594.948 189.392 594.948 188.544V144.113C594.948 140.845 592.648 138.544 589.5 138.544H585.263C581.752 138.544 579.21 141.087 579.21 144.598V188.544C579.21 189.392 578.604 189.997 577.878 189.997H569.282C568.435 189.997 567.83 189.392 567.83 188.544V144.234C567.83 140.845 565.529 138.544 562.382 138.544H558.144C554.512 138.544 551.97 141.087 551.97 144.598V188.544C551.97 189.392 551.486 189.997 550.638 189.997H541.679C540.832 189.997 540.227 189.392 540.227 188.544V129.586C540.227 128.859 540.832 128.254 541.679 128.254H547.49C548.338 128.254 548.822 128.859 548.943 129.586L549.306 132.491C551.607 129.586 554.875 127.891 558.75 127.891H565.045C569.767 127.891 573.156 129.464 575.336 132.733C577.515 129.101 581.873 127.891 585.868 127.891Z" fill="#002D3C"/>
<path d="M507.75 120.873V111.672C507.75 110.824 508.234 110.219 509.082 110.219H518.283C519.13 110.219 519.735 110.824 519.735 111.672V120.873C519.735 121.599 519.13 122.204 518.283 122.204H509.082C508.234 122.204 507.75 121.599 507.75 120.873ZM507.75 188.548V129.589C507.75 128.863 508.355 128.258 509.203 128.258H518.283C519.009 128.258 519.614 128.863 519.614 129.589V188.548C519.614 189.396 519.009 190.001 518.283 190.001H509.203C508.355 190.001 507.75 189.396 507.75 188.548Z" fill="#002D3C"/>
<path d="M457.627 190.001H448.789C447.941 190.001 447.336 189.396 447.336 188.548V173.778L461.137 158.524L447.336 144.238V129.59C447.336 128.863 447.941 128.258 448.789 128.258H457.627C458.474 128.258 458.958 128.863 458.958 129.59V140.122L468.038 149.929L477.118 140.122V129.59C477.118 128.863 477.723 128.258 478.45 128.258H487.409C488.135 128.258 488.74 128.863 488.74 129.59V144.238L474.939 158.524L488.74 173.778V188.548C488.74 189.396 488.135 190.001 487.409 190.001H478.45C477.723 190.001 477.118 189.396 477.118 188.548V177.895L468.038 167.362L458.958 177.895V188.548C458.958 189.396 458.474 190.001 457.627 190.001Z" fill="#002D3C"/>
<path d="M404.125 123.172H412.237C412.842 123.172 413.569 122.809 413.932 122.325L422.648 109.492C423.496 108.523 423.133 107.797 421.922 107.797H412.721C411.874 107.797 411.389 108.039 411.026 108.644L403.278 121.477C402.673 122.325 402.915 123.172 404.125 123.172ZM388.992 175.23V143.027C388.992 134.068 395.167 127.894 404.125 127.894H413.811C422.648 127.894 428.944 134.068 428.944 143.027V175.23C428.944 184.068 422.648 190.364 413.811 190.364H404.125C395.167 190.364 388.992 184.068 388.992 175.23ZM400.614 144.117V173.899C400.614 177.167 402.915 179.468 406.183 179.468H411.753C414.9 179.468 417.322 177.167 417.322 173.899V144.117C417.322 140.848 414.9 138.548 411.753 138.548H406.183C402.915 138.548 400.614 140.848 400.614 144.117Z" fill="#002D3C"/>
<path d="M365.125 127.891H373.357C374.083 127.891 374.689 128.496 374.689 129.222V137.576C374.689 138.423 374.083 139.029 373.357 139.029H364.398C360.766 139.029 358.345 141.45 358.345 144.961V188.544C358.345 189.392 357.861 189.997 357.013 189.997H348.054C347.207 189.997 346.602 189.392 346.602 188.544V129.586C346.602 128.859 347.207 128.254 348.054 128.254H353.865C354.713 128.254 355.197 128.859 355.318 129.586L355.803 132.491C357.982 129.343 361.25 127.891 365.125 127.891Z" fill="#002D3C"/>
<path d="M304.871 127.891H312.377C320.73 127.891 326.541 133.702 326.541 142.055V176.196C326.541 184.549 320.73 190.36 312.377 190.36H305.839C302.57 190.36 299.907 189.513 297.728 187.818V210.457C297.728 211.184 297.122 211.789 296.275 211.789H287.437C286.59 211.789 285.984 211.184 285.984 210.457V129.586C285.984 128.859 286.59 128.254 287.437 128.254H293.248C294.096 128.254 294.58 128.859 294.701 129.586L295.185 132.491C297.486 129.343 300.875 127.891 304.871 127.891ZM314.677 173.896V144.113C314.677 140.845 312.377 138.544 309.108 138.544H304.023C300.27 138.544 297.728 141.087 297.728 144.719V173.29C297.728 176.922 300.391 179.465 304.023 179.465H309.108C312.377 179.465 314.677 177.164 314.677 173.896Z" fill="#002D3C"/>
<path d="M225.29 128.258H234.249C234.975 128.258 235.58 128.863 235.58 129.59V176.563C235.58 184.553 228.195 190.364 220.084 190.364H210.036C202.045 190.364 195.023 184.553 195.023 176.563V129.59C195.023 128.863 195.629 128.258 196.476 128.258H205.556C206.283 128.258 206.888 128.863 206.888 129.59V173.9C206.888 177.168 209.188 179.469 212.457 179.469H217.663C221.295 179.469 223.837 176.926 223.837 173.294V129.59C223.837 128.863 224.442 128.258 225.29 128.258Z" fill="#002D3C"/>
<path d="M172.049 178.86H177.375C178.223 178.86 178.707 179.465 178.707 180.192V188.545C178.707 189.393 178.223 189.998 177.375 189.998H169.385C160.911 189.998 154.736 183.824 154.736 175.47V138.666H146.988C146.262 138.666 145.656 138.182 145.656 137.334V129.586C145.656 128.86 146.262 128.254 146.988 128.254H154.736V115.3C154.736 114.574 155.342 113.969 156.189 113.969H165.269C165.995 113.969 166.601 114.574 166.601 115.3V128.254H176.77C177.618 128.254 178.223 128.86 178.223 129.586V137.334C178.223 138.182 177.618 138.666 176.77 138.666H166.601V173.291C166.601 176.56 168.901 178.86 172.049 178.86Z" fill="#002D3C"/>
<path d="M78.894 127.891H86.4001C94.7536 127.891 100.565 133.702 100.565 142.055V188.544C100.565 189.392 99.9595 189.997 99.2331 189.997H90.1531C89.3057 189.997 88.7003 189.392 88.7003 188.544V144.113C88.7003 140.845 86.4001 138.544 83.1313 138.544H78.0466C74.4146 138.544 71.7512 141.087 71.7512 144.719V188.544C71.7512 189.392 71.2669 189.997 70.4194 189.997H61.4606C60.6131 189.997 60.0078 189.392 60.0078 188.544V129.586C60.0078 128.859 60.6131 128.254 61.4606 128.254H67.2717C68.1192 128.254 68.6035 128.859 68.7245 129.586L69.2088 132.491C71.509 129.343 74.8989 127.891 78.894 127.891Z" fill="#002D3C"/>
<path d="M39.0768 164.573H11.716V173.774C11.716 177.164 14.0163 179.343 17.285 179.343H23.5804C26.8492 179.343 29.1495 177.164 29.1495 173.774V172.443C29.1495 171.595 29.6337 170.99 30.4812 170.99H39.0768C39.9243 170.99 40.5296 171.595 40.5296 172.443V175.227C40.5296 184.065 34.2342 190.239 25.3965 190.239H15.2269C6.26808 190.239 0.09375 184.065 0.09375 175.227V143.024C0.09375 134.065 6.26808 127.891 15.2269 127.891H25.3965C34.2342 127.891 40.5296 134.065 40.5296 143.024V163.121C40.5296 163.968 39.9243 164.573 39.0768 164.573ZM23.5804 138.544H17.285C14.0163 138.544 11.716 140.845 11.716 144.113V154.162H29.1495V144.113C29.1495 140.845 26.8492 138.544 23.5804 138.544Z" fill="#002D3C"/>
<path d="M1004.18 22.8906H1014.71C1023.19 22.8906 1029.36 29.065 1029.36 37.5396V83.5445C1029.36 84.3919 1028.76 84.9973 1027.91 84.9973H1022.1C1021.25 84.9973 1020.89 84.3919 1020.77 83.5445L1020.28 79.9125C1018.47 83.1813 1015.08 85.3605 1010.84 85.3605H1002.36C993.889 85.3605 988.078 79.5493 988.078 71.1958V61.3895C988.078 53.0359 993.889 47.2248 1002.36 47.2248H1010.23C1013.26 47.2248 1015.8 48.0723 1017.74 49.7672V39.1134C1017.74 35.8446 1015.44 33.5444 1012.17 33.5444H1006.12C1002.73 33.5444 1000.55 35.7236 1000.55 39.1134V39.8398C1000.55 40.6873 999.943 41.2926 999.216 41.2926H990.863C990.015 41.2926 989.41 40.6873 989.41 39.8398V37.5396C989.41 29.065 995.705 22.8906 1004.18 22.8906ZM1017.62 68.1691V63.3265C1017.62 59.8156 1015.08 57.3943 1011.56 57.3943H1005.51C1002.12 57.3943 999.7 59.8156 999.7 63.0844V68.4113C999.7 71.8011 1002.12 74.2224 1005.51 74.2224H1011.69C1015.2 74.2224 1017.62 71.8011 1017.62 68.1691Z" fill="#002D3C"/>
<path d="M959.188 0.257812H968.147C968.874 0.257812 969.479 0.86314 969.479 1.58954V83.5509C969.479 84.3984 968.874 85.0037 968.147 85.0037H962.215C961.489 85.0037 961.004 84.3984 960.883 83.5509L960.278 79.5558C958.462 83.0667 955.314 85.3669 950.593 85.3669H943.208C934.733 85.3669 928.922 79.5558 928.922 71.2022V37.0617C928.922 28.7082 934.733 22.8971 943.208 22.8971H949.745C952.893 22.8971 955.677 23.7445 957.857 25.5605V1.58954C957.857 0.86314 958.462 0.257812 959.188 0.257812ZM957.735 68.4177V39.6041C957.735 36.0932 955.193 33.4298 951.561 33.4298H946.355C943.087 33.4298 940.786 35.8511 940.786 39.1199V69.0231C940.786 72.2918 943.087 74.5921 946.355 74.5921H951.561C955.193 74.5921 957.735 72.0497 957.735 68.4177Z" fill="#002D3C"/>
<path d="M896.93 15.8725V6.67154C896.93 5.82408 897.414 5.21875 898.261 5.21875H907.462C908.31 5.21875 908.915 5.82408 908.915 6.67154V15.8725C908.915 16.5989 908.31 17.2042 907.462 17.2042H898.261C897.414 17.2042 896.93 16.5989 896.93 15.8725ZM896.93 83.5482V24.5892C896.93 23.8628 897.535 23.2575 898.383 23.2575H907.462C908.189 23.2575 908.794 23.8628 908.794 24.5892V83.5482C908.794 84.3956 908.189 85.001 907.462 85.001H898.383C897.535 85.001 896.93 84.3956 896.93 83.5482Z" fill="#002D3C"/>
<path d="M863.123 85.3605H853.922C844.964 85.3605 838.789 79.065 838.789 70.2273V38.0238C838.789 29.065 844.964 22.8906 853.922 22.8906H863.123C871.961 22.8906 878.256 29.065 878.256 38.0238V42.2611C878.256 43.1086 877.651 43.5928 876.804 43.5928H868.087C867.361 43.5928 866.755 43.1086 866.755 42.2611V39.1134C866.755 35.8446 864.455 33.5444 861.186 33.5444H855.98C852.712 33.5444 850.411 35.8446 850.411 39.1134V68.8955C850.411 72.1643 852.712 74.4646 855.98 74.4646H861.186C864.455 74.4646 866.755 72.1643 866.755 68.8955V65.6268C866.755 64.7793 867.361 64.174 868.087 64.174H876.804C877.651 64.174 878.256 64.7793 878.256 65.6268V70.2273C878.256 79.065 871.961 85.3605 863.123 85.3605Z" fill="#002D3C"/>
<path d="M801.303 18.1722H793.192C792.102 18.1722 791.86 17.3247 792.344 16.4773L800.093 3.64433C800.456 3.039 800.94 2.79688 801.787 2.79688H811.109C812.199 2.79688 812.562 3.52327 811.715 4.49179L802.998 17.3247C802.635 17.809 801.909 18.1722 801.303 18.1722ZM808.446 23.257H817.405C818.131 23.257 818.737 23.8623 818.737 24.5887V71.5621C818.737 79.5524 811.352 85.3636 803.24 85.3636H793.192C785.201 85.3636 778.18 79.5524 778.18 71.5621V24.5887C778.18 23.8623 778.785 23.257 779.632 23.257H788.712C789.439 23.257 790.044 23.8623 790.044 24.5887V68.8987C790.044 72.1674 792.344 74.4677 795.613 74.4677H800.819C804.451 74.4677 806.993 71.9253 806.993 68.2934V24.5887C806.993 23.8623 807.599 23.257 808.446 23.257Z" fill="#002D3C"/>
<path d="M726.843 0.257812H736.286C737.013 0.257812 737.618 0.86314 737.618 1.58954V73.6235H761.226C762.074 73.6235 762.558 74.1078 762.558 74.9553V83.5509C762.558 84.3984 762.074 85.0037 761.226 85.0037H726.843C725.996 85.0037 725.391 84.3984 725.391 83.5509V1.58954C725.391 0.86314 725.996 0.257812 726.843 0.257812Z" fill="#002D3C"/>
<path d="M674.1 59.5735H646.739V68.7745C646.739 72.1643 649.04 74.3435 652.308 74.3435H658.604C661.873 74.3435 664.173 72.1643 664.173 68.7745V67.4428C664.173 66.5953 664.657 65.99 665.505 65.99H674.1C674.948 65.99 675.553 66.5953 675.553 67.4428V70.2273C675.553 79.065 669.258 85.2394 660.42 85.2394H650.25C641.292 85.2394 635.117 79.065 635.117 70.2273V38.0238C635.117 29.065 641.292 22.8906 650.25 22.8906H660.42C669.258 22.8906 675.553 29.065 675.553 38.0238V58.1207C675.553 58.9682 674.948 59.5735 674.1 59.5735ZM658.604 33.5444H652.308C649.04 33.5444 646.739 35.8446 646.739 39.1134V49.1619H664.173V39.1134C664.173 35.8446 661.873 33.5444 658.604 33.5444Z" fill="#002D3C"/>
<path d="M612.385 73.8599H617.711C618.559 73.8599 619.043 74.4652 619.043 75.1916V83.5451C619.043 84.3926 618.559 84.9979 617.711 84.9979H609.721C601.246 84.9979 595.072 78.8236 595.072 70.4701V33.6661H587.324C586.598 33.6661 585.992 33.1819 585.992 32.3344V24.5862C585.992 23.8598 586.598 23.2545 587.324 23.2545H595.072V10.3005C595.072 9.57408 595.677 8.96875 596.525 8.96875H605.605C606.331 8.96875 606.937 9.57408 606.937 10.3005V23.2545H617.106C617.954 23.2545 618.559 23.8598 618.559 24.5862V32.3344C618.559 33.1819 617.954 33.6661 617.106 33.6661H606.937V68.2909C606.937 71.5596 609.237 73.8599 612.385 73.8599Z" fill="#002D3C"/>
<path d="M549.097 22.8906H556.603C564.957 22.8906 570.768 28.7018 570.768 37.0553V83.5445C570.768 84.3919 570.163 84.9973 569.436 84.9973H560.356C559.509 84.9973 558.903 84.3919 558.903 83.5445V39.1134C558.903 35.8446 556.603 33.5444 553.334 33.5444H548.25C544.618 33.5444 541.954 36.0868 541.954 39.7187V83.5445C541.954 84.3919 541.47 84.9973 540.623 84.9973H531.664C530.816 84.9973 530.211 84.3919 530.211 83.5445V24.5855C530.211 23.8591 530.816 23.2538 531.664 23.2538H537.475C538.322 23.2538 538.807 23.8591 538.928 24.5855L539.412 27.4911C541.712 24.3434 545.102 22.8906 549.097 22.8906Z" fill="#002D3C"/>
<path d="M509.28 59.5735H481.919V68.7745C481.919 72.1643 484.219 74.3435 487.488 74.3435H493.784C497.052 74.3435 499.353 72.1643 499.353 68.7745V67.4428C499.353 66.5953 499.837 65.99 500.684 65.99H509.28C510.127 65.99 510.733 66.5953 510.733 67.4428V70.2273C510.733 79.065 504.437 85.2394 495.6 85.2394H485.43C476.471 85.2394 470.297 79.065 470.297 70.2273V38.0238C470.297 29.065 476.471 22.8906 485.43 22.8906H495.6C504.437 22.8906 510.733 29.065 510.733 38.0238V58.1207C510.733 58.9682 510.127 59.5735 509.28 59.5735ZM493.784 33.5444H487.488C484.219 33.5444 481.919 35.8446 481.919 39.1134V49.1619H499.353V39.1134C499.353 35.8446 497.052 33.5444 493.784 33.5444Z" fill="#002D3C"/>
<path d="M393.943 85.0037H384.5C383.652 85.0037 383.047 84.3984 383.047 83.5509V68.902L391.037 1.46847C391.158 0.742077 391.643 0.257812 392.248 0.257812H404.233C404.96 0.257812 405.444 0.621011 405.565 1.3474L417.672 54.132L429.899 1.3474C430.02 0.621011 430.505 0.257812 431.11 0.257812H443.095C443.822 0.257812 444.306 0.742077 444.427 1.46847L452.296 68.902V83.5509C452.296 84.3984 451.812 85.0037 450.965 85.0037H441.522C440.674 85.0037 440.19 84.3984 440.19 83.5509V71.8076L435.347 19.3862L433.531 30.2821L423.967 68.5388C423.846 69.1441 423.241 69.6284 422.635 69.6284H412.829C412.103 69.6284 411.618 69.1441 411.497 68.5388L401.933 30.2821L400.117 19.3862L395.275 71.8076V83.5509C395.275 84.3984 394.669 85.0037 393.943 85.0037Z" fill="#002D3C"/>
<path d="M309.844 22.8906H320.377C328.851 22.8906 335.026 29.065 335.026 37.5396V83.5445C335.026 84.3919 334.42 84.9973 333.573 84.9973H327.762C326.914 84.9973 326.551 84.3919 326.43 83.5445L325.946 79.9125C324.13 83.1813 320.74 85.3605 316.503 85.3605H308.028C299.553 85.3605 293.742 79.5493 293.742 71.1958V61.3895C293.742 53.0359 299.553 47.2248 308.028 47.2248H315.897C318.924 47.2248 321.466 48.0723 323.403 49.7672V39.1134C323.403 35.8446 321.103 33.5444 317.834 33.5444H311.781C308.391 33.5444 306.212 35.7236 306.212 39.1134V39.8398C306.212 40.6873 305.607 41.2926 304.88 41.2926H296.527C295.679 41.2926 295.074 40.6873 295.074 39.8398V37.5396C295.074 29.065 301.369 22.8906 309.844 22.8906ZM323.282 68.1691V63.3265C323.282 59.8156 320.74 57.3943 317.229 57.3943H311.176C307.786 57.3943 305.365 59.8156 305.365 63.0844V68.4113C305.365 71.8011 307.786 74.2224 311.176 74.2224H317.35C320.861 74.2224 323.282 71.8011 323.282 68.1691Z" fill="#002D3C"/>
<path d="M272.479 15.5048L278.533 20.4685C279.38 21.0738 279.501 22.2844 278.775 23.1319L273.085 29.9116C274.416 32.2118 275.143 34.9963 275.143 38.023V53.7615C275.143 62.5993 268.847 68.8947 260.01 68.8947H251.535L249.114 74.5848H255.288C265.579 74.5848 276.354 73.9794 276.354 90.3233C276.354 101.582 272.116 107.272 254.562 107.272C238.581 107.272 234.828 100.735 234.707 91.0497C234.707 89.9601 235.554 89.2337 236.523 89.2337H243.666C244.634 89.2337 245.482 89.9601 245.603 91.0497C245.845 94.8027 247.661 96.6187 255.046 96.6187C262.915 96.6187 264.731 95.1659 264.731 91.0497C264.731 85.4807 261.462 85.4807 254.804 85.4807H243.424C242.697 85.4807 242.092 84.9964 241.85 84.27L238.944 75.1901C238.823 74.8269 238.944 74.4637 239.065 74.1005L242.334 67.1998C237.491 64.7784 234.586 59.9358 234.586 53.7615V38.023C234.586 29.0641 240.76 22.8898 249.719 22.8898H260.01C261.826 22.8898 263.642 23.1319 265.216 23.7372L269.816 15.7469C270.3 15.0205 271.753 14.8994 272.479 15.5048ZM263.521 52.4298V39.1126C263.521 35.8438 261.099 33.5435 257.952 33.5435H251.777C248.508 33.5435 246.208 35.8438 246.208 39.1126V52.4298C246.208 55.6985 248.508 57.9988 251.777 57.9988H257.952C261.099 57.9988 263.521 55.6985 263.521 52.4298Z" fill="#002D3C"/>
<path d="M214.139 59.5735H186.779V68.7745C186.779 72.1643 189.079 74.3435 192.348 74.3435H198.643C201.912 74.3435 204.212 72.1643 204.212 68.7745V67.4428C204.212 66.5953 204.696 65.99 205.544 65.99H214.139C214.987 65.99 215.592 66.5953 215.592 67.4428V70.2273C215.592 79.065 209.297 85.2394 200.459 85.2394H190.289C181.331 85.2394 175.156 79.065 175.156 70.2273V38.0238C175.156 29.065 181.331 22.8906 190.289 22.8906H200.459C209.297 22.8906 215.592 29.065 215.592 38.0238V58.1207C215.592 58.9682 214.987 59.5735 214.139 59.5735ZM198.643 33.5444H192.348C189.079 33.5444 186.779 35.8446 186.779 39.1134V49.1619H204.212V39.1134C204.212 35.8446 201.912 33.5444 198.643 33.5444Z" fill="#002D3C"/>
<path d="M151.281 22.8906H159.513C160.24 22.8906 160.845 23.496 160.845 24.2223V32.5759C160.845 33.4233 160.24 34.0287 159.513 34.0287H150.554C146.922 34.0287 144.501 36.45 144.501 39.9609V83.5445C144.501 84.3919 144.017 84.9973 143.169 84.9973H134.211C133.363 84.9973 132.758 84.3919 132.758 83.5445V24.5855C132.758 23.8591 133.363 23.2538 134.211 23.2538H140.022C140.869 23.2538 141.353 23.8591 141.475 24.5855L141.959 27.4911C144.138 24.3434 147.407 22.8906 151.281 22.8906Z" fill="#002D3C"/>
<path d="M109.558 15.5048L115.611 20.4685C116.458 21.0738 116.579 22.2844 115.853 23.1319L110.163 29.9116C111.495 32.2118 112.221 34.9963 112.221 38.023V53.7615C112.221 62.5993 105.926 68.8947 97.0878 68.8947H88.6132L86.1919 74.5848H92.3663C102.657 74.5848 113.432 73.9794 113.432 90.3233C113.432 101.582 109.194 107.272 91.6399 107.272C75.6592 107.272 71.9062 100.735 71.7851 91.0497C71.7851 89.9601 72.6326 89.2337 73.6011 89.2337H80.744C81.7125 89.2337 82.5599 89.9601 82.681 91.0497C82.9231 94.8027 84.7391 96.6187 92.1241 96.6187C99.9934 96.6187 101.809 95.1659 101.809 91.0497C101.809 85.4807 98.5406 85.4807 91.882 85.4807H80.5018C79.7754 85.4807 79.1701 84.9964 78.928 84.27L76.0224 75.1901C75.9013 74.8269 76.0224 74.4637 76.1435 74.1005L79.4122 67.1998C74.5696 64.7784 71.6641 59.9358 71.6641 53.7615V38.023C71.6641 29.0641 77.8384 22.8898 86.7972 22.8898H97.0878C98.9038 22.8898 100.72 23.1319 102.294 23.7372L106.894 15.7469C107.378 15.0205 108.831 14.8994 109.558 15.5048ZM100.599 52.4298V39.1126C100.599 35.8438 98.1774 33.5435 95.0297 33.5435H88.8553C85.5866 33.5435 83.2863 35.8438 83.2863 39.1126V52.4298C83.2863 55.6985 85.5866 57.9988 88.8553 57.9988H95.0297C98.1774 57.9988 100.599 55.6985 100.599 52.4298Z" fill="#002D3C"/>
<path d="M42.6638 1.46847L54.4072 68.0545V83.5509C54.4072 84.3984 53.9229 85.0037 53.0754 85.0037H43.6323C42.7849 85.0037 42.3006 84.3984 42.3006 83.5509V70.5969H20.2667V83.5509C20.2667 84.3984 19.6614 85.0037 18.935 85.0037H9.49185C8.64439 85.0037 8.03906 84.3984 8.03906 83.5509V68.0545L19.7824 1.46847C19.9035 0.742077 20.6299 0.257812 21.3563 0.257812H41.211C41.9374 0.257812 42.5428 0.742077 42.6638 1.46847ZM29.3466 13.6961L22.4459 59.0957H40.1214L33.2207 13.6961H29.3466Z" fill="#002D3C"/>
</svg>
