<svg width="840" height="493" viewBox="0 0 840 493" fill="none" xmlns="http://www.w3.org/2000/svg">
<path d="M833.365 449.9H808.505V458.26C808.505 461.34 810.595 463.32 813.565 463.32H819.285C822.255 463.32 824.345 461.34 824.345 458.26V457.05C824.345 456.28 824.785 455.73 825.555 455.73H833.365C834.135 455.73 834.685 456.28 834.685 457.05V459.58C834.685 467.61 828.965 473.22 820.935 473.22H811.695C803.555 473.22 797.945 467.61 797.945 459.58V430.32C797.945 422.18 803.555 416.57 811.695 416.57H820.935C828.965 416.57 834.685 422.18 834.685 430.32V448.58C834.685 449.35 834.135 449.9 833.365 449.9ZM819.285 426.25H813.565C810.595 426.25 808.505 428.34 808.505 431.31V440.44H824.345V431.31C824.345 428.34 822.255 426.25 819.285 426.25Z" fill="#002D3C"/>
<path d="M784.988 462.882H789.828C790.598 462.882 791.038 463.432 791.038 464.092V471.682C791.038 472.452 790.598 473.002 789.828 473.002H782.568C774.868 473.002 769.258 467.392 769.258 459.802V426.362H762.218C761.558 426.362 761.008 425.922 761.008 425.152V418.112C761.008 417.452 761.558 416.902 762.218 416.902H769.258V405.132C769.258 404.472 769.808 403.922 770.578 403.922H778.828C779.488 403.922 780.038 404.472 780.038 405.132V416.902H789.278C790.048 416.902 790.598 417.452 790.598 418.112V425.152C790.598 425.922 790.048 426.362 789.278 426.362H780.038V457.822C780.038 460.792 782.128 462.882 784.988 462.882Z" fill="#002D3C"/>
<path d="M735.191 416.57H742.011C749.601 416.57 754.881 421.85 754.881 429.44V471.68C754.881 472.45 754.331 473 753.671 473H745.421C744.651 473 744.101 472.45 744.101 471.68V431.31C744.101 428.34 742.011 426.25 739.041 426.25H734.421C731.121 426.25 728.701 428.56 728.701 431.86V471.68C728.701 472.45 728.261 473 727.491 473H719.351C718.581 473 718.031 472.45 718.031 471.68V418.11C718.031 417.45 718.581 416.9 719.351 416.9H724.631C725.401 416.9 725.841 417.45 725.951 418.11L726.391 420.75C728.481 417.89 731.561 416.57 735.191 416.57Z" fill="#002D3C"/>
<path d="M706.709 449.9H681.849V458.26C681.849 461.34 683.939 463.32 686.909 463.32H692.629C695.599 463.32 697.689 461.34 697.689 458.26V457.05C697.689 456.28 698.129 455.73 698.899 455.73H706.709C707.479 455.73 708.029 456.28 708.029 457.05V459.58C708.029 467.61 702.309 473.22 694.279 473.22H685.039C676.899 473.22 671.289 467.61 671.289 459.58V430.32C671.289 422.18 676.899 416.57 685.039 416.57H694.279C702.309 416.57 708.029 422.18 708.029 430.32V448.58C708.029 449.35 707.479 449.9 706.709 449.9ZM692.629 426.25H686.909C683.939 426.25 681.849 428.34 681.849 431.31V440.44H697.689V431.31C697.689 428.34 695.599 426.25 692.629 426.25Z" fill="#002D3C"/>
<path d="M641.876 416.57H648.036C655.626 416.57 660.906 421.85 660.906 429.33V471.68C660.906 472.45 660.356 473 659.586 473H651.336C650.676 473 650.126 472.45 650.126 471.68V431.31C650.126 428.34 648.036 426.25 645.176 426.25H641.326C638.136 426.25 635.826 428.56 635.826 431.75V471.68C635.826 472.45 635.276 473 634.616 473H626.806C626.036 473 625.486 472.45 625.486 471.68V431.42C625.486 428.34 623.396 426.25 620.536 426.25H616.686C613.386 426.25 611.076 428.56 611.076 431.75V471.68C611.076 472.45 610.636 473 609.866 473H601.726C600.956 473 600.406 472.45 600.406 471.68V418.11C600.406 417.45 600.956 416.9 601.726 416.9H607.006C607.776 416.9 608.216 417.45 608.326 418.11L608.656 420.75C610.746 418.11 613.716 416.57 617.236 416.57H622.956C627.246 416.57 630.326 418 632.306 420.97C634.286 417.67 638.246 416.57 641.876 416.57Z" fill="#002D3C"/>
<path d="M561.871 429.878V418.108C561.871 417.448 562.421 416.898 563.191 416.898H571.331C572.101 416.898 572.541 417.448 572.541 418.108V431.968L556.151 484.218V491.588C556.151 492.248 555.711 492.798 554.941 492.798H546.911C546.141 492.798 545.591 492.248 545.591 491.588V481.688L548.561 472.998L535.141 431.968V418.108C535.141 417.448 535.691 416.898 536.461 416.898H544.491C545.261 416.898 545.701 417.448 545.701 418.108V429.878L554.061 458.038L561.871 429.878Z" fill="#002D3C"/>
<path d="M471.484 459.58V430.32C471.484 422.18 477.094 416.57 485.234 416.57H494.034C502.064 416.57 507.784 422.18 507.784 430.32V459.58C507.784 467.61 502.064 473.33 494.034 473.33H485.234C477.094 473.33 471.484 467.61 471.484 459.58ZM482.044 431.31V458.37C482.044 461.34 484.134 463.43 487.104 463.43H492.164C495.024 463.43 497.224 461.34 497.224 458.37V431.31C497.224 428.34 495.024 426.25 492.164 426.25H487.104C484.134 426.25 482.044 428.34 482.044 431.31Z" fill="#002D3C"/>
<path d="M441.715 416.57H448.535C456.125 416.57 461.405 421.85 461.405 429.44V460.46C461.405 468.05 456.125 473.33 448.535 473.33H442.595C439.625 473.33 437.205 472.56 435.225 471.02V491.59C435.225 492.25 434.675 492.8 433.905 492.8H425.875C425.105 492.8 424.555 492.25 424.555 491.59V418.11C424.555 417.45 425.105 416.9 425.875 416.9H431.155C431.925 416.9 432.365 417.45 432.475 418.11L432.915 420.75C435.005 417.89 438.085 416.57 441.715 416.57ZM450.625 458.37V431.31C450.625 428.34 448.535 426.25 445.565 426.25H440.945C437.535 426.25 435.225 428.56 435.225 431.86V457.82C435.225 461.12 437.645 463.43 440.945 463.43H445.565C448.535 463.43 450.625 461.34 450.625 458.37Z" fill="#002D3C"/>
<path d="M409.478 416.57H416.958C417.618 416.57 418.168 417.12 418.168 417.78V425.37C418.168 426.14 417.618 426.69 416.958 426.69H408.818C405.518 426.69 403.318 428.89 403.318 432.08V471.68C403.318 472.45 402.878 473 402.108 473H393.968C393.198 473 392.648 472.45 392.648 471.68V418.11C392.648 417.45 393.198 416.9 393.968 416.9H399.248C400.018 416.9 400.458 417.45 400.568 418.11L401.008 420.75C402.988 417.89 405.958 416.57 409.478 416.57Z" fill="#002D3C"/>
<path d="M381.334 449.9H356.474V458.26C356.474 461.34 358.564 463.32 361.534 463.32H367.254C370.224 463.32 372.314 461.34 372.314 458.26V457.05C372.314 456.28 372.754 455.73 373.524 455.73H381.334C382.104 455.73 382.654 456.28 382.654 457.05V459.58C382.654 467.61 376.934 473.22 368.904 473.22H359.664C351.524 473.22 345.914 467.61 345.914 459.58V430.32C345.914 422.18 351.524 416.57 359.664 416.57H368.904C376.934 416.57 382.654 422.18 382.654 430.32V448.58C382.654 449.35 382.104 449.9 381.334 449.9ZM367.254 426.25H361.534C358.564 426.25 356.474 428.34 356.474 431.31V440.44H372.314V431.31C372.314 428.34 370.224 426.25 367.254 426.25Z" fill="#002D3C"/>
<path d="M326.039 416.898H334.179C334.839 416.898 335.389 417.448 335.389 418.108V460.788C335.389 468.048 328.679 473.328 321.309 473.328H312.179C304.919 473.328 298.539 468.048 298.539 460.788V418.108C298.539 417.448 299.089 416.898 299.859 416.898H308.109C308.769 416.898 309.319 417.448 309.319 418.108V458.368C309.319 461.338 311.409 463.428 314.379 463.428H319.109C322.409 463.428 324.719 461.118 324.719 457.818V418.108C324.719 417.448 325.269 416.898 326.039 416.898Z" fill="#002D3C"/>
<path d="M275.743 473.33H267.383C259.243 473.33 253.633 467.61 253.633 459.58V430.32C253.633 422.18 259.243 416.57 267.383 416.57H275.743C283.773 416.57 289.493 422.18 289.493 430.32V434.17C289.493 434.94 288.943 435.38 288.173 435.38H280.253C279.593 435.38 279.043 434.94 279.043 434.17V431.31C279.043 428.34 276.953 426.25 273.983 426.25H269.253C266.283 426.25 264.193 428.34 264.193 431.31V458.37C264.193 461.34 266.283 463.43 269.253 463.43H273.983C276.953 463.43 279.043 461.34 279.043 458.37V455.4C279.043 454.63 279.593 454.08 280.253 454.08H288.173C288.943 454.08 289.493 454.63 289.493 455.4V459.58C289.493 467.61 283.773 473.33 275.743 473.33Z" fill="#002D3C"/>
<path d="M200.989 416.57H210.559C218.259 416.57 223.869 422.18 223.869 429.88V471.68C223.869 472.45 223.319 473 222.549 473H217.269C216.499 473 216.169 472.45 216.059 471.68L215.619 468.38C213.969 471.35 210.889 473.33 207.039 473.33H199.339C191.639 473.33 186.359 468.05 186.359 460.46V451.55C186.359 443.96 191.639 438.68 199.339 438.68H206.489C209.239 438.68 211.549 439.45 213.309 440.99V431.31C213.309 428.34 211.219 426.25 208.249 426.25H202.749C199.669 426.25 197.689 428.23 197.689 431.31V431.97C197.689 432.74 197.139 433.29 196.479 433.29H188.889C188.119 433.29 187.569 432.74 187.569 431.97V429.88C187.569 422.18 193.289 416.57 200.989 416.57ZM213.199 457.71V453.31C213.199 450.12 210.889 447.92 207.699 447.92H202.199C199.119 447.92 196.919 450.12 196.919 453.09V457.93C196.919 461.01 199.119 463.21 202.199 463.21H207.809C210.999 463.21 213.199 461.01 213.199 457.71Z" fill="#002D3C"/>
<path d="M173.9 416.57H181.38C182.04 416.57 182.59 417.12 182.59 417.78V425.37C182.59 426.14 182.04 426.69 181.38 426.69H173.24C169.94 426.69 167.74 428.89 167.74 432.08V471.68C167.74 472.45 167.3 473 166.53 473H158.39C157.62 473 157.07 472.45 157.07 471.68V418.11C157.07 417.45 157.62 416.9 158.39 416.9H163.67C164.44 416.9 164.88 417.45 164.99 418.11L165.43 420.75C167.41 417.89 170.38 416.57 173.9 416.57Z" fill="#002D3C"/>
<path d="M123.427 416.57H132.997C140.697 416.57 146.307 422.18 146.307 429.88V471.68C146.307 472.45 145.757 473 144.987 473H139.707C138.937 473 138.607 472.45 138.497 471.68L138.057 468.38C136.407 471.35 133.327 473.33 129.477 473.33H121.777C114.077 473.33 108.797 468.05 108.797 460.46V451.55C108.797 443.96 114.077 438.68 121.777 438.68H128.927C131.677 438.68 133.987 439.45 135.747 440.99V431.31C135.747 428.34 133.657 426.25 130.687 426.25H125.187C122.107 426.25 120.127 428.23 120.127 431.31V431.97C120.127 432.74 119.577 433.29 118.917 433.29H111.327C110.557 433.29 110.007 432.74 110.007 431.97V429.88C110.007 422.18 115.727 416.57 123.427 416.57ZM135.637 457.71V453.31C135.637 450.12 133.327 447.92 130.137 447.92H124.637C121.557 447.92 119.357 450.12 119.357 453.09V457.93C119.357 461.01 121.557 463.21 124.637 463.21H130.247C133.437 463.21 135.637 461.01 135.637 457.71Z" fill="#002D3C"/>
<path d="M80.3475 416.57H87.1675C94.7575 416.57 100.038 421.85 100.038 429.44V460.46C100.038 468.05 94.7575 473.33 87.1675 473.33H81.2275C78.2575 473.33 75.8375 472.56 73.8575 471.02V491.59C73.8575 492.25 73.3075 492.8 72.5375 492.8H64.5075C63.7375 492.8 63.1875 492.25 63.1875 491.59V418.11C63.1875 417.45 63.7375 416.9 64.5075 416.9H69.7875C70.5575 416.9 70.9975 417.45 71.1075 418.11L71.5475 420.75C73.6375 417.89 76.7175 416.57 80.3475 416.57ZM89.2575 458.37V431.31C89.2575 428.34 87.1675 426.25 84.1975 426.25H79.5775C76.1675 426.25 73.8575 428.56 73.8575 431.86V457.82C73.8575 461.12 76.2775 463.43 79.5775 463.43H84.1975C87.1675 463.43 89.2575 461.34 89.2575 458.37Z" fill="#002D3C"/>
<path d="M811.036 306.57H820.606C828.306 306.57 833.916 312.18 833.916 319.88V361.68C833.916 362.45 833.366 363 832.596 363H827.316C826.546 363 826.216 362.45 826.106 361.68L825.666 358.38C824.016 361.35 820.936 363.33 817.086 363.33H809.386C801.686 363.33 796.406 358.05 796.406 350.46V341.55C796.406 333.96 801.686 328.68 809.386 328.68H816.536C819.286 328.68 821.596 329.45 823.356 330.99V321.31C823.356 318.34 821.266 316.25 818.296 316.25H812.796C809.716 316.25 807.736 318.23 807.736 321.31V321.97C807.736 322.74 807.186 323.29 806.526 323.29H798.936C798.166 323.29 797.616 322.74 797.616 321.97V319.88C797.616 312.18 803.336 306.57 811.036 306.57ZM823.246 347.71V343.31C823.246 340.12 820.936 337.92 817.746 337.92H812.246C809.166 337.92 806.966 340.12 806.966 343.09V347.93C806.966 351.01 809.166 353.21 812.246 353.21H817.856C821.046 353.21 823.246 351.01 823.246 347.71Z" fill="#002D3C"/>
<path d="M786.595 323.84H779.005C778.235 323.84 777.685 323.29 777.685 322.52V320.98C777.685 318.23 775.705 316.25 772.955 316.25H766.905C764.155 316.25 762.175 318.23 762.175 320.98V324.61C762.175 327.36 764.045 329.23 766.685 329.23H775.705C783.625 329.23 788.795 334.29 788.795 342.21V350.02C788.795 357.83 783.295 363.33 775.485 363.33H765.695C757.555 363.33 752.055 357.83 752.055 349.69V346.28C752.055 345.51 752.495 344.96 753.265 344.96H761.295C762.065 344.96 762.615 345.51 762.615 346.28V348.7C762.615 351.45 764.595 353.43 767.345 353.43H773.395C776.145 353.43 778.125 351.45 778.125 348.7V343.97C778.125 341.33 776.255 339.46 773.615 339.46H765.035C757.115 339.46 751.945 334.29 751.945 326.37V320.21C751.945 312.07 757.445 306.57 765.695 306.57H774.165C782.415 306.57 787.915 312.07 787.915 320.21V322.52C787.915 323.29 787.365 323.84 786.595 323.84Z" fill="#002D3C"/>
<path d="M706.523 349.58V320.32C706.523 312.18 712.133 306.57 720.273 306.57H729.073C737.103 306.57 742.823 312.18 742.823 320.32V349.58C742.823 357.61 737.103 363.33 729.073 363.33H720.273C712.133 363.33 706.523 357.61 706.523 349.58ZM717.083 321.31V348.37C717.083 351.34 719.173 353.43 722.143 353.43H727.203C730.063 353.43 732.263 351.34 732.263 348.37V321.31C732.263 318.34 730.063 316.25 727.203 316.25H722.143C719.173 316.25 717.083 318.34 717.083 321.31Z" fill="#002D3C"/>
<path d="M685.156 300.188V291.828C685.156 291.058 685.596 290.508 686.366 290.508H694.726C695.496 290.508 696.046 291.058 696.046 291.828V300.188C696.046 300.848 695.496 301.398 694.726 301.398H686.366C685.596 301.398 685.156 300.848 685.156 300.188ZM685.156 361.678V308.108C685.156 307.448 685.706 306.898 686.476 306.898H694.726C695.386 306.898 695.936 307.448 695.936 308.108V361.678C695.936 362.448 695.386 362.998 694.726 362.998H686.476C685.706 362.998 685.156 362.448 685.156 361.678Z" fill="#002D3C"/>
<path d="M654.73 306.57H661.55C669.14 306.57 674.42 311.85 674.42 319.44V361.68C674.42 362.45 673.87 363 673.21 363H664.96C664.19 363 663.64 362.45 663.64 361.68V321.31C663.64 318.34 661.55 316.25 658.58 316.25H653.96C650.66 316.25 648.24 318.56 648.24 321.86V361.68C648.24 362.45 647.8 363 647.03 363H638.89C638.12 363 637.57 362.45 637.57 361.68V308.11C637.57 307.45 638.12 306.9 638.89 306.9H644.17C644.94 306.9 645.38 307.45 645.49 308.11L645.93 310.75C648.02 307.89 651.1 306.57 654.73 306.57Z" fill="#002D3C"/>
<path d="M590.836 349.58V320.32C590.836 312.18 596.446 306.57 604.586 306.57H613.386C621.416 306.57 627.136 312.18 627.136 320.32V349.58C627.136 357.61 621.416 363.33 613.386 363.33H604.586C596.446 363.33 590.836 357.61 590.836 349.58ZM601.396 321.31V348.37C601.396 351.34 603.486 353.43 606.456 353.43H611.516C614.376 353.43 616.576 351.34 616.576 348.37V321.31C616.576 318.34 614.376 316.25 611.516 316.25H606.456C603.486 316.25 601.396 318.34 601.396 321.31Z" fill="#002D3C"/>
<path d="M561.415 306.57H567.575C575.165 306.57 580.445 311.85 580.445 319.33V361.68C580.445 362.45 579.895 363 579.125 363H570.875C570.215 363 569.665 362.45 569.665 361.68V321.31C569.665 318.34 567.575 316.25 564.715 316.25H560.865C557.675 316.25 555.365 318.56 555.365 321.75V361.68C555.365 362.45 554.815 363 554.155 363H546.345C545.575 363 545.025 362.45 545.025 361.68V321.42C545.025 318.34 542.935 316.25 540.075 316.25H536.225C532.925 316.25 530.615 318.56 530.615 321.75V361.68C530.615 362.45 530.175 363 529.405 363H521.265C520.495 363 519.945 362.45 519.945 361.68V308.11C519.945 307.45 520.495 306.9 521.265 306.9H526.545C527.315 306.9 527.755 307.45 527.865 308.11L528.195 310.75C530.285 308.11 533.255 306.57 536.775 306.57H542.495C546.785 306.57 549.865 308 551.845 310.97C553.825 307.67 557.785 306.57 561.415 306.57Z" fill="#002D3C"/>
<path d="M504.869 306.57H512.349C513.009 306.57 513.559 307.12 513.559 307.78V315.37C513.559 316.14 513.009 316.69 512.349 316.69H504.209C500.909 316.69 498.709 318.89 498.709 322.08V361.68C498.709 362.45 498.269 363 497.499 363H489.359C488.589 363 488.039 362.45 488.039 361.68V308.11C488.039 307.45 488.589 306.9 489.359 306.9H494.639C495.409 306.9 495.849 307.45 495.959 308.11L496.399 310.75C498.379 307.89 501.349 306.57 504.869 306.57Z" fill="#002D3C"/>
<path d="M454.396 306.57H463.966C471.666 306.57 477.276 312.18 477.276 319.88V361.68C477.276 362.45 476.726 363 475.956 363H470.676C469.906 363 469.576 362.45 469.466 361.68L469.026 358.38C467.376 361.35 464.296 363.33 460.446 363.33H452.746C445.046 363.33 439.766 358.05 439.766 350.46V341.55C439.766 333.96 445.046 328.68 452.746 328.68H459.896C462.646 328.68 464.956 329.45 466.716 330.99V321.31C466.716 318.34 464.626 316.25 461.656 316.25H456.156C453.076 316.25 451.096 318.23 451.096 321.31V321.97C451.096 322.74 450.546 323.29 449.886 323.29H442.296C441.526 323.29 440.976 322.74 440.976 321.97V319.88C440.976 312.18 446.696 306.57 454.396 306.57ZM466.606 347.71V343.31C466.606 340.12 464.296 337.92 461.106 337.92H455.606C452.526 337.92 450.326 340.12 450.326 343.09V347.93C450.326 351.01 452.526 353.21 455.606 353.21H461.216C464.406 353.21 466.606 351.01 466.606 347.71Z" fill="#002D3C"/>
<path d="M388.443 306.57H398.013C405.713 306.57 411.323 312.18 411.323 319.88V361.68C411.323 362.45 410.773 363 410.003 363H404.723C403.953 363 403.623 362.45 403.513 361.68L403.073 358.38C401.423 361.35 398.342 363.33 394.492 363.33H386.792C379.092 363.33 373.812 358.05 373.812 350.46V341.55C373.812 333.96 379.092 328.68 386.792 328.68H393.943C396.693 328.68 399.003 329.45 400.763 330.99V321.31C400.763 318.34 398.673 316.25 395.703 316.25H390.203C387.123 316.25 385.143 318.23 385.143 321.31V321.97C385.143 322.74 384.592 323.29 383.932 323.29H376.343C375.573 323.29 375.023 322.74 375.023 321.97V319.88C375.023 312.18 380.743 306.57 388.443 306.57ZM400.653 347.71V343.31C400.653 340.12 398.343 337.92 395.153 337.92H389.653C386.573 337.92 384.372 340.12 384.372 343.09V347.93C384.372 351.01 386.573 353.21 389.653 353.21H395.263C398.453 353.21 400.653 351.01 400.653 347.71Z" fill="#002D3C"/>
<path d="M355.258 286H363.398C364.058 286 364.608 286.55 364.608 287.21V361.68C364.608 362.45 364.058 363 363.398 363H358.008C357.348 363 356.908 362.45 356.798 361.68L356.248 358.05C354.598 361.24 351.738 363.33 347.448 363.33H340.738C333.038 363.33 327.758 358.05 327.758 350.46V319.44C327.758 311.85 333.038 306.57 340.738 306.57H346.678C349.538 306.57 352.068 307.34 354.048 308.99V287.21C354.048 286.55 354.598 286 355.258 286ZM353.938 347.93V321.75C353.938 318.56 351.628 316.14 348.328 316.14H343.598C340.628 316.14 338.538 318.34 338.538 321.31V348.48C338.538 351.45 340.628 353.54 343.598 353.54H348.328C351.628 353.54 353.938 351.23 353.938 347.93Z" fill="#002D3C"/>
<path d="M306.391 300.188V291.828C306.391 291.058 306.831 290.508 307.601 290.508H315.961C316.731 290.508 317.281 291.058 317.281 291.828V300.188C317.281 300.848 316.731 301.398 315.961 301.398H307.601C306.831 301.398 306.391 300.848 306.391 300.188ZM306.391 361.678V308.108C306.391 307.448 306.941 306.898 307.711 306.898H315.961C316.621 306.898 317.171 307.448 317.171 308.108V361.678C317.171 362.448 316.621 362.998 315.961 362.998H307.711C306.941 362.998 306.391 362.448 306.391 361.678Z" fill="#002D3C"/>
<path d="M277.056 306.57H282.996C290.586 306.57 295.866 311.85 295.866 319.44V350.46C295.866 358.05 290.586 363.33 282.996 363.33H276.176C271.996 363.33 269.136 361.24 267.486 358.16L266.936 361.68C266.826 362.45 266.386 363 265.616 363H260.336C259.566 363 259.016 362.45 259.016 361.68V287.21C259.016 286.55 259.566 286 260.336 286H268.366C269.136 286 269.686 286.55 269.686 287.21V308.88C271.666 307.34 274.086 306.57 277.056 306.57ZM285.086 348.48V321.31C285.086 318.34 282.996 316.14 280.026 316.14H275.406C272.106 316.14 269.686 318.56 269.686 321.75V347.93C269.686 351.23 271.996 353.54 275.406 353.54H280.026C282.996 353.54 285.086 351.45 285.086 348.48Z" fill="#002D3C"/>
<path d="M247.701 339.9H222.841V348.26C222.841 351.34 224.931 353.32 227.901 353.32H233.621C236.591 353.32 238.681 351.34 238.681 348.26V347.05C238.681 346.28 239.121 345.73 239.891 345.73H247.701C248.471 345.73 249.021 346.28 249.021 347.05V349.58C249.021 357.61 243.301 363.22 235.271 363.22H226.031C217.891 363.22 212.281 357.61 212.281 349.58V320.32C212.281 312.18 217.891 306.57 226.031 306.57H235.271C243.301 306.57 249.021 312.18 249.021 320.32V338.58C249.021 339.35 248.471 339.9 247.701 339.9ZM233.621 316.25H227.901C224.931 316.25 222.841 318.34 222.841 321.31V330.44H238.681V321.31C238.681 318.34 236.591 316.25 233.621 316.25Z" fill="#002D3C"/>
<path d="M183.384 306.57H189.324C196.914 306.57 202.194 311.85 202.194 319.44V350.46C202.194 358.05 196.914 363.33 189.324 363.33H182.504C178.324 363.33 175.464 361.24 173.814 358.16L173.264 361.68C173.154 362.45 172.714 363 171.944 363H166.664C165.894 363 165.344 362.45 165.344 361.68V287.21C165.344 286.55 165.894 286 166.664 286H174.694C175.464 286 176.014 286.55 176.014 287.21V308.88C177.994 307.34 180.414 306.57 183.384 306.57ZM191.414 348.48V321.31C191.414 318.34 189.324 316.14 186.354 316.14H181.734C178.434 316.14 176.014 318.56 176.014 321.75V347.93C176.014 351.23 178.324 353.54 181.734 353.54H186.354C189.324 353.54 191.414 351.45 191.414 348.48Z" fill="#002D3C"/>
<path d="M112.255 306.57H121.825C129.525 306.57 135.135 312.18 135.135 319.88V361.68C135.135 362.45 134.585 363 133.815 363H128.535C127.765 363 127.435 362.45 127.325 361.68L126.885 358.38C125.235 361.35 122.155 363.33 118.305 363.33H110.605C102.905 363.33 97.625 358.05 97.625 350.46V341.55C97.625 333.96 102.905 328.68 110.605 328.68H117.755C120.505 328.68 122.815 329.45 124.575 330.99V321.31C124.575 318.34 122.485 316.25 119.515 316.25H114.015C110.935 316.25 108.955 318.23 108.955 321.31V321.97C108.955 322.74 108.405 323.29 107.745 323.29H100.155C99.385 323.29 98.835 322.74 98.835 321.97V319.88C98.835 312.18 104.555 306.57 112.255 306.57ZM124.465 347.71V343.31C124.465 340.12 122.155 337.92 118.965 337.92H113.465C110.385 337.92 108.185 340.12 108.185 343.09V347.93C108.185 351.01 110.385 353.21 113.465 353.21H119.075C122.265 353.21 124.465 351.01 124.465 347.71Z" fill="#002D3C"/>
<path d="M68.9569 306.57H75.7769C83.3669 306.57 88.6469 311.85 88.6469 319.44V361.68C88.6469 362.45 88.0969 363 87.4369 363H79.1869C78.4169 363 77.8669 362.45 77.8669 361.68V321.31C77.8669 318.34 75.7769 316.25 72.8069 316.25H68.1869C64.8869 316.25 62.4669 318.56 62.4669 321.86V361.68C62.4669 362.45 62.0269 363 61.2569 363H53.1169C52.3469 363 51.7969 362.45 51.7969 361.68V308.11C51.7969 307.45 52.3469 306.9 53.1169 306.9H58.3969C59.1669 306.9 59.6069 307.45 59.7169 308.11L60.1569 310.75C62.2469 307.89 65.3269 306.57 68.9569 306.57Z" fill="#002D3C"/>
<path d="M29.5022 347.27V287.21C29.5022 286.55 30.0522 286 30.7122 286H39.2922C40.0622 286 40.6122 286.55 40.6122 287.21V348.81C40.6122 357.5 34.7822 363.33 26.0922 363.33H14.6522C6.07219 363.33 0.242188 357.5 0.242188 348.81V287.21C0.242188 286.55 0.682179 286 1.45218 286H10.0322C10.8022 286 11.2422 286.55 11.2422 287.21V347.27C11.2422 350.68 13.5522 352.88 16.9622 352.88H23.8922C27.3022 352.88 29.5022 350.68 29.5022 347.27Z" fill="#002D3C"/>
<rect x="44.1562" width="795" height="181.158" rx="90.5791" fill="white"/>
<path d="M299.883 69.4181H316.216V123.521H332.248V69.4181H348.58V53.6172H299.883V69.4181Z" fill="#002C3C"/>
<path d="M273.25 87.6196L255.202 53.6172L240.18 53.7176V123.521H256.11L256.212 89.4197L274.157 123.521H289.18V53.6172H273.25V87.6196Z" fill="#002C3C"/>
<path d="M685.524 53.6177H661.227V123.521H685.524C688.709 123.543 691.867 122.936 694.818 121.736C697.769 120.536 700.454 118.766 702.72 116.528C704.986 114.289 706.789 111.626 708.025 108.691C709.261 105.755 709.906 102.604 709.924 99.4193V77.7198C709.906 74.5345 709.261 71.384 708.025 68.4484C706.789 65.5128 704.986 62.8496 702.72 60.6111C700.454 58.3727 697.769 56.6028 694.818 55.4029C691.867 54.2029 688.709 53.5963 685.524 53.6177ZM693.994 99.3207C693.971 101.553 693.069 103.687 691.484 105.26C689.898 106.832 687.757 107.716 685.524 107.72H677.157V69.4186H685.524C687.747 69.4004 689.886 70.2638 691.474 71.8197C693.061 73.3755 693.967 75.4971 693.994 77.7197V99.3207Z" fill="#002C3C"/>
<path d="M359.258 123.22H401.604V107.42H375.188V96.3188H394.748V80.5179H375.188V69.3177H401.604V53.6172H359.258V123.22Z" fill="#002C3C"/>
<path d="M139.874 89.6213L125.154 53.3203H110.031V123.222H125.961V97.0224L134.026 115.622H145.62L153.687 97.0224V123.222H169.617V53.3203H154.493L139.874 89.6213Z" fill="#002C3C"/>
<path d="M184.742 123.22H227.089V107.42H200.672V96.3188H220.233V80.5179H200.672V69.3177H227.089V53.6172H184.742V123.22Z" fill="#002C3C"/>
<path d="M620.492 69.4181H626.238V107.72H620.492V123.521H647.915V107.72H642.168V69.4181H647.915V53.6172H620.492V69.4181Z" fill="#002C3C"/>
<path d="M753.975 53.4141H736.331L717.477 123.316H734.013L736.935 112.515H753.471L756.395 123.316H772.929L753.975 53.4141ZM741.17 96.7145L745.204 81.9141L749.236 96.7145H741.17Z" fill="#002C3C"/>
<path d="M609.097 81.3212V75.921H609.197C609.197 75.8206 609.097 75.8206 609.097 75.7202V75.5212C608.575 69.3444 605.718 63.5991 601.107 59.4562C596.496 55.3133 590.479 53.0848 584.282 53.225C578.085 53.3651 572.174 55.8634 567.755 60.2105C563.336 64.5576 560.742 70.4262 560.5 76.6202V99.7218C560.743 105.907 563.331 111.769 567.74 116.114C572.149 120.459 578.047 122.963 584.236 123.116C590.424 123.268 596.439 121.059 601.057 116.936C605.674 112.814 608.549 107.087 609.097 100.921V100.722C609.185 100.397 609.219 100.059 609.197 99.7218H609.097V95.1212H593.167V100.722C592.838 102.788 591.753 104.657 590.122 105.966C588.492 107.276 586.433 107.932 584.345 107.807C582.257 107.682 580.291 106.786 578.828 105.291C577.365 103.797 576.51 101.812 576.43 99.7218V76.6202C576.512 74.5383 577.362 72.5606 578.816 71.0682C580.27 69.5758 582.225 68.6745 584.304 68.538C586.383 68.4014 588.439 69.0394 590.075 70.3288C591.712 71.6183 592.813 73.4679 593.167 75.5212V81.3212H609.097Z" fill="#002C3C"/>
<path d="M531.759 99.2121C531.755 101.442 530.866 103.579 529.287 105.154C527.709 106.729 525.57 107.613 523.341 107.613C521.111 107.613 518.972 106.729 517.394 105.154C515.816 103.579 514.927 101.442 514.922 99.2121V53.1094H498.992V99.2121C499.006 105.661 501.577 111.841 506.142 116.396C510.707 120.951 516.892 123.51 523.341 123.51C529.789 123.51 535.975 120.951 540.54 116.396C545.104 111.841 547.676 105.661 547.689 99.2121V53.1094H531.759V99.2121Z" fill="#002C3C"/>
<path d="M465.735 53.6172H449.805V123.521H489.125V107.72H465.735V53.6172Z" fill="#002C3C"/>
<path d="M519.308 47.8975L534.968 44.7976L536.972 41.9666V35.634L534.466 32.9375H528.203L514.672 42.9114V46.2803L516.176 47.8975H519.308Z" fill="#002C3C"/>
</svg>
